<svg width="76" height="42" viewBox="0 0 76 42" fill="none" xmlns="http://www.w3.org/2000/svg">
<g opacity="0.7">
<path d="M64.5 39C70.8513 39 76 33.8513 76 27.5C76 21.1487 70.8513 16 64.5 16C58.1487 16 53 21.1487 53 27.5C53 33.8513 58.1487 39 64.5 39Z" fill="#FDD835"/>
<path opacity="0.5" d="M69.0871 16.9508L53.9506 32.0872C53.4448 30.9255 53.1245 29.6628 53.0293 28.3389L65.3388 16.0294C66.6626 16.1247 67.9254 16.4449 69.0871 16.9508Z" fill="white"/>
<path opacity="0.5" d="M74.5212 21.8535L58.8551 37.5195C57.8808 36.9697 56.9949 36.2819 56.2231 35.4823L72.484 19.2215C73.2836 19.9933 73.9718 20.8791 74.5212 21.8535Z" fill="white"/>
<path opacity="0.5" d="M72.0144 18.7908L55.7945 35.0103C55.5407 34.7169 55.3017 34.4101 55.0789 34.0916L71.0958 18.0747C71.4138 18.2975 71.7206 18.5365 72.0144 18.7908Z" fill="white"/>
<path opacity="0.5" d="M75.6364 24.6254L61.6275 38.6343C61.2044 38.5256 60.7911 38.3936 60.3877 38.2395L75.2411 23.386C75.3952 23.789 75.5277 24.2027 75.636 24.6259L75.6364 24.6254Z" fill="white"/>
<path opacity="0.5" d="M73.8412 27.9977C73.8412 32.9737 69.8068 37.0082 64.8308 37.0082C62.0353 37.0082 59.5363 35.7351 57.8845 33.7365C59.53 35.5154 61.8848 36.629 64.4988 36.629C69.4748 36.629 73.5092 32.5946 73.5092 27.6186C73.5092 25.4385 72.7348 23.4386 71.4455 21.8798C72.9329 23.4871 73.8412 25.6362 73.8412 27.9977Z" fill="white"/>
<path d="M64.4965 36.633C69.4728 36.633 73.5069 32.5989 73.5069 27.6226C73.5069 22.6462 69.4728 18.6121 64.4965 18.6121C59.5202 18.6121 55.4861 22.6462 55.4861 27.6226C55.4861 32.5989 59.5202 36.633 64.4965 36.633Z" fill="#F39E09"/>
<path d="M71.3246 21.7432C69.7465 20.3829 67.6918 19.5609 65.4453 19.5609C60.4693 19.5609 56.4348 23.5953 56.4348 28.5713C56.4348 30.8179 57.2574 32.8726 58.6171 34.4507C56.6999 32.798 55.4861 30.352 55.4861 27.6226C55.4861 22.6466 59.5205 18.6121 64.4965 18.6121C67.2255 18.6121 69.672 19.8255 71.3246 21.7432Z" fill="#E88102"/>
<path d="M63.9408 25.3182C63.7773 25.5046 63.6951 25.7611 63.6951 26.0881C63.6951 26.4152 63.7895 26.6838 63.9777 26.8792C64.1663 27.0742 64.4691 27.2606 64.8864 27.4376C65.3033 27.615 65.6968 27.7988 66.0674 27.9897C66.4371 28.1802 66.757 28.3967 67.0265 28.6388C67.2956 28.8809 67.5063 29.1635 67.6586 29.486C67.7161 29.6073 67.8863 29.8414 67.8863 29.8414C67.8863 29.8414 67.8877 30.6311 67.8877 30.6504C67.8877 31.4172 67.6438 32.0434 67.1572 32.5273C66.6707 33.012 66.0077 33.2945 65.1695 33.3754V34.728H64.0994V33.3686C63.1215 33.2653 62.3713 32.9306 61.8488 32.3628C61.3264 31.795 61.0649 31.0475 61.0649 30.119V29.4074L63.3321 30.119C63.3321 30.6302 63.4454 31.0197 63.6722 31.2865C63.8986 31.5533 64.2203 31.6868 64.6376 31.6868C64.9426 31.6868 65.1825 31.5956 65.3577 31.4141C65.5329 31.2326 65.62 30.9824 65.62 30.6639C65.62 30.3095 65.5329 30.0318 65.3577 29.8297C65.1825 29.6275 64.8752 29.4371 64.4359 29.2578C63.9961 29.0786 63.5904 28.8971 63.218 28.7129C62.8456 28.5288 62.5254 28.3158 62.2558 28.0737C61.9867 27.8316 61.7801 27.5513 61.6368 27.2323C61.493 26.9143 61.4216 26.5284 61.4216 26.0751V25.3218C61.4216 25.3218 61.8452 24.5312 62.1884 24.2019C62.7001 23.7104 63.3816 23.4247 64.2337 23.3439V21.9239H65.3038V23.3704C66.1245 23.4917 66.7696 23.8295 67.2381 24.3834C67.5588 24.7621 67.9416 25.7813 67.9416 25.7813V26.4929H65.6676C65.6676 26.0262 65.5773 25.6677 65.3981 25.4166C65.2189 25.165 64.9628 25.0397 64.6313 25.0397C64.3348 25.0397 64.1048 25.1331 63.9413 25.3191L63.9408 25.3182Z" fill="#DB6704"/>
<path d="M67.0252 27.9307C66.7561 27.6886 66.4363 27.472 66.0665 27.2816C65.8226 27.1558 65.5675 27.0336 65.3029 26.9137V24.5952C65.3361 24.6294 65.3676 24.6667 65.3972 24.708C65.5764 24.9591 65.6663 25.318 65.6663 25.7843H67.9407C67.9407 24.9322 67.7062 24.2291 67.2377 23.6748C66.7687 23.1209 66.124 22.7831 65.3033 22.6622V21.2158H64.2337V22.6353C63.3816 22.7162 62.6996 23.0019 62.1884 23.4933C61.6772 23.9843 61.4216 24.6092 61.4216 25.367C61.4216 25.8203 61.4935 26.2057 61.6368 26.5242C61.7801 26.8427 61.9867 27.123 62.2558 27.3651C62.5249 27.6072 62.8456 27.8206 63.218 28.0044C63.4934 28.1405 63.7872 28.2752 64.0994 28.4087V30.8843C63.9319 30.8178 63.789 30.7158 63.6722 30.5779C63.4458 30.3111 63.3326 29.9221 63.3326 29.4104H61.0649C61.0649 30.339 61.3264 31.0869 61.8488 31.6543C62.3713 32.2216 63.1215 32.5567 64.0994 32.6601V34.0194H65.1695V32.6668C66.0081 32.5859 66.6707 32.3034 67.1577 31.8191C67.6442 31.3349 67.8877 30.7091 67.8877 29.9418C67.8877 29.489 67.8113 29.1009 67.659 28.7779C67.5063 28.4549 67.2956 28.1724 67.0265 27.9302L67.0252 27.9307ZM63.6947 25.3805C63.6947 25.053 63.7764 24.7965 63.9404 24.6101C64.0217 24.5175 64.1192 24.4483 64.2333 24.4021V26.3836C64.1327 26.3139 64.0473 26.243 63.9777 26.1711C63.7895 25.9761 63.6951 25.7124 63.6951 25.3805H63.6947ZM65.3568 30.706C65.3011 30.7639 65.2377 30.8115 65.1686 30.8511V28.9464C65.2427 29.0034 65.3056 29.0618 65.3568 29.1211C65.5315 29.3228 65.6191 29.6013 65.6191 29.9553C65.6191 30.2738 65.5315 30.524 65.3568 30.7055V30.706Z" fill="#FDD835"/>
<path opacity="0.5" d="M62.2219 23.5003C62.4977 23.2357 62.8229 23.0304 63.1976 22.8853L61.5894 24.4935C61.7138 24.1175 61.9245 23.786 62.2219 23.5003Z" fill="white"/>
<path opacity="0.5" d="M64.8591 21.2206L64.2661 21.8136V21.2206H64.8591Z" fill="white"/>
<path opacity="0.5" d="M67.6707 28.746L63.7957 32.6209C62.9795 32.4821 62.3407 32.1623 61.8794 31.6609C61.5802 31.3362 61.3668 30.9521 61.2388 30.5087L62.3304 29.4171H63.3627C63.3627 29.9283 63.4759 30.3178 63.7027 30.5846C63.9291 30.8515 64.2508 30.9849 64.6681 30.9849C64.9731 30.9849 65.213 30.8937 65.3882 30.7122C65.5634 30.5307 65.6505 30.2805 65.6505 29.962C65.6505 29.6076 65.5634 29.33 65.3882 29.1278C65.213 28.9257 64.9057 28.7352 64.4664 28.556C64.1533 28.4284 63.8577 28.2994 63.5787 28.1692L64.9835 26.7645C65.3761 26.9329 65.7476 27.1072 66.0984 27.2878C66.4681 27.4783 66.788 27.6948 67.0575 27.9369C67.3153 28.1696 67.5202 28.4392 67.6711 28.746H67.6707Z" fill="white"/>
<path opacity="0.5" d="M67.9776 25.7897H65.9624L67.5985 24.1537C67.8514 24.6186 67.9771 25.1644 67.9771 25.7897H67.9776Z" fill="white"/>
<path opacity="0.5" d="M61.0991 29.4175H61.4347L61.1104 29.7418C61.1027 29.6367 61.0991 29.5284 61.0991 29.4175Z" fill="white"/>
<path opacity="0.5" d="M64.009 26.1826C64.1043 26.2814 64.2287 26.3775 64.3823 26.4714L62.9803 27.8734C62.7198 27.7238 62.4889 27.559 62.2867 27.3771C62.2081 27.3061 62.1344 27.2315 62.0662 27.1538L63.7292 25.4908C63.7462 25.7774 63.8397 26.0078 64.009 26.183V26.1826Z" fill="white"/>
<path opacity="0.5" d="M67.2221 23.6282L65.6395 25.2103C65.595 25.0145 65.525 24.8496 65.4288 24.7153C65.2869 24.5167 65.0973 24.3968 64.8601 24.3555L66.2774 22.9382C66.6444 23.1035 66.9593 23.3339 67.2216 23.6286L67.2221 23.6282Z" fill="white"/>
<path opacity="0.5" d="M64.6504 34.0226L65.2025 33.471V34.0226H64.6504Z" fill="white"/>
<path opacity="0.5" d="M67.7724 30.9025C67.652 31.2511 67.4584 31.557 67.1933 31.8212C66.9283 32.0853 66.6112 32.2893 66.2415 32.4335L67.7724 30.9025Z" fill="white"/>
<path opacity="0.25" d="M72.0508 22.6504C66.2159 24.6988 61.5333 29.1977 59.2382 34.9118C59.0374 34.7658 58.8429 34.6113 58.6556 34.4491C57.2962 32.8714 56.4746 30.8172 56.4746 28.5715C56.4746 23.5955 60.509 19.5611 65.485 19.5611C67.7307 19.5611 69.785 20.3827 71.3626 21.7421C71.6106 22.0296 71.8406 22.3328 72.0513 22.6504H72.0508Z" fill="white"/>
</g>
<g opacity="0.7">
<path d="M36.6318 41.3378C47.8808 41.3378 56.9999 32.2187 56.9999 20.9697C56.9999 9.72074 47.8808 0.601624 36.6318 0.601624C25.3828 0.601624 16.2637 9.72074 16.2637 20.9697C16.2637 32.2187 25.3828 41.3378 36.6318 41.3378Z" fill="#FDD835"/>
<path opacity="0.5" d="M36.6318 0.601624C25.3832 0.601624 16.2637 9.72113 16.2637 20.9697C16.2637 32.2183 25.3832 41.3378 36.6318 41.3378C47.8804 41.3378 56.9999 32.2183 56.9999 20.9697C56.9999 9.72113 47.8804 0.601624 36.6318 0.601624ZM36.6318 40.4627C25.8661 40.4627 17.1389 31.7354 17.1389 20.9697C17.1389 10.2041 25.8661 1.47682 36.6318 1.47682C47.3975 1.47682 56.1247 10.2041 56.1247 20.9697C56.1247 31.7354 47.3975 40.4627 36.6318 40.4627Z" fill="white"/>
<path opacity="0.5" d="M44.7563 2.28803L17.9475 29.0968C17.0516 27.0393 16.4843 24.8028 16.3157 22.458L38.1175 0.656189C40.4622 0.824863 42.6988 1.39215 44.7563 2.28803Z" fill="white"/>
<path opacity="0.5" d="M54.3806 10.9695L26.6338 38.7163C24.908 37.7424 23.3391 36.5243 21.9722 35.1081L50.7724 6.30792C52.1886 7.67481 53.4075 9.24379 54.3806 10.9695Z" fill="white"/>
<path opacity="0.5" d="M49.9406 5.54692L21.2128 34.2739C20.7632 33.7544 20.3399 33.2109 19.9453 32.6468L48.3135 4.27869C48.8768 4.67332 49.4202 5.09659 49.9406 5.54692Z" fill="white"/>
<path opacity="0.5" d="M56.357 15.8846L31.5453 40.6963C30.7958 40.5038 30.0638 40.2698 29.3494 39.9969L55.6569 13.6895C55.9298 14.4031 56.1645 15.1359 56.3562 15.8854L56.357 15.8846Z" fill="white"/>
<path opacity="0.5" d="M53.1761 21.849C53.1761 30.6622 46.0306 37.8077 37.2174 37.8077C32.2662 37.8077 27.8401 35.5529 24.9146 32.0132C27.8289 35.1639 31.9996 37.1362 36.6294 37.1362C45.4426 37.1362 52.5882 29.9907 52.5882 21.1775C52.5882 17.3163 51.2165 13.7741 48.933 11.0133C51.5674 13.8601 53.1761 17.6664 53.1761 21.849Z" fill="white"/>
<path d="M36.625 37.1357C45.4388 37.1357 52.5838 29.9908 52.5838 21.177C52.5838 12.3632 45.4388 5.21826 36.625 5.21826C27.8112 5.21826 20.6663 12.3632 20.6663 21.177C20.6663 29.9908 27.8112 37.1357 36.625 37.1357Z" fill="#F39E09"/>
<path d="M48.7186 10.7638C45.9235 8.35463 42.2843 6.89863 38.3054 6.89863C29.4922 6.89863 22.3466 14.0442 22.3466 22.8574C22.3466 26.8363 23.8034 30.4755 26.2118 33.2706C22.8161 30.3435 20.6663 26.0112 20.6663 21.177C20.6663 12.3638 27.8118 5.21826 36.625 5.21826C41.4585 5.21826 45.7915 7.36726 48.7186 10.7638Z" fill="#E88102"/>
<path d="M35.641 17.1079C35.3514 17.4381 35.2058 17.8924 35.2058 18.4716C35.2058 19.0508 35.3729 19.5266 35.7062 19.8727C36.0404 20.218 36.5767 20.5482 37.3158 20.8617C38.0541 21.176 38.7511 21.5014 39.4075 21.8395C40.0623 22.1769 40.6288 22.5604 41.1062 22.9892C41.5828 23.418 41.9559 23.9185 42.2256 24.4898C42.3275 24.7046 42.629 25.1191 42.629 25.1191C42.629 25.1191 42.6314 26.5178 42.6314 26.552C42.6314 27.9102 42.1994 29.0193 41.3377 29.8762C40.476 30.7347 39.3017 31.2351 37.817 31.3783V33.774H35.9218V31.3664C34.1898 31.1834 32.8611 30.5906 31.9357 29.585C31.0104 28.5793 30.5474 27.2554 30.5474 25.6108V24.3505L34.5629 25.6108C34.5629 26.5162 34.7634 27.206 35.1652 27.6786C35.5662 28.1512 36.1359 28.3875 36.875 28.3875C37.4152 28.3875 37.8401 28.226 38.1504 27.9046C38.4607 27.5832 38.6151 27.14 38.6151 26.5759C38.6151 25.9481 38.4607 25.4564 38.1504 25.0984C37.8401 24.7404 37.2959 24.403 36.5178 24.0856C35.7389 23.7681 35.0204 23.4467 34.3608 23.1205C33.7012 22.7943 33.134 22.4171 32.6566 21.9883C32.18 21.5595 31.814 21.063 31.5602 20.4981C31.3056 19.9348 31.1791 19.2513 31.1791 18.4485V17.1143C31.1791 17.1143 31.9294 15.714 32.5372 15.1308C33.4435 14.2603 34.6504 13.7543 36.1597 13.6111V11.0961H38.0549V13.6581C39.5085 13.8729 40.6511 14.4712 41.4809 15.4522C42.049 16.1229 42.7269 17.9282 42.7269 17.9282V19.1885H38.6994C38.6994 18.3618 38.5395 17.7269 38.222 17.2821C37.9046 16.8366 37.451 16.6146 36.8639 16.6146C36.3388 16.6146 35.9314 16.7801 35.6418 17.1095L35.641 17.1079Z" fill="#DB6704"/>
<path d="M41.1038 21.7362C40.6272 21.3074 40.0607 20.9239 39.4059 20.5865C38.9739 20.3638 38.522 20.1473 38.0533 19.9349V15.8287C38.1122 15.8891 38.1679 15.9552 38.2204 16.0284C38.5379 16.4731 38.697 17.1088 38.697 17.9347H42.7253C42.7253 16.4254 42.31 15.1802 41.4801 14.1984C40.6495 13.2174 39.5078 12.6191 38.0541 12.4051V9.84314H36.1597V12.3573C34.6504 12.5005 33.4427 13.0066 32.5372 13.877C31.6318 14.7466 31.1791 15.8533 31.1791 17.1956C31.1791 17.9983 31.3064 18.681 31.5602 19.2451C31.814 19.8092 32.18 20.3057 32.6566 20.7345C33.1332 21.1634 33.7012 21.5413 34.3608 21.8667C34.8485 22.1078 35.3689 22.3465 35.9218 22.5828V26.9675C35.6251 26.8497 35.3721 26.6691 35.1652 26.4249C34.7642 25.9523 34.5637 25.2633 34.5637 24.357H30.5474C30.5474 26.0016 31.0104 27.3263 31.9357 28.3312C32.8611 29.3361 34.1898 29.9296 35.9218 30.1126V32.5202H37.817V30.1245C39.3025 29.9813 40.476 29.4809 41.3385 28.6232C42.2002 27.7655 42.6314 26.6572 42.6314 25.2983C42.6314 24.4963 42.4961 23.8088 42.2264 23.2368C41.9559 22.6647 41.5828 22.1643 41.1062 21.7354L41.1038 21.7362ZM35.205 17.2194C35.205 16.6394 35.3498 16.1851 35.6402 15.8549C35.7842 15.691 35.9569 15.5685 36.1589 15.4865V18.9961C35.9807 18.8727 35.8296 18.747 35.7062 18.6197C35.3729 18.2744 35.2058 17.8074 35.2058 17.2194H35.205ZM38.1488 26.6516C38.0502 26.7543 37.938 26.8386 37.8154 26.9086V23.5351C37.9467 23.6362 38.0581 23.7396 38.1488 23.8446C38.4583 24.2019 38.6135 24.6952 38.6135 25.3221C38.6135 25.8862 38.4583 26.3294 38.1488 26.6508V26.6516Z" fill="#FDD835"/>
<path opacity="0.5" d="M32.59 13.8819C33.0785 13.4133 33.6545 13.0497 34.3181 12.7927L31.4697 15.641C31.6901 14.9751 32.0633 14.3879 32.59 13.8819Z" fill="white"/>
<path opacity="0.5" d="M37.2612 9.85095L36.2109 10.9012V9.85095H37.2612Z" fill="white"/>
<path opacity="0.5" d="M42.2419 23.1798L35.3788 30.0429C33.9332 29.7971 32.8018 29.2306 31.9847 28.3426C31.4548 27.7674 31.0769 27.0871 30.8501 26.3019L32.7835 24.3685H34.6118C34.6118 25.2739 34.8123 25.9637 35.2141 26.4363C35.6151 26.9089 36.1848 27.1452 36.9239 27.1452C37.4642 27.1452 37.889 26.9837 38.1993 26.6623C38.5096 26.3408 38.664 25.8977 38.664 25.3336C38.664 24.7058 38.5096 24.2141 38.1993 23.8561C37.889 23.4981 37.3448 23.1607 36.5667 22.8433C36.0121 22.6173 35.4886 22.389 34.9945 22.1582L37.4825 19.6703C38.1778 19.9686 38.8358 20.2774 39.4572 20.5972C40.112 20.9345 40.6785 21.318 41.1559 21.7469C41.6126 22.159 41.9754 22.6364 42.2427 23.1798H42.2419Z" fill="white"/>
<path opacity="0.5" d="M42.7838 17.9443H39.2146L42.1123 15.0466C42.5602 15.8701 42.783 16.8368 42.783 17.9443H42.7838Z" fill="white"/>
<path opacity="0.5" d="M30.6016 24.362H31.1959L30.6215 24.9364C30.6079 24.7503 30.6016 24.5585 30.6016 24.362Z" fill="white"/>
<path opacity="0.5" d="M35.756 18.628C35.9247 18.803 36.1451 18.9733 36.4172 19.1396L33.934 21.6227C33.4726 21.3578 33.0636 21.0658 32.7056 20.7436C32.5664 20.6178 32.4359 20.4858 32.3149 20.3481L35.2604 17.4027C35.2906 17.9103 35.4561 18.3185 35.756 18.6288V18.628Z" fill="white"/>
<path opacity="0.5" d="M41.4464 14.1101L38.6434 16.9123C38.5646 16.5654 38.4405 16.2734 38.2702 16.0355C38.0188 15.6838 37.683 15.4714 37.2629 15.3982L39.7732 12.888C40.4232 13.1808 40.9809 13.5889 41.4456 14.1109L41.4464 14.1101Z" fill="white"/>
<path opacity="0.5" d="M36.8926 32.5231L37.8704 31.5461V32.5231H36.8926Z" fill="white"/>
<path opacity="0.5" d="M42.4207 26.9973C42.2075 27.6147 41.8646 28.1565 41.3952 28.6244C40.9257 29.0922 40.364 29.4534 39.7092 29.7088L42.4207 26.9973Z" fill="white"/>
<path opacity="0.25" d="M49.9991 12.3808C39.6646 16.0089 31.371 23.9771 27.3061 34.0975C26.9504 33.8389 26.6059 33.5652 26.2742 33.278C23.8666 30.4837 22.4114 26.8453 22.4114 22.868C22.4114 14.0548 29.5569 6.90924 38.3701 6.90924C42.3475 6.90924 45.9859 8.36445 48.7801 10.772C49.2193 11.2812 49.6267 11.8183 49.9999 12.3808H49.9991Z" fill="white"/>
</g>
<path opacity="0.5" d="M64.5 16C58.1489 16 53 21.1489 53 27.5C53 33.8511 58.1489 39 64.5 39C70.8511 39 76 33.8511 76 27.5C76 21.1489 70.8511 16 64.5 16ZM64.5 38.5059C58.4216 38.5059 53.4941 33.5784 53.4941 27.5C53.4941 21.4216 58.4216 16.4941 64.5 16.4941C70.5784 16.4941 75.5059 21.4216 75.5059 27.5C75.5059 33.5784 70.5784 38.5059 64.5 38.5059Z" fill="white"/>
<g opacity="0.7">
<path d="M11.5 39C17.8513 39 23 33.8513 23 27.5C23 21.1487 17.8513 16 11.5 16C5.14873 16 0 21.1487 0 27.5C0 33.8513 5.14873 39 11.5 39Z" fill="#FDD835"/>
<path opacity="0.5" d="M11.5 16C5.14894 16 0 21.1489 0 27.5C0 33.8511 5.14894 39 11.5 39C17.8511 39 23 33.8511 23 27.5C23 21.1489 17.8511 16 11.5 16ZM11.5 38.5059C5.42162 38.5059 0.494141 33.5784 0.494141 27.5C0.494141 21.4216 5.42162 16.4941 11.5 16.4941C17.5784 16.4941 22.5059 21.4216 22.5059 27.5C22.5059 33.5784 17.5784 38.5059 11.5 38.5059Z" fill="white"/>
<path opacity="0.5" d="M16.0871 16.9508L0.950644 32.0872C0.444824 30.9255 0.124531 29.6628 0.0292969 28.3389L12.3388 16.0294C13.6626 16.1247 14.9254 16.4449 16.0871 16.9508Z" fill="white"/>
<path opacity="0.5" d="M21.5212 21.8535L5.85512 37.5195C4.88076 36.9697 3.9949 36.2819 3.22314 35.4823L19.484 19.2215C20.2836 19.9933 20.9718 20.8791 21.5212 21.8535Z" fill="white"/>
<path opacity="0.5" d="M19.0144 18.7908L2.79446 35.0103C2.54065 34.7169 2.30167 34.4101 2.07886 34.0916L18.0958 18.0747C18.4138 18.2975 18.7206 18.5365 19.0144 18.7908Z" fill="white"/>
<path opacity="0.5" d="M22.6364 24.6254L8.62754 38.6343C8.20437 38.5256 7.79109 38.3936 7.3877 38.2395L22.2411 23.386C22.3952 23.789 22.5277 24.2027 22.636 24.6259L22.6364 24.6254Z" fill="white"/>
<path opacity="0.5" d="M20.8412 27.9977C20.8412 32.9737 16.8068 37.0082 11.8308 37.0082C9.0353 37.0082 6.5363 35.7351 4.88452 33.7365C6.53001 35.5154 8.88481 36.629 11.4988 36.629C16.4748 36.629 20.5092 32.5946 20.5092 27.6186C20.5092 25.4385 19.7348 23.4386 18.4455 21.8798C19.9329 23.4871 20.8412 25.6362 20.8412 27.9977Z" fill="white"/>
<path d="M11.4965 36.633C16.4728 36.633 20.5069 32.5989 20.5069 27.6226C20.5069 22.6462 16.4728 18.6121 11.4965 18.6121C6.52019 18.6121 2.48608 22.6462 2.48608 27.6226C2.48608 32.5989 6.52019 36.633 11.4965 36.633Z" fill="#F39E09"/>
<path d="M18.3246 21.7432C16.7465 20.3829 14.6918 19.5609 12.4453 19.5609C7.46927 19.5609 3.43483 23.5953 3.43483 28.5713C3.43483 30.8179 4.25735 32.8726 5.61714 34.4507C3.69987 32.798 2.48608 30.352 2.48608 27.6226C2.48608 22.6466 6.52052 18.6121 11.4965 18.6121C14.2255 18.6121 16.672 19.8255 18.3246 21.7432Z" fill="#E88102"/>
<path d="M10.9408 25.3182C10.7773 25.5046 10.6951 25.7611 10.6951 26.0881C10.6951 26.4152 10.7895 26.6838 10.9777 26.8792C11.1663 27.0742 11.4691 27.2606 11.8864 27.4376C12.3033 27.615 12.6968 27.7988 13.0674 27.9897C13.4371 28.1802 13.757 28.3967 14.0265 28.6388C14.2956 28.8809 14.5063 29.1635 14.6586 29.486C14.7161 29.6073 14.8863 29.8414 14.8863 29.8414C14.8863 29.8414 14.8877 30.6311 14.8877 30.6504C14.8877 31.4172 14.6438 32.0434 14.1572 32.5273C13.6707 33.012 13.0077 33.2945 12.1695 33.3754V34.728H11.0994V33.3686C10.1215 33.2653 9.37127 32.9306 8.84883 32.3628C8.32639 31.795 8.06494 31.0475 8.06494 30.119V29.4074L10.3321 30.119C10.3321 30.6302 10.4454 31.0197 10.6722 31.2865C10.8986 31.5533 11.2203 31.6868 11.6376 31.6868C11.9426 31.6868 12.1825 31.5956 12.3577 31.4141C12.5329 31.2326 12.62 30.9824 12.62 30.6639C12.62 30.3095 12.5329 30.0318 12.3577 29.8297C12.1825 29.6275 11.8752 29.4371 11.4359 29.2578C10.9961 29.0786 10.5904 28.8971 10.218 28.7129C9.84564 28.5288 9.52535 28.3158 9.25582 28.0737C8.98674 27.8316 8.7801 27.5513 8.6368 27.2323C8.49305 26.9143 8.42162 26.5284 8.42162 26.0751V25.3218C8.42162 25.3218 8.84523 24.5312 9.18844 24.2019C9.7001 23.7104 10.3816 23.4247 11.2337 23.3439V21.9239H12.3038V23.3704C13.1245 23.4917 13.7696 23.8295 14.2381 24.3834C14.5588 24.7621 14.9416 25.7813 14.9416 25.7813V26.4929H12.6676C12.6676 26.0262 12.5773 25.6677 12.3981 25.4166C12.2189 25.165 11.9628 25.0397 11.6313 25.0397C11.3348 25.0397 11.1048 25.1331 10.9413 25.3191L10.9408 25.3182Z" fill="#DB6704"/>
<path d="M14.0252 27.9307C13.7561 27.6886 13.4363 27.472 13.0665 27.2816C12.8226 27.1558 12.5675 27.0336 12.3029 26.9137V24.5952C12.3361 24.6294 12.3676 24.6667 12.3972 24.708C12.5764 24.9591 12.6663 25.318 12.6663 25.7843H14.9407C14.9407 24.9322 14.7062 24.2291 14.2377 23.6748C13.7687 23.1209 13.124 22.7831 12.3033 22.6622V21.2158H11.2337V22.6353C10.3816 22.7162 9.69965 23.0019 9.18844 23.4933C8.67723 23.9843 8.42162 24.6092 8.42162 25.367C8.42162 25.8203 8.4935 26.2057 8.6368 26.5242C8.7801 26.8427 8.98674 27.123 9.25582 27.3651C9.5249 27.6072 9.84564 27.8206 10.218 28.0044C10.4934 28.1405 10.7872 28.2752 11.0994 28.4087V30.8843C10.9319 30.8178 10.789 30.7158 10.6722 30.5779C10.4458 30.3111 10.3326 29.9221 10.3326 29.4104H8.06494C8.06494 30.339 8.32639 31.0869 8.84883 31.6543C9.37127 32.2216 10.1215 32.5567 11.0994 32.6601V34.0194H12.1695V32.6668C13.0081 32.5859 13.6707 32.3034 14.1577 31.8191C14.6442 31.3349 14.8877 30.7091 14.8877 29.9418C14.8877 29.489 14.8113 29.1009 14.659 28.7779C14.5063 28.4549 14.2956 28.1724 14.0265 27.9302L14.0252 27.9307ZM10.6947 25.3805C10.6947 25.053 10.7764 24.7965 10.9404 24.6101C11.0217 24.5175 11.1192 24.4483 11.2333 24.4021V26.3836C11.1327 26.3139 11.0473 26.243 10.9777 26.1711C10.7895 25.9761 10.6951 25.7124 10.6951 25.3805H10.6947ZM12.3568 30.706C12.3011 30.7639 12.2377 30.8115 12.1686 30.8511V28.9464C12.2427 29.0034 12.3056 29.0618 12.3568 29.1211C12.5315 29.3228 12.6191 29.6013 12.6191 29.9553C12.6191 30.2738 12.5315 30.524 12.3568 30.7055V30.706Z" fill="#FDD835"/>
<path opacity="0.5" d="M9.22186 23.5003C9.49768 23.2357 9.82291 23.0304 10.1976 22.8853L8.58936 24.4935C8.71379 24.1175 8.92447 23.786 9.22186 23.5003Z" fill="white"/>
<path opacity="0.5" d="M11.8591 21.2206L11.2661 21.8136V21.2206H11.8591Z" fill="white"/>
<path opacity="0.5" d="M14.6707 28.746L10.7957 32.6209C9.97949 32.4821 9.3407 32.1623 8.87936 31.6609C8.58018 31.3362 8.3668 30.9521 8.23877 30.5087L9.33037 29.4171H10.3627C10.3627 29.9283 10.4759 30.3178 10.7027 30.5846C10.9291 30.8515 11.2508 30.9849 11.6681 30.9849C11.9731 30.9849 12.213 30.8937 12.3882 30.7122C12.5634 30.5307 12.6505 30.2805 12.6505 29.962C12.6505 29.6076 12.5634 29.33 12.3882 29.1278C12.213 28.9257 11.9057 28.7352 11.4664 28.556C11.1533 28.4284 10.8577 28.2994 10.5787 28.1692L11.9835 26.7645C12.3761 26.9329 12.7476 27.1072 13.0984 27.2878C13.4681 27.4783 13.788 27.6948 14.0575 27.9369C14.3153 28.1696 14.5202 28.4392 14.6711 28.746H14.6707Z" fill="white"/>
<path opacity="0.5" d="M14.9776 25.7897H12.9624L14.5985 24.1537C14.8514 24.6186 14.9771 25.1644 14.9771 25.7897H14.9776Z" fill="white"/>
<path opacity="0.5" d="M8.09912 29.4175H8.43469L8.11035 29.7418C8.10271 29.6367 8.09912 29.5284 8.09912 29.4175Z" fill="white"/>
<path opacity="0.5" d="M11.009 26.1826C11.1043 26.2814 11.2287 26.3775 11.3823 26.4714L9.98032 27.8734C9.71978 27.7238 9.48888 27.559 9.28673 27.3771C9.20812 27.3061 9.13444 27.2315 9.06616 27.1538L10.7292 25.4908C10.7462 25.7774 10.8397 26.0078 11.009 26.183V26.1826Z" fill="white"/>
<path opacity="0.5" d="M14.2221 23.6282L12.6395 25.2103C12.595 25.0145 12.525 24.8496 12.4288 24.7153C12.2869 24.5167 12.0973 24.3968 11.8601 24.3555L13.2774 22.9382C13.6444 23.1035 13.9593 23.3339 14.2216 23.6286L14.2221 23.6282Z" fill="white"/>
<path opacity="0.5" d="M11.6504 34.0226L12.2025 33.471V34.0226H11.6504Z" fill="white"/>
<path opacity="0.5" d="M14.7724 30.9025C14.652 31.2511 14.4584 31.557 14.1933 31.8212C13.9283 32.0853 13.6112 32.2893 13.2415 32.4335L14.7724 30.9025Z" fill="white"/>
<path opacity="0.25" d="M19.0508 22.6504C13.2159 24.6988 8.53326 29.1977 6.2382 34.9118C6.0374 34.7658 5.84289 34.6113 5.65557 34.4491C4.29623 32.8714 3.47461 30.8172 3.47461 28.5715C3.47461 23.5955 7.50904 19.5611 12.485 19.5611C14.7307 19.5611 16.785 20.3827 18.3626 21.7421C18.6106 22.0296 18.8406 22.3328 19.0513 22.6504H19.0508Z" fill="white"/>
</g>
</svg>
