<svg width="30" height="30" viewBox="0 0 30 30" fill="none" xmlns="http://www.w3.org/2000/svg">
<path d="M14.8743 29.7485C23.0891 29.7485 29.7485 23.0891 29.7485 14.8743C29.7485 6.65943 23.0891 0 14.8743 0C6.65943 0 0 6.65943 0 14.8743C0 23.0891 6.65943 29.7485 14.8743 29.7485Z" fill="#FDD835"/>
<path opacity="0.5" d="M14.8743 0C6.65972 0 0 6.65972 0 14.8743C0 23.0888 6.65972 29.7485 14.8743 29.7485C23.0888 29.7485 29.7485 23.0888 29.7485 14.8743C29.7485 6.65972 23.0888 0 14.8743 0ZM14.8743 29.1094C7.0124 29.1094 0.639128 22.7361 0.639128 14.8743C0.639128 7.0124 7.0124 0.639128 14.8743 0.639128C22.7361 0.639128 29.1094 7.0124 29.1094 14.8743C29.1094 22.7361 22.7361 29.1094 14.8743 29.1094Z" fill="white"/>
<path opacity="0.5" d="M20.8089 1.23123L1.23123 20.8089C0.577 19.3064 0.162728 17.6731 0.0395508 15.9608L15.9608 0.0395508C17.6731 0.162728 19.3064 0.577 20.8089 1.23123Z" fill="white"/>
<path opacity="0.5" d="M27.8364 7.57366L7.57366 27.8364C6.31342 27.1252 5.16764 26.2356 4.16943 25.2014L25.2014 4.16943C26.2356 5.16764 27.1258 6.31342 27.8364 7.57366Z" fill="white"/>
<path opacity="0.5" d="M24.5939 3.61512L3.61478 24.5936C3.2865 24.2142 2.9774 23.8174 2.68921 23.4054L23.4057 2.68896C23.817 2.97715 24.2139 3.28626 24.5939 3.61512Z" fill="white"/>
<path opacity="0.5" d="M29.282 11.1626L11.1627 29.2819C10.6154 29.1413 10.0808 28.9705 9.55908 28.7712L28.7707 9.55957C28.97 10.0808 29.1414 10.6159 29.2814 11.1632L29.282 11.1626Z" fill="white"/>
<path opacity="0.5" d="M26.9579 15.5181C26.9579 21.9541 21.7398 27.1723 15.3037 27.1723C11.688 27.1723 8.45577 25.5257 6.31934 22.9407C8.44763 25.2416 11.4934 26.6819 14.8744 26.6819C21.3104 26.6819 26.5286 21.4637 26.5286 15.0277C26.5286 12.208 25.5269 9.62126 23.8593 7.6051C25.7831 9.68401 26.9579 12.4636 26.9579 15.5181Z" fill="white"/>
<path d="M14.8742 26.6818C21.3106 26.6818 26.5284 21.4641 26.5284 15.0276C26.5284 8.59118 21.3106 3.37341 14.8742 3.37341C8.43774 3.37341 3.21997 8.59118 3.21997 15.0276C3.21997 21.4641 8.43774 26.6818 14.8742 26.6818Z" fill="#F39E09"/>
<path d="M23.7058 7.42316C21.6646 5.66382 19.007 4.60054 16.1013 4.60054C9.66529 4.60054 4.4471 9.81873 4.4471 16.2548C4.4471 19.1605 5.51096 21.8181 7.26972 23.8592C4.7899 21.7216 3.21997 18.5579 3.21997 15.0276C3.21997 8.59161 8.43816 3.37341 14.8742 3.37341C18.4039 3.37341 21.5682 4.94276 23.7058 7.42316Z" fill="#E88102"/>
<path d="M14.1475 12.0575C13.936 12.2986 13.8296 12.6304 13.8296 13.0533C13.8296 13.4763 13.9517 13.8238 14.1951 14.0765C14.4391 14.3287 14.8307 14.5698 15.3705 14.7987C15.9097 15.0282 16.4187 15.2659 16.898 15.5128C17.3762 15.7592 17.7899 16.0392 18.1385 16.3524C18.4866 16.6656 18.7591 17.031 18.956 17.4482C19.0304 17.6051 19.2506 17.9078 19.2506 17.9078C19.2506 17.9078 19.2524 18.9293 19.2524 18.9542C19.2524 19.9461 18.9369 20.756 18.3076 21.3818C17.6784 22.0087 16.8208 22.3742 15.7366 22.4787V24.2282H14.3526V22.47C13.0877 22.3364 12.1174 21.9035 11.4416 21.1691C10.7659 20.4347 10.4277 19.4679 10.4277 18.2669V17.3465L13.3602 18.2669C13.3602 18.9281 13.5066 19.4318 13.8 19.777C14.0928 20.1221 14.5089 20.2947 15.0486 20.2947C15.4431 20.2947 15.7534 20.1767 15.98 19.942C16.2066 19.7072 16.3193 19.3836 16.3193 18.9717C16.3193 18.5132 16.2066 18.1542 15.98 17.8927C15.7534 17.6312 15.356 17.3849 14.7877 17.1531C14.2189 16.9212 13.6943 16.6865 13.2126 16.4483C12.7309 16.2101 12.3166 15.9346 11.968 15.6215C11.62 15.3083 11.3527 14.9457 11.1674 14.5332C10.9815 14.1219 10.8891 13.6227 10.8891 13.0365V12.0621C10.8891 12.0621 11.437 11.0395 11.8809 10.6136C12.5427 9.97797 13.4241 9.60844 14.5263 9.50386V7.66724H15.9103V9.53814C16.9718 9.69502 17.8062 10.1319 18.4122 10.8484C18.827 11.3382 19.3221 12.6565 19.3221 12.6565V13.5768H16.3809C16.3809 12.9732 16.2641 12.5095 16.0323 12.1847C15.8005 11.8593 15.4693 11.6972 15.0405 11.6972C14.657 11.6972 14.3595 11.8181 14.148 12.0586L14.1475 12.0575Z" fill="#DB6704"/>
<path d="M18.138 15.432C17.79 15.1188 17.3763 14.8388 16.8981 14.5924C16.5826 14.4297 16.2526 14.2717 15.9104 14.1166V11.1179C15.9533 11.162 15.994 11.2103 16.0324 11.2637C16.2642 11.5885 16.3804 12.0528 16.3804 12.6559H19.3221C19.3221 11.5537 19.0188 10.6443 18.4128 9.92736C17.8062 9.21096 16.9725 8.77403 15.9109 8.61773V6.74683H14.5275V8.58287C13.4253 8.68745 12.5433 9.05698 11.8821 9.69263C11.2209 10.3277 10.8903 11.1359 10.8903 12.1161C10.8903 12.7023 10.9833 13.2009 11.1686 13.6128C11.3539 14.0248 11.6212 14.3873 11.9693 14.7005C12.3173 15.0137 12.7321 15.2896 13.2138 15.5273C13.57 15.7033 13.95 15.8776 14.3538 16.0502V19.2522C14.1371 19.1663 13.9523 19.0344 13.8012 18.856C13.5084 18.5109 13.362 18.0077 13.362 17.3459H10.429C10.429 18.5469 10.7671 19.5143 11.4428 20.2481C12.1186 20.982 13.0889 21.4154 14.3538 21.549V23.3072H15.7378V21.5578C16.8226 21.4532 17.6796 21.0877 18.3094 20.4614C18.9387 19.835 19.2536 19.0256 19.2536 18.0333C19.2536 17.4476 19.1548 16.9456 18.9578 16.5278C18.7603 16.1101 18.4878 15.7446 18.1397 15.4314L18.138 15.432ZM13.8303 12.1335C13.8303 11.7099 13.936 11.3782 14.1481 11.1371C14.2533 11.0174 14.3793 10.9279 14.5269 10.868V13.4309C14.3968 13.3409 14.2864 13.2491 14.1963 13.1561C13.9529 12.904 13.8309 12.5629 13.8309 12.1335H13.8303ZM15.9801 19.0216C15.908 19.0965 15.8261 19.1581 15.7366 19.2092V16.7457C15.8325 16.8195 15.9138 16.895 15.9801 16.9717C16.2061 17.2326 16.3194 17.5928 16.3194 18.0507C16.3194 18.4626 16.2061 18.7863 15.9801 19.021V19.0216Z" fill="#FDD835"/>
<path opacity="0.5" d="M11.8803 9.69325C12.2371 9.35103 12.6578 9.0855 13.1423 8.89783L11.0623 10.9779C11.2232 10.4916 11.4957 10.0628 11.8803 9.69325Z" fill="white"/>
<path opacity="0.5" d="M15.2928 6.74683L14.5259 7.51378V6.74683H15.2928Z" fill="white"/>
<path opacity="0.5" d="M18.9317 16.479L13.9197 21.491C12.864 21.3114 12.0378 20.8977 11.4411 20.2493C11.0541 19.8292 10.7781 19.3325 10.6125 18.759L12.0244 17.3471H13.3596C13.3596 18.0083 13.5061 18.512 13.7995 18.8572C14.0923 19.2023 14.5083 19.3749 15.0481 19.3749C15.4426 19.3749 15.7529 19.2569 15.9795 19.0222C16.2061 18.7875 16.3188 18.4638 16.3188 18.0519C16.3188 17.5934 16.2061 17.2344 15.9795 16.9729C15.7529 16.7115 15.3555 16.4651 14.7872 16.2333C14.3822 16.0683 13.9999 15.9015 13.6391 15.733L15.456 13.9161C15.9638 14.134 16.4443 14.3595 16.8981 14.593C17.3763 14.8394 17.79 15.1194 18.1386 15.4326C18.4721 15.7336 18.737 16.0822 18.9323 16.479H18.9317Z" fill="white"/>
<path opacity="0.5" d="M19.3216 12.6565H16.7151L18.8312 10.5404C19.1583 11.1418 19.321 11.8477 19.321 12.6565H19.3216Z" fill="white"/>
<path opacity="0.5" d="M10.4272 17.3466H10.8613L10.4418 17.7661C10.4319 17.6301 10.4272 17.4901 10.4272 17.3466Z" fill="white"/>
<path opacity="0.5" d="M14.1951 13.1567C14.3182 13.2846 14.4792 13.4089 14.6779 13.5303L12.8645 15.3437C12.5275 15.1502 12.2289 14.937 11.9674 14.7017C11.8657 14.6099 11.7704 14.5134 11.6821 14.4129L13.8331 12.262C13.8552 12.6327 13.976 12.9307 14.1951 13.1573V13.1567Z" fill="white"/>
<path opacity="0.5" d="M18.3512 9.85828L16.3042 11.9046C16.2467 11.6513 16.1561 11.4381 16.0317 11.2644C15.8481 11.0075 15.6029 10.8524 15.2961 10.799L17.1293 8.96582C17.604 9.17964 18.0113 9.4777 18.3506 9.85886L18.3512 9.85828Z" fill="white"/>
<path opacity="0.5" d="M15.022 23.3079L15.7361 22.5944V23.3079H15.022Z" fill="white"/>
<path opacity="0.5" d="M19.0566 19.2738C18.9008 19.7247 18.6504 20.1204 18.3076 20.462C17.9648 20.8036 17.5546 21.0674 17.0764 21.2539L19.0566 19.2738Z" fill="white"/>
<path opacity="0.25" d="M24.5937 8.59569C17.0468 11.2452 10.9902 17.0641 8.02173 24.4548C7.76202 24.266 7.51043 24.0661 7.26814 23.8563C5.50996 21.8158 4.44727 19.1587 4.44727 16.2542C4.44727 9.81817 9.66546 4.59998 16.1015 4.59998C19.006 4.59998 21.6631 5.66267 23.7036 7.42086C24.0243 7.79271 24.3218 8.1849 24.5943 8.59569H24.5937Z" fill="white"/>
</svg>
