<svg width="16" height="15" viewBox="0 0 16 15" fill="none" xmlns="http://www.w3.org/2000/svg">
<path d="M8.17192 14.6773C12.2249 14.6773 15.5106 11.3917 15.5106 7.33866C15.5106 3.28563 12.2249 0 8.17192 0C4.11888 0 0.833252 3.28563 0.833252 7.33866C0.833252 11.3917 4.11888 14.6773 8.17192 14.6773Z" fill="#FDD835"/>
<path opacity="0.5" d="M8.17192 0C4.11902 0 0.833252 3.28577 0.833252 7.33866C0.833252 11.3916 4.11902 14.6773 8.17192 14.6773C12.2248 14.6773 15.5106 11.3916 15.5106 7.33866C15.5106 3.28577 12.2248 0 8.17192 0ZM8.17192 14.362C4.29303 14.362 1.14859 11.2176 1.14859 7.33866C1.14859 3.45978 4.29303 0.315333 8.17192 0.315333C12.0508 0.315333 15.1952 3.45978 15.1952 7.33866C15.1952 11.2176 12.0508 14.362 8.17192 14.362Z" fill="white"/>
<path opacity="0.5" d="M11.0997 0.60724L1.44049 10.2665C1.11771 9.52515 0.913312 8.71933 0.852539 7.87453L8.70778 0.0192871C9.55258 0.0800604 10.3584 0.284454 11.0997 0.60724Z" fill="white"/>
<path opacity="0.5" d="M14.5672 3.73671L4.56996 13.7339C3.94818 13.383 3.38287 12.9442 2.89038 12.4339L13.2671 2.05713C13.7774 2.54962 14.2166 3.11493 14.5672 3.73671Z" fill="white"/>
<path opacity="0.5" d="M12.9672 1.78361L2.61657 12.134C2.45461 11.9468 2.3021 11.751 2.15991 11.5478L12.381 1.32666C12.584 1.46885 12.7798 1.62135 12.9672 1.78361Z" fill="white"/>
<path opacity="0.5" d="M15.2805 5.50747L6.34076 14.4472C6.07072 14.3778 5.80699 14.2935 5.54956 14.1952L15.0282 4.71655C15.1265 4.97369 15.2111 5.23771 15.2802 5.50775L15.2805 5.50747Z" fill="white"/>
<path opacity="0.5" d="M14.1336 7.65631C14.1336 10.8317 11.5591 13.4063 8.38365 13.4063C6.59973 13.4063 5.005 12.5939 3.95093 11.3185C5.00099 12.4537 6.50369 13.1643 8.17181 13.1643C11.3472 13.1643 13.9218 10.5898 13.9218 7.41436C13.9218 6.02317 13.4276 4.74693 12.6048 3.7522C13.554 4.77789 14.1336 6.1493 14.1336 7.65631Z" fill="white"/>
<path d="M8.17183 13.1643C11.3474 13.1643 13.9218 10.59 13.9218 7.41439C13.9218 4.23877 11.3474 1.66443 8.17183 1.66443C4.99622 1.66443 2.42188 4.23877 2.42188 7.41439C2.42188 10.59 4.99622 13.1643 8.17183 13.1643Z" fill="#F39E09"/>
<path d="M12.5292 3.66249C11.5221 2.79447 10.2109 2.26987 8.77727 2.26987C5.60187 2.26987 3.02731 4.84442 3.02731 8.01983C3.02731 9.45345 3.5522 10.7647 4.41994 11.7717C3.19645 10.7171 2.42188 9.15617 2.42188 7.41439C2.42188 4.23898 4.99643 1.66443 8.17183 1.66443C9.91333 1.66443 11.4745 2.43872 12.5292 3.66249Z" fill="#E88102"/>
<path d="M7.81327 5.94889C7.70892 6.06786 7.65646 6.23154 7.65646 6.44024C7.65646 6.64893 7.71666 6.82036 7.83677 6.94506C7.95717 7.06947 8.15039 7.18844 8.4167 7.30138C8.68273 7.41462 8.93385 7.53186 9.17035 7.6537C9.40627 7.77524 9.61038 7.91342 9.78238 8.06793C9.95409 8.22244 10.0885 8.40276 10.1857 8.60858C10.2224 8.68598 10.3311 8.83534 10.3311 8.83534C10.3311 8.83534 10.3319 9.3393 10.3319 9.35162C10.3319 9.84096 10.1763 10.2406 9.8658 10.5493C9.55534 10.8586 9.13222 11.0389 8.5973 11.0905V11.9537H7.91446V11.0862C7.29039 11.0203 6.81165 10.8067 6.47826 10.4444C6.14487 10.082 5.97803 9.60504 5.97803 9.0125V8.55842L7.42483 9.0125C7.42483 9.33872 7.49707 9.58726 7.64184 9.75754C7.78632 9.92782 7.99157 10.013 8.25789 10.013C8.45253 10.013 8.60561 9.95477 8.71741 9.83896C8.82921 9.72314 8.88483 9.56347 8.88483 9.36022C8.88483 9.13404 8.82921 8.95688 8.71741 8.82788C8.60561 8.69888 8.40953 8.57734 8.12917 8.46296C7.84853 8.34858 7.58967 8.23276 7.35202 8.11523C7.11437 7.9977 6.90998 7.86182 6.73798 7.7073C6.56627 7.55279 6.4344 7.37391 6.34295 7.17038C6.25122 6.96742 6.20564 6.72117 6.20564 6.43192V5.95118C6.20564 5.95118 6.47597 5.44665 6.69498 5.23652C7.02149 4.92291 7.45637 4.74059 8.00017 4.68899V3.78284H8.68301V4.7059C9.20675 4.7833 9.61841 4.99888 9.9174 5.35234C10.1221 5.594 10.3663 6.24444 10.3663 6.24444V6.69852H8.91521C8.91521 6.40068 8.85759 6.17192 8.74321 6.01167C8.62883 5.85114 8.46543 5.77116 8.25387 5.77116C8.06467 5.77116 7.9179 5.83078 7.81355 5.94946L7.81327 5.94889Z" fill="#DB6704"/>
<path d="M9.78201 7.61383C9.6103 7.45932 9.40619 7.32114 9.17026 7.19959C9.0146 7.11933 8.85177 7.04136 8.68293 6.96482V5.48533C8.70414 5.50712 8.72421 5.53091 8.74313 5.55728C8.85751 5.71753 8.91484 5.94658 8.91484 6.24414H10.3662C10.3662 5.70033 10.2166 5.2517 9.9176 4.89795C9.61832 4.54449 9.20695 4.32892 8.68321 4.2518V3.32874H8.00066V4.2346C7.45686 4.2862 7.0217 4.46852 6.69547 4.78214C6.36924 5.09546 6.20613 5.49422 6.20613 5.97782C6.20613 6.26707 6.252 6.51303 6.34344 6.71627C6.43489 6.91952 6.56676 7.0984 6.73847 7.25291C6.91018 7.40743 7.11486 7.54359 7.35251 7.66084C7.52824 7.7477 7.71572 7.8337 7.91495 7.91884V9.49866C7.80802 9.45623 7.71686 9.39116 7.64233 9.30315C7.49785 9.13287 7.42561 8.88462 7.42561 8.55811H5.97852C5.97852 9.15065 6.14536 9.62795 6.47875 9.99001C6.81214 10.3521 7.29088 10.5659 7.91495 10.6319V11.4993H8.59779V10.6362C9.13299 10.5846 9.55583 10.4042 9.86657 10.0952C10.177 9.78619 10.3324 9.38686 10.3324 8.89723C10.3324 8.60827 10.2837 8.36059 10.1865 8.15448C10.089 7.94837 9.95458 7.76805 9.78287 7.61354L9.78201 7.61383ZM7.65666 5.98642C7.65666 5.77744 7.70884 5.61375 7.81347 5.49479C7.86536 5.43573 7.92756 5.39159 8.00038 5.36206V6.62655C7.93616 6.58212 7.8817 6.53682 7.83726 6.49095C7.71715 6.36654 7.65695 6.19827 7.65695 5.98642H7.65666ZM8.71733 9.38486C8.68178 9.42183 8.64136 9.45222 8.59721 9.47745V8.26198C8.64452 8.29839 8.68465 8.33566 8.71733 8.3735C8.82884 8.50221 8.88474 8.67994 8.88474 8.90584C8.88474 9.10908 8.82884 9.26875 8.71733 9.38457V9.38486Z" fill="#FDD835"/>
<path opacity="0.5" d="M6.69464 4.78246C6.87066 4.61361 7.0782 4.48261 7.31728 4.39001L6.29102 5.41628C6.37042 5.17634 6.50487 4.96478 6.69464 4.78246Z" fill="white"/>
<path opacity="0.5" d="M8.3784 3.32874L8 3.70714V3.32874H8.3784Z" fill="white"/>
<path opacity="0.5" d="M10.1738 8.13045L7.70104 10.6032C7.18017 10.5147 6.77253 10.3106 6.47812 9.99063C6.2872 9.78337 6.15104 9.53827 6.06934 9.25533L6.76594 8.55873H7.4247C7.4247 8.88496 7.49694 9.1335 7.6417 9.30378C7.78618 9.47406 7.99144 9.5592 8.25775 9.5592C8.4524 9.5592 8.60547 9.50101 8.71728 9.38519C8.82908 9.26938 8.88469 9.10971 8.88469 8.90646C8.88469 8.68028 8.82908 8.50312 8.71728 8.37412C8.60547 8.24512 8.4094 8.12357 8.12904 8.00919C7.92923 7.92778 7.7406 7.84551 7.56258 7.76237L8.45899 6.86597C8.70954 6.97347 8.94661 7.08469 9.17049 7.19993C9.40642 7.32148 9.61053 7.45965 9.78253 7.61417C9.94707 7.76266 10.0778 7.93466 10.1741 8.13045H10.1738Z" fill="white"/>
<path opacity="0.5" d="M10.3661 6.24448H9.08008L10.1241 5.20044C10.2855 5.49714 10.3658 5.84544 10.3658 6.24448H10.3661Z" fill="white"/>
<path opacity="0.5" d="M5.97778 8.55847H6.19192L5.98495 8.76545C5.98008 8.69837 5.97778 8.62928 5.97778 8.55847Z" fill="white"/>
<path opacity="0.5" d="M7.83676 6.49127C7.89753 6.55434 7.97694 6.61568 8.07498 6.6756L7.18029 7.57028C7.01402 7.47482 6.86668 7.36962 6.73768 7.25352C6.68751 7.20822 6.6405 7.16064 6.59692 7.11104L7.65816 6.0498C7.66906 6.2327 7.72868 6.37976 7.83676 6.49156V6.49127Z" fill="white"/>
<path opacity="0.5" d="M9.88742 4.8639L8.87749 5.87354C8.84911 5.74856 8.80439 5.64335 8.74305 5.55764C8.65246 5.43093 8.53149 5.35439 8.38013 5.32802L9.28456 4.42358C9.51877 4.52908 9.71972 4.67614 9.88713 4.86419L9.88742 4.8639Z" fill="white"/>
<path opacity="0.5" d="M8.24463 11.4996L8.59694 11.1476V11.4996H8.24463Z" fill="white"/>
<path opacity="0.5" d="M10.2355 9.50928C10.1587 9.73173 10.0351 9.92695 9.86599 10.0955C9.69686 10.2641 9.49447 10.3942 9.25854 10.4862L10.2355 9.50928Z" fill="white"/>
<path opacity="0.25" d="M12.9672 4.24094C9.24371 5.54814 6.2555 8.4191 4.79092 12.0655C4.66278 11.9723 4.53865 11.8737 4.41911 11.7702C3.55166 10.7635 3.02734 9.45254 3.02734 8.01949C3.02734 4.84408 5.6019 2.26953 8.7773 2.26953C10.2103 2.26953 11.5213 2.79384 12.528 3.6613C12.6863 3.84476 12.8331 4.03826 12.9675 4.24094H12.9672Z" fill="white"/>
</svg>
