<svg width="393" height="503" viewBox="0 0 393 503" fill="none" xmlns="http://www.w3.org/2000/svg">
<g opacity="0.08" filter="url(#filter0_f_811_1232)">
<path d="M391.408 251.541C391.408 363.619 305.444 454.431 199.456 454.431C93.4684 454.431 7.50391 363.619 7.50391 251.541C7.50391 139.463 93.4684 48.6514 199.456 48.6514C305.444 48.6514 391.408 139.463 391.408 251.541Z" stroke="white" stroke-opacity="0.04" stroke-width="0.957034"/>
</g>
<path d="M423.666 251.5C423.666 382.429 323.242 488.521 199.418 488.521C75.5933 488.521 -24.8306 382.429 -24.8306 251.5C-24.8306 120.571 75.5933 14.4785 199.418 14.4785C323.242 14.4785 423.666 120.571 423.666 251.5Z" stroke="white" stroke-opacity="0.04" stroke-width="0.957034"/>
<path d="M391.408 251.541C391.408 363.619 305.444 454.431 199.456 454.431C93.4684 454.431 7.50391 363.619 7.50391 251.541C7.50391 139.463 93.4684 48.6514 199.456 48.6514C305.444 48.6514 391.408 139.463 391.408 251.541Z" stroke="white" stroke-opacity="0.04" stroke-width="0.957034"/>
<path d="M318.829 251.633C318.829 321.298 265.399 377.726 199.543 377.726C133.688 377.726 80.2573 321.298 80.2573 251.633C80.2573 181.968 133.688 125.54 199.543 125.54C265.399 125.54 318.829 181.968 318.829 251.633Z" stroke="white" stroke-opacity="0.04" stroke-width="0.957034"/>
<path d="M358.076 251.868C358.076 344.31 287.174 419.204 199.766 419.204C112.358 419.204 41.4556 344.31 41.4556 251.868C41.4556 159.426 112.358 84.5322 199.766 84.5322C287.174 84.5322 358.076 159.426 358.076 251.868Z" stroke="white" stroke-opacity="0.04" stroke-width="0.957034"/>
<defs>
<filter id="filter0_f_811_1232" x="-40.8263" y="0.321156" width="480.565" height="502.44" filterUnits="userSpaceOnUse" color-interpolation-filters="sRGB">
<feFlood flood-opacity="0" result="BackgroundImageFix"/>
<feBlend mode="normal" in="SourceGraphic" in2="BackgroundImageFix" result="shape"/>
<feGaussianBlur stdDeviation="23.9258" result="effect1_foregroundBlur_811_1232"/>
</filter>
</defs>
</svg>
