<svg width="29" height="22" viewBox="0 0 29 22" fill="none" xmlns="http://www.w3.org/2000/svg">
<g id="Group 10226">
<path id="Vector" d="M4.75992 7.13995C6.73156 7.13995 8.32989 5.54162 8.32989 3.56998C8.32989 1.59833 6.73156 0 4.75992 0C2.78827 0 1.18994 1.59833 1.18994 3.56998C1.18994 5.54162 2.78827 7.13995 4.75992 7.13995Z" fill="white" fill-opacity="0.6"/>
<path id="Vector_2" d="M8.67504 9.60319C7.47731 10.3506 6.48949 11.3905 5.80457 12.625C5.11965 13.8595 4.76017 15.248 4.75997 16.6598H2.37998C1.74935 16.658 1.14509 16.4066 0.699162 15.9607C0.253236 15.5148 0.00188343 14.9105 0 14.2799L0 11.8999C0.00282515 10.9539 0.379854 10.0475 1.04874 9.37864C1.71763 8.70975 2.62403 8.33272 3.56998 8.3299H5.94996C6.46948 8.33107 6.98248 8.44561 7.45315 8.66553C7.92382 8.88545 8.34082 9.20545 8.67504 9.60319Z" fill="white" fill-opacity="0.6"/>
<path id="Vector_3" d="M23.8 7.13995C25.7716 7.13995 27.3699 5.54162 27.3699 3.56998C27.3699 1.59833 25.7716 0 23.8 0C21.8283 0 20.23 1.59833 20.23 3.56998C20.23 5.54162 21.8283 7.13995 23.8 7.13995Z" fill="white" fill-opacity="0.6"/>
<path id="Vector_4" d="M28.5598 11.8999V14.2799C28.5579 14.9105 28.3066 15.5148 27.8606 15.9607C27.4147 16.4066 26.8105 16.658 26.1798 16.6598H23.7998C23.7996 15.248 23.4402 13.8595 22.7552 12.625C22.0703 11.3905 21.0825 10.3506 19.8848 9.60319C20.219 9.20545 20.636 8.88545 21.1067 8.66553C21.5773 8.44561 22.0903 8.33107 22.6098 8.3299H24.9898C25.9358 8.33272 26.8422 8.70975 27.5111 9.37864C28.18 10.0475 28.557 10.9539 28.5598 11.8999Z" fill="white" fill-opacity="0.6"/>
<path id="Vector_5" d="M14.28 9.51994C16.9088 9.51994 19.04 7.38883 19.04 4.75997C19.04 2.13111 16.9088 0 14.28 0C11.6511 0 9.52002 2.13111 9.52002 4.75997C9.52002 7.38883 11.6511 9.51994 14.28 9.51994Z" fill="white" fill-opacity="0.6"/>
<path id="Vector_6" d="M21.42 16.6599V17.8499C21.4172 18.7958 21.0402 19.7022 20.3713 20.3711C19.7024 21.04 18.796 21.417 17.8501 21.4198H10.7101C9.76417 21.417 8.85777 21.04 8.18888 20.3711C7.51999 19.7022 7.14296 18.7958 7.14014 17.8499V16.6599C7.14014 15.0818 7.76701 13.5684 8.88284 12.4526C9.99867 11.3368 11.5121 10.7099 13.0901 10.7099H15.4701C17.0481 10.7099 18.5615 11.3368 19.6773 12.4526C20.7932 13.5684 21.42 15.0818 21.42 16.6599Z" fill="white" fill-opacity="0.6"/>
</g>
</svg>
