<svg width="24" height="24" viewBox="0 0 24 24" fill="none" xmlns="http://www.w3.org/2000/svg">
<g id="Group 17393">
<path id="Vector" fill-rule="evenodd" clip-rule="evenodd" d="M13.3868 7.78586L0.610933 20.5617C0.142384 21.0303 0.142384 21.7895 0.610933 22.258L1.82017 23.4673C2.28872 23.9358 3.04794 23.9358 3.51649 23.4673L16.2316 10.7525C15.6984 10.0955 15.121 9.45418 14.5006 8.83418C14.1361 8.46936 13.7642 8.11992 13.3868 7.78586ZM18.7522 2.42003C19.1407 2.74225 19.5182 3.08617 19.8834 3.45139C20.5065 4.07415 21.067 4.73359 21.5647 5.41945L22.4856 4.49852C22.9538 4.02997 22.9538 3.27036 22.4856 2.8022C22.105 2.4216 21.6566 1.97356 21.276 1.59257C20.8078 1.12442 20.0482 1.12442 19.5801 1.59257L18.7522 2.42003Z" fill="white" fill-opacity="0.6"/>
<path id="Vector_2" fill-rule="evenodd" clip-rule="evenodd" d="M4.42595 1.72866C4.25793 1.69671 4.12897 1.56025 4.10648 1.39026C4.084 1.22027 4.17274 1.05542 4.32695 0.980479C8.91818 -1.06055 14.8638 0.105301 19.0468 4.28793C23.2294 8.47056 24.3953 14.4162 22.3507 19.0058C22.2762 19.1581 22.1129 19.2456 21.9449 19.2231C21.7773 19.201 21.6424 19.074 21.61 18.9076C20.809 15.2361 18.6666 11.3268 15.3371 7.99728C12.0079 4.66813 8.09862 2.52574 4.42595 1.72866Z" fill="white" fill-opacity="0.6"/>
</g>
</svg>
