<svg width="24" height="24" viewBox="0 0 24 24" fill="none" xmlns="http://www.w3.org/2000/svg">
<g id="Group 17392">
<g id="Group">
<g id="Layer_2_00000036932370786409780270000003217649208085296299_">
<path id="Vector" d="M20.4951 3.04658V3.39001C20.2203 3.34587 19.9425 3.32367 19.6642 3.32354H4.15437C3.87607 3.32367 3.59827 3.34587 3.32349 3.39001V3.04658C3.32227 1.36521 4.68429 0.00121777 6.36562 8.14866e-07H6.37007H17.4485C19.1299 -0.00121614 20.4939 1.36081 20.4951 3.04213V3.04658Z" fill="white" fill-opacity="0.6"/>
<path id="Vector_2" d="M16.0637 14.125C16.0649 15.5012 17.1802 16.6165 18.5564 16.6177H23.8186V11.6324H18.5564C17.1802 11.6336 16.0649 12.7489 16.0637 14.125Z" fill="white" fill-opacity="0.6"/>
<path id="Vector_3" d="M18.5564 18.2794C16.262 18.2794 14.402 16.4194 14.402 14.125C14.402 11.8306 16.262 9.97057 18.5564 9.97057H23.8187V8.58576C23.8163 6.29235 21.9577 4.43377 19.6643 4.43134H4.15443C1.86102 4.43377 0.00243391 6.29235 0 8.58576V19.6642C0.00243391 21.9576 1.86102 23.8162 4.15443 23.8187H19.6643C21.9577 23.8162 23.8163 21.9576 23.8187 19.6642V18.2794H18.5564ZM6.09316 16.3407C6.09316 16.7996 5.72115 17.1716 5.26227 17.1716C4.8034 17.1716 4.43139 16.7996 4.43139 16.3407V11.9093C4.43139 11.4504 4.8034 11.0784 5.26227 11.0784C5.72115 11.0784 6.09316 11.4504 6.09316 11.9093V16.3407Z" fill="white" fill-opacity="0.6"/>
</g>
</g>
</g>
</svg>
