<svg width="11" height="12" viewBox="0 0 11 12" fill="none" xmlns="http://www.w3.org/2000/svg">
<g id="Layer 2">
<path id="Vector" d="M8.56397 0.0595398H2.42859C1.78474 0.0603515 1.16749 0.316481 0.712214 0.771754C0.256941 1.22703 0.000811751 1.84428 0 2.48813V8.62351C0.000811751 9.26737 0.256941 9.88462 0.712214 10.3399C1.16749 10.7952 1.78474 11.0513 2.42859 11.0521H8.56397C9.20783 11.0513 9.82508 10.7952 10.2803 10.3399C10.7356 9.88462 10.9918 9.26737 10.9926 8.62351V2.48813C10.9918 1.84428 10.7356 1.22703 10.2803 0.771754C9.82508 0.316481 9.20783 0.0603515 8.56397 0.0595398ZM5.49628 2.36031C5.62268 2.36031 5.74625 2.39779 5.85135 2.46802C5.95645 2.53824 6.03836 2.63806 6.08674 2.75484C6.13511 2.87162 6.14776 3.00012 6.1231 3.12409C6.09844 3.24807 6.03758 3.36195 5.9482 3.45133C5.85882 3.54071 5.74494 3.60157 5.62096 3.62623C5.49699 3.65089 5.36849 3.63824 5.25171 3.58986C5.13493 3.54149 5.03511 3.45958 4.96489 3.35448C4.89466 3.24938 4.85718 3.12581 4.85718 2.99941C4.85745 2.82999 4.92487 2.66759 5.04467 2.5478C5.16446 2.428 5.32686 2.36058 5.49628 2.36031ZM6.26321 8.62351H4.72936C4.59376 8.62351 4.46371 8.56965 4.36783 8.47376C4.27194 8.37788 4.21808 8.24783 4.21808 8.11223C4.21808 7.97663 4.27194 7.84658 4.36783 7.7507C4.46371 7.65482 4.59376 7.60095 4.72936 7.60095H4.985V4.97603C4.88753 4.91975 4.81136 4.83288 4.76829 4.7289C4.72523 4.62492 4.71767 4.50964 4.7468 4.40093C4.77593 4.29221 4.84012 4.19615 4.92941 4.12764C5.01869 4.05912 5.12809 4.02198 5.24064 4.02198H5.49628C5.63188 4.02198 5.76193 4.07584 5.85781 4.17173C5.9537 4.26761 6.00756 4.39766 6.00756 4.53326V7.60095H6.26321C6.39881 7.60095 6.52885 7.65482 6.62474 7.7507C6.72062 7.84658 6.77449 7.97663 6.77449 8.11223C6.77449 8.24783 6.72062 8.37788 6.62474 8.47376C6.52885 8.56965 6.39881 8.62351 6.26321 8.62351Z" fill="#A4A4A4"/>
</g>
</svg>
