<svg width="16" height="16" viewBox="0 0 16 16" fill="none" xmlns="http://www.w3.org/2000/svg">
<g id="Group 17466">
<g id="Group 17465">
<g id="Group">
<path id="Vector" d="M7.78101 0.354187C3.6451 0.354187 0.280273 3.71906 0.280273 7.85497C0.280273 11.9909 3.6451 15.3557 7.78101 15.3557C11.9169 15.3557 15.2817 11.9909 15.2817 7.85497C15.2817 3.71906 11.9169 0.354187 7.78101 0.354187ZM7.78101 13.9919C4.39704 13.9919 1.64404 11.2389 1.64404 7.85497C1.64404 4.47104 4.39704 1.71796 7.78101 1.71796C11.165 1.71796 13.918 4.47104 13.918 7.85497C13.918 11.2389 11.1649 13.9919 7.78101 13.9919Z" fill="white"/>
<path id="Vector_2" d="M7.78101 3.53632C7.27978 3.53632 6.87201 3.94436 6.87201 4.4459C6.87201 4.947 7.27978 5.35468 7.78101 5.35468C8.28224 5.35468 8.69001 4.947 8.69001 4.4459C8.69001 3.94436 8.28224 3.53632 7.78101 3.53632Z" fill="white"/>
<path id="Vector_3" d="M7.78119 6.71844C7.40461 6.71844 7.0993 7.02375 7.0993 7.40033V11.4916C7.0993 11.8682 7.40461 12.1735 7.78119 12.1735C8.15777 12.1735 8.46307 11.8682 8.46307 11.4916V7.40033C8.46307 7.02375 8.15777 6.71844 7.78119 6.71844Z" fill="white"/>
</g>
</g>
</g>
</svg>
