<svg width="20" height="20" viewBox="0 0 20 20" fill="none" xmlns="http://www.w3.org/2000/svg">
<g id="Group 17493">
<path id="Union" fill-rule="evenodd" clip-rule="evenodd" d="M12.6343 6.99595C11.8457 6.27414 11.3511 5.23632 11.3511 4.08298C11.3511 1.90263 13.1187 0.135071 15.2991 0.135071C17.4794 0.135071 19.247 1.90263 19.247 4.08298C19.247 5.24121 18.7482 6.28295 17.9537 7.00513C18.5029 7.21867 19.0202 7.49608 19.4964 7.82821C19.847 8.07279 19.933 8.55532 19.6884 8.90597C19.4439 9.25663 18.9613 9.34261 18.6107 9.09803C17.6673 8.44005 16.521 8.05428 15.2822 8.05428C13.7035 8.05428 12.2723 8.68135 11.2223 9.70185C11.1395 10.7307 10.6622 11.6481 9.94188 12.3029C10.491 12.5165 11.0083 12.7938 11.4844 13.126C11.8351 13.3705 11.9211 13.8531 11.6765 14.2037C11.4319 14.5544 10.9494 14.6404 10.5987 14.3958C9.6554 13.7378 8.50906 13.352 7.27025 13.352C4.65937 13.352 2.34473 15.0639 1.59588 17.3922L1.59587 17.3922C1.43504 17.8922 1.80801 18.4039 2.33296 18.4039H9.06764C9.49516 18.4039 9.84174 18.7504 9.84174 19.178C9.84174 19.6055 9.49516 19.9521 9.06764 19.9521H2.33296C0.757846 19.9521 -0.360179 18.4173 0.122037 16.9182C0.809851 14.7796 2.5059 13.0786 4.61532 12.2871C3.8309 11.5655 3.33935 10.5305 3.33935 9.38073C3.33935 7.20037 5.10691 5.43282 7.28727 5.43282C8.94802 5.43282 10.3693 6.45829 10.9524 7.91058C11.4667 7.53693 12.0314 7.22801 12.6343 6.99595ZM15.2991 6.4827C13.9737 6.4827 12.8993 5.4083 12.8993 4.08298C12.8993 2.75767 13.9737 1.68327 15.2991 1.68327C16.6244 1.68327 17.6988 2.75767 17.6988 4.08298C17.6988 5.4083 16.6244 6.4827 15.2991 6.4827ZM4.88755 9.38073C4.88755 10.706 5.96196 11.7804 7.28727 11.7804C8.61258 11.7804 9.68698 10.706 9.68698 9.38073C9.68698 8.05542 8.61258 6.98102 7.28727 6.98102C5.96196 6.98102 4.88755 8.05542 4.88755 9.38073ZM16.1508 19.9521C16.5783 19.9521 16.9249 19.6055 16.9249 19.178V17.0492H19.0535C19.481 17.0492 19.8276 16.7026 19.8276 16.2751C19.8276 15.8475 19.481 15.501 19.0535 15.501H16.9249V13.3722C16.9249 12.9447 16.5783 12.5981 16.1508 12.5981C15.7233 12.5981 15.3767 12.9447 15.3767 13.3722V15.501H13.2478C12.8202 15.501 12.4737 15.8475 12.4737 16.2751C12.4737 16.7026 12.8202 17.0492 13.2478 17.0492H15.3767V19.178C15.3767 19.6055 15.7233 19.9521 16.1508 19.9521Z" fill="white"/>
</g>
</svg>
