<svg width="62" height="63" viewBox="0 0 62 63" fill="none" xmlns="http://www.w3.org/2000/svg">
<path id="Vector" d="M61.2475 31.2957C54.235 30.235 49.0515 29.1638 45.1272 27.5282C51.3559 22.6895 59.9464 13.7175 59.0685 1.45879L59.0319 0.93103L58.5042 0.972833C58.3526 0.983284 45.7856 2.19557 34.4518 15.4471C33.2604 11.8416 32.3825 7.31122 31.5151 1.55285C31.5151 1.33861 31.3374 1.16095 31.1232 1.16095C30.909 1.16095 30.7313 1.33861 30.7313 1.55285C29.7124 8.29359 28.683 13.3204 27.1519 17.1663C22.4543 10.9115 13.2733 1.63646 0.565208 2.5509L0.0374451 2.58748L0.0792481 3.11524C0.0896988 3.272 1.36469 16.487 15.5934 28.0351C11.8729 29.3623 7.13873 30.3186 0.988463 31.2957C0.774223 31.2957 0.59656 31.4734 0.59656 31.6876C0.59656 31.9019 0.774223 32.0795 0.988463 32.0795C7.01332 32.9887 11.6639 33.9084 15.3373 35.1834C9.1296 40.0639 0.779448 48.9627 1.64686 61.0543L1.68344 61.582L2.2112 61.5402C2.36796 61.5298 15.5202 60.26 27.0526 46.1201C28.5941 49.9921 29.6496 55.0503 30.7261 61.8119C30.7261 62.0262 30.9037 62.2039 31.118 62.2039C31.3322 62.2039 31.5099 62.0262 31.5099 61.8119C32.4661 55.4945 33.4276 50.6714 34.8019 46.9248C39.7817 53.049 48.4767 60.8034 60.1502 59.9622L60.6779 59.9256L60.6361 59.3978C60.6257 59.2463 59.4238 46.7628 46.2925 35.4551C50.06 34.0652 54.9039 33.0776 61.2423 32.0743C61.4565 32.0743 61.6342 31.8966 61.6342 31.6824C61.6342 31.4682 61.4565 31.2905 61.2423 31.2905L61.2475 31.2957ZM58.06 2.09106C58.6244 13.8952 50.0338 22.5119 44.0456 27.0475C39.4681 24.879 36.7562 21.7542 34.8489 16.6019C44.6935 4.80826 55.5623 2.48297 58.06 2.09106ZM1.19225 3.5594C13.4719 2.96893 22.308 12.2962 26.6816 18.2845C24.6019 22.8829 21.6235 25.6419 16.7377 27.6014C4.05053 17.553 1.59461 6.13028 1.19225 3.5594ZM2.66058 60.4272C2.10147 48.7433 10.5143 40.1789 16.4922 35.6119C21.4772 37.5662 24.487 40.3565 26.5928 45.028C16.5653 57.5898 5.22624 60.0301 2.66058 60.4272ZM59.5283 58.9589C48.2833 59.4971 39.9332 51.727 35.246 45.8171C37.2944 40.8791 40.2415 37.9529 45.1951 35.8993C56.8373 45.7021 59.1469 56.4716 59.5336 58.9589H59.5283Z" fill="white" fill-opacity="0.1"/>
</svg>
