<svg width="78" height="78" viewBox="0 0 78 78" fill="none" xmlns="http://www.w3.org/2000/svg">
<g id="Clip path group">
<mask id="mask0_1_1862" style="mask-type:luminance" maskUnits="userSpaceOnUse" x="0" y="0" width="78" height="78">
<g id="clip0_1063_9909">
<path id="Vector" d="M77.9999 0.526886H0.840118V77.77H77.9999V0.526886Z" fill="white"/>
</g>
</mask>
<g mask="url(#mask0_1_1862)">
<g id="Group">
<path id="Vector_2" d="M35.4466 62.3437C34.9076 62.6251 34.2495 62.4111 33.9801 61.8721L30.9836 56.0813C30.7021 55.5421 30.9163 54.8843 31.4553 54.6186L36.5485 51.9828C37.1391 51.6736 37.3293 50.9088 36.9251 50.3696L31.1738 42.5494C30.7695 42.0104 29.9928 41.9588 29.521 42.4266L25.49 46.513C25.0738 46.941 24.3762 46.941 23.9442 46.513L19.3068 41.9311C18.8787 41.5149 18.8787 40.8173 19.3068 40.3853L23.8887 35.7478C24.3048 35.3198 25.0025 35.3198 25.4344 35.7478L29.521 39.7789C29.9928 40.2504 30.7853 40.1832 31.1738 39.644L36.8457 31.7445C37.2342 31.2055 37.0479 30.4404 36.4574 30.1313L31.3245 27.551C30.7853 27.2815 30.5713 26.6236 30.8409 26.0844L33.77 20.254C34.0396 19.7148 34.6975 19.5008 35.2366 19.7704L41.067 22.6995C41.6062 22.9691 41.8202 23.627 41.5506 24.1662L38.9702 29.2989C38.673 29.9053 38.9702 30.6149 39.6164 30.8289L48.8754 33.7699C49.5055 33.9721 50.1794 33.5559 50.2864 32.898L51.1466 27.2261C51.2417 26.6355 51.7926 26.2193 52.3832 26.3103L58.8319 27.2894C59.4226 27.3846 59.8387 27.9354 59.7477 28.526L58.7686 34.975C58.6735 35.5654 58.1226 35.9818 57.532 35.8905L51.8601 35.0303C51.202 34.9233 50.5956 35.4465 50.6116 36.1203L50.6669 45.8352C50.6669 46.5091 51.2733 47.0165 51.9314 46.8976L57.5875 45.9699C58.178 45.8748 58.7448 46.2791 58.836 46.8697L59.8982 53.3067C59.9933 53.8974 59.589 54.464 58.9984 54.5552L52.5616 55.6176C51.971 55.7127 51.4041 55.3082 51.3131 54.7178L50.3854 49.0616C50.2784 48.4038 49.6048 47.9993 48.9746 48.2014L39.7552 51.2536C39.1248 51.4676 38.8275 52.1929 39.1248 52.7835L41.7567 57.8768C42.0382 58.4157 41.8241 59.0738 41.285 59.3434L35.4546 62.3398L35.4466 62.3437Z" fill="white" fill-opacity="0.1"/>
<path id="Vector_3" d="M62.1174 62.1024L66.3346 62.2055C66.9371 62.2213 67.4326 61.7456 67.4484 61.1431L67.5515 56.9259C67.5673 56.3234 67.0917 55.824 66.4892 55.8121L62.272 55.709C61.6695 55.6932 61.174 56.1688 61.1582 56.7713L61.0551 60.9886C61.0393 61.5911 61.5149 62.0866 62.1174 62.1024Z" fill="white" fill-opacity="0.1"/>
<path id="Vector_4" d="M67.6171 65.7763L66.8124 68.2575C66.6736 68.6895 66.9076 69.1493 67.3397 69.292L69.8168 70.1005C70.249 70.2393 70.7088 70.0054 70.8515 69.5735L71.6559 67.0962C71.7947 66.6642 71.5608 66.2044 71.1289 66.0617L68.6515 65.2531C68.2196 65.1143 67.7598 65.3483 67.6171 65.7802V65.7763Z" fill="white" fill-opacity="0.1"/>
<path id="Vector_5" d="M27.78 67.2227L28.9851 71.2655C29.1554 71.8403 29.762 72.1694 30.3406 71.9988L34.3835 70.794C34.9582 70.6234 35.2872 70.017 35.1168 69.4383L33.9118 65.3955C33.7414 64.8207 33.135 64.4917 32.5563 64.6622L28.5133 65.867C27.9387 66.0376 27.6097 66.644 27.78 67.2227Z" fill="white" fill-opacity="0.1"/>
<path id="Vector_6" d="M26.0309 73.5255H23.4228C22.9709 73.5255 22.6023 73.8941 22.6023 74.346V76.9541C22.6023 77.4059 22.9709 77.7745 23.4228 77.7745H26.0309C26.4827 77.7745 26.8513 77.4059 26.8513 76.9541V74.346C26.8513 73.8941 26.4827 73.5255 26.0309 73.5255Z" fill="white" fill-opacity="0.1"/>
<path id="Vector_7" d="M12.3129 36.1441L8.84071 38.542C8.34527 38.883 8.22239 39.5607 8.56325 40.0562L10.9612 43.5284C11.3021 44.0237 11.9799 44.1467 12.4754 43.8058L15.9475 41.4078C16.4429 41.0669 16.5658 40.3891 16.2249 39.8936L13.827 36.4216C13.4861 35.9261 12.8083 35.8031 12.3129 36.1441Z" fill="white" fill-opacity="0.1"/>
<path id="Vector_8" d="M5.71969 36.4061L4.91508 33.9249C4.77635 33.4929 4.31261 33.259 3.88058 33.3978L1.39935 34.2024C0.967318 34.341 0.733464 34.8048 0.872191 35.2369L1.67681 37.7181C1.81553 38.1501 2.27928 38.384 2.71131 38.2452L5.19254 37.4407C5.62457 37.302 5.85842 36.8382 5.71969 36.4061Z" fill="white" fill-opacity="0.1"/>
<path id="Vector_9" d="M37.0886 11.8315L33.7353 9.27099C33.2558 8.90632 32.574 8.99749 32.2093 9.47313L29.6489 12.8264C29.2842 13.306 29.3755 13.9877 29.8511 14.3524L33.2042 16.9129C33.6839 17.2775 34.3655 17.1863 34.7302 16.7107L37.2908 13.3575C37.6553 12.8779 37.5643 12.1961 37.0845 11.8315H37.0886Z" fill="white" fill-opacity="0.1"/>
<path id="Vector_10" d="M34.7919 5.65237L36.9006 4.12242C37.2653 3.85685 37.3486 3.34554 37.0829 2.97692L35.5529 0.868273C35.2874 0.50362 34.7761 0.420383 34.4075 0.685947L32.2988 2.21591C31.9341 2.48148 31.8509 2.99278 32.1166 3.36139L33.6466 5.47005C33.912 5.8347 34.4233 5.91793 34.7919 5.65237Z" fill="white" fill-opacity="0.1"/>
<path id="Vector_11" d="M67.8724 27.8758L69.2716 23.8963C69.4697 23.3296 69.1724 22.7072 68.6056 22.509L64.6262 21.1098C64.0593 20.9117 63.4371 21.209 63.2389 21.7759L61.8397 25.7553C61.6415 26.3221 61.9389 26.9443 62.5056 27.1425L66.4852 28.5417C67.0518 28.74 67.6742 28.4427 67.8724 27.8758Z" fill="white" fill-opacity="0.1"/>
<path id="Vector_12" d="M73.0585 23.7778L75.1672 25.3117C75.5319 25.5773 76.0471 25.498 76.3128 25.1294L77.8467 23.0207C78.1121 22.656 78.033 22.1408 77.6644 21.8753L75.5557 20.3413C75.191 20.0758 74.6758 20.1551 74.4101 20.5237L72.8763 22.6322C72.6108 22.9969 72.6899 23.5123 73.0585 23.7778Z" fill="white" fill-opacity="0.1"/>
</g>
</g>
</g>
</svg>
