<svg width="11" height="11" viewBox="0 0 11 11" fill="none" xmlns="http://www.w3.org/2000/svg">
<g id="Group 17431">
<g id="Group">
<g id="Group_2">
<path id="Vector" d="M5.8332 2.50067C5.55706 2.50067 5.33319 2.72454 5.33319 3.00068V5.33334H4.00049C3.72436 5.33334 3.50049 5.55721 3.50049 5.83335C3.50049 6.10949 3.72436 6.33336 4.00049 6.33336H5.8332C6.10934 6.33336 6.3332 6.10949 6.3332 5.83335V3.00066C6.3332 2.7245 6.10934 2.50067 5.8332 2.50067Z" fill="#A5A5A5"/>
</g>
</g>
<g id="Group_3">
<g id="Group_4">
<path id="Vector_2" d="M5.50004 0C2.46731 0 0 2.46731 0 5.5C0 8.53269 2.46731 11 5.50004 11C8.53269 11 11 8.53269 11 5.5C11 2.46731 8.53269 0 5.50004 0ZM5.50004 10C3.01871 10 1.00001 7.98132 1.00001 5.5C1.00001 3.01868 3.01871 0.99999 5.50004 0.99999C7.98132 0.99999 10 3.01868 10 5.5C10 7.98132 7.9813 10 5.50004 10Z" fill="#A5A5A5"/>
</g>
</g>
</g>
</svg>
