<svg width="47" height="47" viewBox="0 0 47 47" fill="none" xmlns="http://www.w3.org/2000/svg">
<circle cx="23.4462" cy="23.446" r="22.2448" fill="white" stroke="#E83000" stroke-width="2"/>
<path d="M16.2368 15.5C16.2368 14.0166 16.6946 12.5666 17.5524 11.3332C18.4102 10.0999 19.6294 9.13856 21.0559 8.57091C22.4823 8.00325 24.052 7.85472 25.5663 8.14411C27.0806 8.4335 28.4716 9.14781 29.5633 10.1967C30.6551 11.2456 31.3986 12.582 31.6998 14.0368C32.001 15.4917 31.8465 16.9997 31.2556 18.3701C30.6647 19.7406 29.6642 20.9119 28.3804 21.736C27.0966 22.5601 25.5873 23 24.0433 23C21.9729 23 19.9872 22.2098 18.5232 20.8033C17.0592 19.3968 16.2368 17.4891 16.2368 15.5ZM23.0024 30C23.0013 28.8656 23.2513 27.744 23.7358 26.7096C24.2204 25.6751 24.9283 24.7515 25.8128 24H25.2507H22.8359C20.3426 24.0005 17.9384 24.8911 16.09 26.4987C14.2416 28.1064 13.0809 30.3165 12.8331 32.7C12.7893 33.1184 12.8376 33.541 12.9748 33.9404C13.112 34.3397 13.3351 34.7069 13.6295 35.0181C13.924 35.3292 14.2832 35.5775 14.684 35.7466C15.0847 35.9158 15.518 36.0021 15.9557 36H25.8544C24.9624 35.2522 24.2466 34.3302 23.7548 33.2955C23.263 32.2609 23.0065 31.1374 23.0024 30ZM37.5746 30C37.5746 31.1867 37.2084 32.3467 36.5221 33.3334C35.8359 34.3201 34.8605 35.0892 33.7193 35.5433C32.5782 35.9974 31.3225 36.1162 30.111 35.8847C28.8996 35.6532 27.7868 35.0818 26.9133 34.2426C26.0399 33.4035 25.4451 32.3344 25.2042 31.1705C24.9632 30.0067 25.0869 28.8003 25.5596 27.7039C26.0322 26.6075 26.8327 25.6705 27.8597 25.0112C28.8868 24.3519 30.0942 24 31.3294 24C32.9857 24 34.5742 24.6321 35.7454 25.7574C36.9167 26.8826 37.5746 28.4087 37.5746 30ZM34.452 30C34.452 29.7348 34.3424 29.4804 34.1471 29.2929C33.9519 29.1054 33.6872 29 33.4111 29H32.3703V28C32.3703 27.7348 32.2606 27.4804 32.0654 27.2929C31.8702 27.1054 31.6055 27 31.3294 27C31.0533 27 30.7886 27.1054 30.5934 27.2929C30.3982 27.4804 30.2885 27.7348 30.2885 28V29H29.2477C28.9716 29 28.7068 29.1054 28.5116 29.2929C28.3164 29.4804 28.2068 29.7348 28.2068 30C28.2068 30.2652 28.3164 30.5196 28.5116 30.7071C28.7068 30.8946 28.9716 31 29.2477 31H30.2885V32C30.2885 32.2652 30.3982 32.5196 30.5934 32.7071C30.7886 32.8946 31.0533 33 31.3294 33C31.6055 33 31.8702 32.8946 32.0654 32.7071C32.2606 32.5196 32.3703 32.2652 32.3703 32V31H33.4111C33.6872 31 33.9519 30.8946 34.1471 30.7071C34.3424 30.5196 34.452 30.2652 34.452 30Z" fill="url(#paint0_linear_1459_947)"/>
<defs>
<linearGradient id="paint0_linear_1459_947" x1="13.7178" y1="35.11" x2="33.7717" y2="14.2365" gradientUnits="userSpaceOnUse">
<stop stop-color="#C21500"/>
<stop offset="0.21" stop-color="#CD3500"/>
<stop offset="0.66" stop-color="#E98500"/>
<stop offset="1" stop-color="#FFC500"/>
</linearGradient>
</defs>
</svg>
