<svg width="47" height="47" viewBox="0 0 47 47" fill="none" xmlns="http://www.w3.org/2000/svg">
<circle cx="23.4462" cy="23.446" r="22.2448" fill="white" stroke="#E83000" stroke-width="2"/>
<path d="M8.05935 15.9643C8.05935 14.5869 8.48449 13.2404 9.28101 12.0951C10.0775 10.9499 11.2097 10.0572 12.5342 9.53013C13.8588 9.00302 15.3163 8.8651 16.7225 9.13382C18.1286 9.40254 19.4203 10.0658 20.434 11.0398C21.4478 12.0138 22.1382 13.2547 22.4179 14.6056C22.6976 15.9566 22.5541 17.3568 22.0054 18.6294C21.4568 19.902 20.5276 20.9896 19.3356 21.7549C18.1435 22.5201 16.742 22.9286 15.3083 22.9286C13.3857 22.9286 11.542 22.1948 10.1825 20.8888C8.82307 19.5827 8.05935 17.8113 8.05935 15.9643ZM14.3418 29.4286C14.3407 28.3752 14.5729 27.3337 15.0228 26.3732C15.4727 25.4126 16.1301 24.555 16.9514 23.8571H16.4294H14.1871C11.8719 23.8576 9.63944 24.6846 7.92308 26.1774C6.20672 27.6702 5.1289 29.7224 4.89882 31.9357C4.85816 32.3243 4.90299 32.7167 5.0304 33.0875C5.1578 33.4583 5.36493 33.7993 5.63834 34.0882C5.91175 34.3771 6.24534 34.6076 6.61747 34.7647C6.98959 34.9218 7.39193 35.002 7.79839 35H16.99C16.1617 34.3056 15.4971 33.4494 15.0404 32.4887C14.5837 31.528 14.3456 30.4847 14.3418 29.4286ZM27.8731 29.4286C27.8731 30.5305 27.533 31.6077 26.8958 32.5239C26.2585 33.4401 25.3528 34.1542 24.2932 34.5759C23.2335 34.9976 22.0675 35.1079 20.9426 34.893C19.8177 34.678 18.7844 34.1474 17.9733 33.3682C17.1623 32.589 16.61 31.5963 16.3862 30.5155C16.1625 29.4348 16.2773 28.3145 16.7162 27.2965C17.1552 26.2784 17.8985 25.4083 18.8521 24.7961C19.8058 24.1839 20.927 23.8571 22.0739 23.8571C23.612 23.8571 25.087 24.4441 26.1746 25.489C27.2621 26.5338 27.8731 27.9509 27.8731 29.4286ZM24.9735 29.4286C24.9735 29.1823 24.8717 28.9461 24.6904 28.772C24.5092 28.5978 24.2633 28.5 24.007 28.5H23.0405V27.5714C23.0405 27.3252 22.9386 27.089 22.7574 26.9148C22.5761 26.7407 22.3303 26.6429 22.0739 26.6429C21.8176 26.6429 21.5718 26.7407 21.3905 26.9148C21.2093 27.089 21.1074 27.3252 21.1074 27.5714V28.5H20.1409C19.8846 28.5 19.6387 28.5978 19.4575 28.772C19.2762 28.9461 19.1744 29.1823 19.1744 29.4286C19.1744 29.6749 19.2762 29.911 19.4575 30.0852C19.6387 30.2593 19.8846 30.3571 20.1409 30.3571H21.1074V31.2857C21.1074 31.532 21.2093 31.7682 21.3905 31.9423C21.5718 32.1165 21.8176 32.2143 22.0739 32.2143C22.3303 32.2143 22.5761 32.1165 22.7574 31.9423C22.9386 31.7682 23.0405 31.532 23.0405 31.2857V30.3571H24.007C24.2633 30.3571 24.5092 30.2593 24.6904 30.0852C24.8717 29.911 24.9735 29.6749 24.9735 29.4286Z" fill="url(#paint0_linear_1459_988)"/>
<circle cx="22.0629" cy="29.8929" r="6.03572" fill="white"/>
<path d="M38.698 15.9643C38.698 14.5869 38.2728 13.2404 37.4763 12.0951C36.6798 10.9499 35.5477 10.0572 34.2231 9.53013C32.8985 9.00302 31.441 8.8651 30.0348 9.13382C28.6287 9.40254 27.3371 10.0658 26.3233 11.0398C25.3095 12.0138 24.6191 13.2547 24.3394 14.6056C24.0597 15.9566 24.2033 17.3568 24.7519 18.6294C25.3006 19.902 26.2297 20.9896 27.4218 21.7549C28.6138 22.5201 30.0153 22.9286 31.449 22.9286C33.3716 22.9286 35.2154 22.1948 36.5748 20.8888C37.9343 19.5827 38.698 17.8113 38.698 15.9643ZM32.4156 29.4286C32.4166 28.3752 32.1845 27.3337 31.7345 26.3732C31.2846 25.4126 30.6272 24.555 29.806 23.8571H30.3279H32.5702C34.8854 23.8576 37.1179 24.6846 38.8342 26.1774C40.5506 27.6702 41.6284 29.7224 41.8585 31.9357C41.8992 32.3243 41.8543 32.7167 41.7269 33.0875C41.5995 33.4583 41.3924 33.7993 41.119 34.0882C40.8456 34.3771 40.512 34.6076 40.1399 34.7647C39.7677 34.9218 39.3654 35.002 38.9589 35H29.7673C30.5956 34.3056 31.2603 33.4494 31.7169 32.4887C32.1736 31.528 32.4118 30.4847 32.4156 29.4286ZM18.8842 29.4286C18.8842 30.5305 19.2243 31.6077 19.8616 32.5239C20.4988 33.4401 21.4045 34.1542 22.4641 34.5759C23.5238 34.9976 24.6898 35.1079 25.8147 34.893C26.9397 34.678 27.973 34.1474 28.784 33.3682C29.595 32.589 30.1473 31.5963 30.3711 30.5155C30.5949 29.4348 30.48 28.3145 30.0411 27.2965C29.6022 26.2784 28.8589 25.4083 27.9052 24.7961C26.9515 24.1839 25.8303 23.8571 24.6834 23.8571C23.1453 23.8571 21.6703 24.4441 20.5828 25.489C19.4952 26.5338 18.8842 27.9509 18.8842 29.4286ZM21.7838 29.4286C21.7838 29.1823 21.8856 28.9461 22.0669 28.772C22.2481 28.5978 22.494 28.5 22.7503 28.5H23.7169V27.5714C23.7169 27.3252 23.8187 27.089 23.9999 26.9148C24.1812 26.7407 24.427 26.6429 24.6834 26.6429C24.9397 26.6429 25.1856 26.7407 25.3668 26.9148C25.5481 27.089 25.6499 27.3252 25.6499 27.5714V28.5H26.6164C26.8728 28.5 27.1186 28.5978 27.2999 28.772C27.4811 28.9461 27.5829 29.1823 27.5829 29.4286C27.5829 29.6749 27.4811 29.911 27.2999 30.0852C27.1186 30.2593 26.8728 30.3571 26.6164 30.3571H25.6499V31.2857C25.6499 31.532 25.5481 31.7682 25.3668 31.9423C25.1856 32.1165 24.9397 32.2143 24.6834 32.2143C24.427 32.2143 24.1812 32.1165 23.9999 31.9423C23.8187 31.7682 23.7169 31.532 23.7169 31.2857V30.3571H22.7503C22.494 30.3571 22.2481 30.2593 22.0669 30.0852C21.8856 29.911 21.7838 29.6749 21.7838 29.4286Z" fill="url(#paint1_linear_1459_988)"/>
<circle cx="6.03572" cy="6.03572" r="6.03572" transform="matrix(-1 0 0 1 30.7302 23.8572)" fill="white"/>
<path d="M16.2367 15.5C16.2367 14.0166 16.6945 12.5666 17.5523 11.3332C18.4101 10.0999 19.6293 9.13856 21.0558 8.57091C22.4823 8.00325 24.0519 7.85472 25.5662 8.14411C27.0805 8.4335 28.4715 9.14781 29.5633 10.1967C30.6551 11.2456 31.3986 12.582 31.6998 14.0368C32.001 15.4917 31.8464 16.9997 31.2555 18.3701C30.6647 19.7406 29.6641 20.9119 28.3803 21.736C27.0965 22.5601 25.5872 23 24.0432 23C21.9728 23 19.9872 22.2098 18.5232 20.8033C17.0592 19.3968 16.2367 17.4891 16.2367 15.5ZM23.0024 30C23.0013 28.8656 23.2513 27.744 23.7358 26.7096C24.2203 25.6751 24.9283 24.7515 25.8127 24H25.2506H22.8358C20.3425 24.0005 17.9383 24.8911 16.0899 26.4987C14.2416 28.1064 13.0808 30.3165 12.833 32.7C12.7893 33.1184 12.8375 33.541 12.9747 33.9404C13.1119 34.3397 13.335 34.7069 13.6295 35.0181C13.9239 35.3292 14.2831 35.5775 14.6839 35.7466C15.0846 35.9158 15.5179 36.0021 15.9557 36H25.8543C24.9623 35.2522 24.2465 34.3302 23.7548 33.2955C23.263 32.2609 23.0065 31.1374 23.0024 30ZM37.5746 30C37.5746 31.1867 37.2083 32.3467 36.5221 33.3334C35.8358 34.3201 34.8604 35.0892 33.7193 35.5433C32.5781 35.9974 31.3224 36.1162 30.111 35.8847C28.8995 35.6532 27.7867 35.0818 26.9133 34.2426C26.0399 33.4035 25.4451 32.3344 25.2041 31.1705C24.9631 30.0067 25.0868 28.8003 25.5595 27.7039C26.0322 26.6075 26.8326 25.6705 27.8597 25.0112C28.8867 24.3519 30.0941 24 31.3293 24C32.9857 24 34.5742 24.6321 35.7454 25.7574C36.9166 26.8826 37.5746 28.4087 37.5746 30ZM34.452 30C34.452 29.7348 34.3423 29.4804 34.1471 29.2929C33.9519 29.1054 33.6871 29 33.4111 29H32.3702V28C32.3702 27.7348 32.2605 27.4804 32.0653 27.2929C31.8701 27.1054 31.6054 27 31.3293 27C31.0533 27 30.7885 27.1054 30.5933 27.2929C30.3981 27.4804 30.2885 27.7348 30.2885 28V29H29.2476C28.9715 29 28.7068 29.1054 28.5116 29.2929C28.3164 29.4804 28.2067 29.7348 28.2067 30C28.2067 30.2652 28.3164 30.5196 28.5116 30.7071C28.7068 30.8946 28.9715 31 29.2476 31H30.2885V32C30.2885 32.2652 30.3981 32.5196 30.5933 32.7071C30.7885 32.8946 31.0533 33 31.3293 33C31.6054 33 31.8701 32.8946 32.0653 32.7071C32.2605 32.5196 32.3702 32.2652 32.3702 32V31H33.4111C33.6871 31 33.9519 30.8946 34.1471 30.7071C34.3423 30.5196 34.452 30.2652 34.452 30Z" fill="url(#paint2_linear_1459_988)"/>
<defs>
<linearGradient id="paint0_linear_1459_988" x1="5.72036" y1="34.1736" x2="24.3418" y2="14.791" gradientUnits="userSpaceOnUse">
<stop stop-color="#C21500"/>
<stop offset="0.21" stop-color="#CD3500"/>
<stop offset="0.66" stop-color="#E98500"/>
<stop offset="1" stop-color="#FFC500"/>
</linearGradient>
<linearGradient id="paint1_linear_1459_988" x1="41.037" y1="34.1736" x2="22.4155" y2="14.791" gradientUnits="userSpaceOnUse">
<stop stop-color="#C21500"/>
<stop offset="0.21" stop-color="#CD3500"/>
<stop offset="0.66" stop-color="#E98500"/>
<stop offset="1" stop-color="#FFC500"/>
</linearGradient>
<linearGradient id="paint2_linear_1459_988" x1="13.7178" y1="35.11" x2="33.7717" y2="14.2365" gradientUnits="userSpaceOnUse">
<stop stop-color="#C21500"/>
<stop offset="0.21" stop-color="#CD3500"/>
<stop offset="0.66" stop-color="#E98500"/>
<stop offset="1" stop-color="#FFC500"/>
</linearGradient>
</defs>
</svg>
