<svg width="63" height="72" viewBox="0 0 63 72" fill="none" xmlns="http://www.w3.org/2000/svg">
<g filter="url(#filter0_dii_2339_2064)">
<path d="M4 -1H59V65L32.1395 54.4681L4 65V-1Z" fill="url(#paint0_linear_2339_2064)"/>
</g>
<g clip-path="url(#clip0_2339_2064)">
<circle cx="31.0002" cy="29.9937" r="17.55" fill="white"/>
<path d="M31.3374 6.20001C26.9986 6.20001 22.7572 7.48662 19.1496 9.89715C15.542 12.3077 12.7302 15.7338 11.0698 19.7424C9.40941 23.7509 8.97497 28.1618 9.82144 32.4173C10.6679 36.6728 12.7572 40.5817 15.8253 43.6497C18.8933 46.7177 22.8022 48.807 27.0576 49.6535C31.3131 50.5 35.724 50.0655 39.7325 48.4051C43.7411 46.7447 47.1673 43.9329 49.5778 40.3253C51.9883 36.7177 53.2749 32.4763 53.2749 28.1375C53.2678 22.3215 50.9543 16.7457 46.8417 12.6332C42.7292 8.52064 37.1534 6.2071 31.3374 6.20001ZM27.1547 14.6167C27.2312 14.5298 27.3325 14.4685 27.445 14.4411C27.5574 14.4136 27.6756 14.4213 27.7835 14.4631L29.3045 15.0043L30.9206 13.3516C31.0331 13.2393 31.1857 13.1761 31.3447 13.1761C31.5038 13.1761 31.6563 13.2393 31.7689 13.3516L33.3849 15.0043L34.9059 14.4631C35.0138 14.4209 35.1321 14.4129 35.2446 14.4404C35.3572 14.4679 35.4585 14.5295 35.5348 14.6167C35.613 14.699 35.6656 14.8022 35.6864 14.9138C35.7071 15.0254 35.6951 15.1407 35.6518 15.2456L34.1235 18.6971C34.0778 18.8014 34.0033 18.8904 33.9087 18.9539C33.8142 19.0174 33.7035 19.0526 33.5897 19.0554H29.0998C28.986 19.0526 28.8753 19.0174 28.7807 18.9539C28.6862 18.8904 28.6117 18.8014 28.566 18.6971L27.045 15.2456C26.9986 15.1417 26.9843 15.0264 27.0039 14.9144C27.0234 14.8024 27.0759 14.6987 27.1547 14.6167ZM18.8769 39.3988C18.8372 39.3193 18.8165 39.2317 18.8165 39.1428C18.8165 39.054 18.8372 38.9664 18.8769 38.8869C19.0638 38.5322 19.3112 38.2129 19.6082 37.9436C18.7717 37.8325 17.9819 37.4933 17.3254 36.9632C16.6689 36.433 16.1709 35.7324 15.8861 34.9381C15.8648 34.8521 15.8623 34.7626 15.8787 34.6755C15.8951 34.5884 15.93 34.5059 15.9812 34.4336C16.3738 33.9646 16.8727 33.5961 17.4363 33.3586C16.7294 33.0223 16.1222 32.5075 15.6747 31.8651C15.2272 31.2227 14.9548 30.4748 14.8843 29.6951C14.8827 29.6076 14.9017 29.521 14.9398 29.4422C14.978 29.3634 15.0341 29.2947 15.1037 29.2417C15.7562 28.7567 16.5431 28.4859 17.3559 28.4666C16.8129 27.8877 16.4308 27.1768 16.2474 26.4046C16.0639 25.6324 16.0856 24.8257 16.3102 24.0644C16.3439 23.9824 16.3956 23.909 16.4614 23.8495C16.5272 23.79 16.6055 23.746 16.6905 23.7208C17.4619 23.5268 18.2734 23.565 19.0232 23.8305C18.7143 23.0718 18.6165 22.2437 18.7401 21.4339C18.8636 20.6241 19.204 19.8629 19.7252 19.2309C19.7878 19.168 19.8635 19.1197 19.9469 19.0894C20.0303 19.0591 20.1194 19.0474 20.2078 19.0554C20.7651 19.137 21.2972 19.3418 21.7654 19.655C21.641 16.9713 23.3156 15.4503 23.8202 15.6916C25.7214 16.2986 26.7964 18.3607 26.8549 20.4009C24.9242 21.2614 23.2808 22.6576 22.1197 24.4239C20.9585 26.1901 20.3282 28.2524 20.3036 30.366C20.279 32.4796 20.861 34.5559 21.9807 36.3488C23.1004 38.1416 24.7108 39.5757 26.6208 40.481C24.4417 42.3091 20.2151 41.9801 18.8769 39.3988ZM21.4802 30.4921C21.4794 28.5372 22.0585 26.6259 23.1442 25.0001C24.2299 23.3744 25.7733 22.1071 27.5793 21.3586C29.3853 20.6102 31.3727 20.4141 33.2902 20.7954C35.2076 21.1766 36.9689 22.1179 38.3512 23.5003C39.7336 24.8826 40.6749 26.6439 41.0561 28.5613C41.4373 30.4788 41.2413 32.4662 40.4929 34.2722C39.7444 36.0782 38.4771 37.6216 36.8513 38.7073C35.2256 39.7929 33.3143 40.372 31.3594 40.3713C28.7401 40.3685 26.2289 39.3268 24.3768 37.4747C22.5247 35.6226 21.483 33.1114 21.4802 30.4921ZM46.7083 34.4336C46.7594 34.5059 46.7944 34.5884 46.8108 34.6755C46.8272 34.7626 46.8246 34.8521 46.8034 34.9381C46.5185 35.7324 46.0206 36.433 45.3641 36.9631C44.7075 37.4933 43.9178 37.8325 43.0813 37.9436C43.3782 38.213 43.6257 38.5322 43.8125 38.8869C43.8522 38.9664 43.8729 39.054 43.8729 39.1428C43.8729 39.2317 43.8522 39.3193 43.8125 39.3988C42.4524 41.9947 38.2477 42.2872 36.0759 40.4883C37.9954 39.5854 39.6145 38.1491 40.7398 36.3509C41.8652 34.5528 42.4492 32.4687 42.4222 30.3476C42.3953 28.2265 41.7584 26.158 40.5877 24.389C39.4169 22.6201 37.7618 21.2254 35.82 20.3716C35.8283 20.0868 35.8601 19.803 35.915 19.5234C36.4635 16.4083 38.7669 15.7209 38.8693 15.6916C39.3812 15.4649 41.0484 16.9567 40.9241 19.655C41.3923 19.3419 41.9244 19.137 42.4817 19.0554C42.5701 19.0475 42.6591 19.0591 42.7425 19.0894C42.8259 19.1198 42.9016 19.1681 42.9643 19.2309C43.4854 19.8629 43.8258 20.6242 43.9494 21.4339C44.073 22.2437 43.9752 23.0718 43.6663 23.8305C44.4161 23.565 45.2276 23.5269 45.999 23.7208C46.084 23.7461 46.1623 23.7901 46.2281 23.8495C46.2939 23.909 46.3455 23.9825 46.3792 24.0645C46.606 24.8255 46.6288 25.6328 46.4453 26.4054C46.2617 27.178 45.8783 27.8889 45.3335 28.4666C46.1467 28.4841 46.9341 28.755 47.5858 29.2417C48.0904 29.5196 47.7905 31.94 45.2531 33.3587C45.8168 33.5961 46.3157 33.9646 46.7083 34.4336Z" fill="url(#paint1_linear_2339_2064)"/>
<path d="M35.3952 27.5662L33.611 27.4053C33.5266 27.3975 33.4459 27.3669 33.3776 27.3166C33.3093 27.2664 33.256 27.1984 33.2234 27.1201L32.5214 25.4821C32.3953 25.185 32.1845 24.9316 31.9153 24.7535C31.6462 24.5753 31.3305 24.4803 31.0077 24.4803C30.685 24.4803 30.3693 24.5753 30.1002 24.7535C29.831 24.9316 29.6202 25.185 29.4941 25.4821L28.7921 27.1201C28.7595 27.1984 28.7062 27.2663 28.6379 27.3166C28.5696 27.3668 28.4889 27.3975 28.4045 27.4053L26.6276 27.5661C26.3093 27.599 26.0074 27.7235 25.7585 27.9246C25.5096 28.1256 25.3244 28.3945 25.2253 28.6988C25.1262 29.003 25.1176 29.3294 25.2003 29.6385C25.2831 29.9475 25.4537 30.2259 25.6916 30.4399L27.0371 31.6173C27.0994 31.6747 27.1457 31.7474 27.1713 31.8282C27.197 31.909 27.2011 31.9951 27.1833 32.0779L26.7884 33.8183C26.736 34.0588 26.7378 34.308 26.7937 34.5477C26.8496 34.7874 26.9581 35.0117 27.1114 35.2042C27.2648 35.3968 27.4591 35.5528 27.6802 35.6609C27.9013 35.769 28.1437 35.8265 28.3899 35.8293C29.0187 35.8951 30.2399 34.9444 30.7664 34.6739C30.8396 34.6308 30.9229 34.6081 31.0077 34.6081C31.0926 34.6081 31.1759 34.6308 31.2491 34.6739L32.7847 35.5953C33.0615 35.755 33.3788 35.8311 33.698 35.8142C34.0172 35.7974 34.3247 35.6883 34.5831 35.5002C34.8416 35.3122 35.04 35.0532 35.1543 34.7547C35.2686 34.4562 35.2939 34.1309 35.2271 33.8183L34.8322 32.0779C34.8144 31.9951 34.8185 31.909 34.8442 31.8282C34.8698 31.7474 34.9161 31.6747 34.9784 31.6173L36.3239 30.4399C36.5658 30.2284 36.7403 29.9505 36.826 29.6408C36.9116 29.3311 36.9046 29.003 36.8058 28.6973C36.707 28.3915 36.5207 28.1214 36.27 27.9203C36.0193 27.7193 35.7152 27.5962 35.3952 27.5662ZM35.5488 29.5552L34.2033 30.7398C33.9808 30.9338 33.815 31.1845 33.7236 31.4652C33.6322 31.7459 33.6185 32.0461 33.6841 32.3339L34.079 34.0743C34.1022 34.163 34.0978 34.2567 34.0665 34.343C34.0351 34.4292 33.9783 34.5038 33.9035 34.5569C33.8289 34.6118 33.7397 34.6432 33.6472 34.6471C33.5548 34.651 33.4632 34.6272 33.3843 34.5789L31.8487 33.6721C31.5953 33.5179 31.3044 33.4363 31.0077 33.4363C30.7111 33.4363 30.4202 33.5179 30.1668 33.6721L28.6312 34.5789C28.5529 34.6271 28.462 34.6509 28.3701 34.6474C28.2782 34.6439 28.1894 34.6131 28.115 34.5591C28.0406 34.505 27.9839 34.4301 27.9521 34.3438C27.9203 34.2575 27.9149 34.1637 27.9365 34.0743L28.3314 32.3339C28.397 32.0461 28.3833 31.7459 28.2919 31.4652C28.2005 31.1845 28.0347 30.9338 27.8122 30.7398L26.4667 29.5552C26.3968 29.4948 26.3465 29.4151 26.3219 29.3262C26.2973 29.2372 26.2996 29.143 26.3286 29.0553C26.3575 28.9677 26.4118 28.8906 26.4845 28.8338C26.5573 28.777 26.6452 28.743 26.7372 28.7362L28.5069 28.5753C28.8028 28.5498 29.0862 28.4445 29.327 28.2706C29.5678 28.0968 29.7569 27.8609 29.8743 27.5881L30.5763 25.9428C30.6123 25.8582 30.6725 25.7861 30.7492 25.7354C30.8259 25.6847 30.9158 25.6576 31.0077 25.6576C31.0997 25.6576 31.1896 25.6847 31.2663 25.7354C31.343 25.7861 31.4031 25.8582 31.4392 25.9428L32.1412 27.5881C32.2585 27.8609 32.4477 28.0968 32.6885 28.2707C32.9293 28.4445 33.2127 28.5498 33.5086 28.5753L35.2782 28.7362C35.3703 28.743 35.4582 28.777 35.531 28.8338C35.6037 28.8906 35.658 28.9677 35.6869 29.0553C35.7159 29.143 35.7182 29.2372 35.6936 29.3262C35.669 29.4151 35.6186 29.4948 35.5488 29.5552Z" fill="#646464"/>
</g>
<defs>
<filter id="filter0_dii_2339_2064" x="0" y="-4" width="63" height="76" filterUnits="userSpaceOnUse" color-interpolation-filters="sRGB">
<feFlood flood-opacity="0" result="BackgroundImageFix"/>
<feColorMatrix in="SourceAlpha" type="matrix" values="0 0 0 0 0 0 0 0 0 0 0 0 0 0 0 0 0 0 127 0" result="hardAlpha"/>
<feOffset dy="3"/>
<feGaussianBlur stdDeviation="2"/>
<feComposite in2="hardAlpha" operator="out"/>
<feColorMatrix type="matrix" values="0 0 0 0 0 0 0 0 0 0 0 0 0 0 0 0 0 0 0.29 0"/>
<feBlend mode="normal" in2="BackgroundImageFix" result="effect1_dropShadow_2339_2064"/>
<feBlend mode="normal" in="SourceGraphic" in2="effect1_dropShadow_2339_2064" result="shape"/>
<feColorMatrix in="SourceAlpha" type="matrix" values="0 0 0 0 0 0 0 0 0 0 0 0 0 0 0 0 0 0 127 0" result="hardAlpha"/>
<feOffset dy="-3"/>
<feGaussianBlur stdDeviation="2"/>
<feComposite in2="hardAlpha" operator="arithmetic" k2="-1" k3="1"/>
<feColorMatrix type="matrix" values="0 0 0 0 0 0 0 0 0 0 0 0 0 0 0 0 0 0 0.25 0"/>
<feBlend mode="normal" in2="shape" result="effect2_innerShadow_2339_2064"/>
<feColorMatrix in="SourceAlpha" type="matrix" values="0 0 0 0 0 0 0 0 0 0 0 0 0 0 0 0 0 0 127 0" result="hardAlpha"/>
<feOffset dy="3"/>
<feGaussianBlur stdDeviation="2"/>
<feComposite in2="hardAlpha" operator="arithmetic" k2="-1" k3="1"/>
<feColorMatrix type="matrix" values="0 0 0 0 1 0 0 0 0 0.970833 0 0 0 0 0.970833 0 0 0 0.37 0"/>
<feBlend mode="normal" in2="effect2_innerShadow_2339_2064" result="effect3_innerShadow_2339_2064"/>
</filter>
<linearGradient id="paint0_linear_2339_2064" x1="4" y1="32" x2="59" y2="32" gradientUnits="userSpaceOnUse">
<stop stop-color="#576DE4"/>
<stop offset="1" stop-color="#5C00D0"/>
</linearGradient>
<linearGradient id="paint1_linear_2339_2064" x1="9.3999" y1="28.1375" x2="53.2749" y2="28.1375" gradientUnits="userSpaceOnUse">
<stop stop-color="#576DE4"/>
<stop offset="1" stop-color="#5C00D0"/>
</linearGradient>
<clipPath id="clip0_2339_2064">
<rect width="54" height="54" fill="white" transform="translate(4)"/>
</clipPath>
</defs>
</svg>
