<svg width="63" height="74" viewBox="0 0 63 74" fill="none" xmlns="http://www.w3.org/2000/svg">
<g filter="url(#filter0_dii_2339_2060)">
<path d="M4 1H59V67L32.1395 56.4681L4 67V1Z" fill="#D9D9D9"/>
<path d="M4 1H59V67L32.1395 56.4681L4 67V1Z" fill="url(#paint0_linear_2339_2060)"/>
</g>
<g clip-path="url(#clip0_2339_2060)">
<g clip-path="url(#clip1_2339_2060)">
<circle cx="32.0002" cy="31.1936" r="17.55" fill="white"/>
<g filter="url(#filter1_d_2339_2060)">
<path d="M32.3374 7.3999C27.9986 7.3999 23.7572 8.68651 20.1496 11.097C16.542 13.5076 13.7302 16.9337 12.0698 20.9423C10.4094 24.9508 9.97497 29.3617 10.8214 33.6172C11.6679 37.8727 13.7572 41.7815 16.8253 44.8496C19.8933 47.9176 23.8022 50.0069 28.0576 50.8534C32.3131 51.6998 36.724 51.2654 40.7325 49.605C44.7411 47.9446 48.1673 45.1328 50.5778 41.5252C52.9883 37.9176 54.2749 33.6762 54.2749 29.3374C54.2678 23.5214 51.9543 17.9456 47.8417 13.8331C43.7292 9.72053 38.1534 7.40699 32.3374 7.3999ZM28.1547 15.8166C28.2312 15.7297 28.3325 15.6684 28.445 15.641C28.5574 15.6135 28.6756 15.6212 28.7835 15.663L30.3045 16.2042L31.9206 14.5515C32.0331 14.4392 32.1857 14.376 32.3447 14.376C32.5038 14.376 32.6563 14.4392 32.7689 14.5515L34.3849 16.2042L35.9059 15.663C36.0138 15.6208 36.1321 15.6128 36.2446 15.6403C36.3572 15.6678 36.4585 15.7294 36.5348 15.8166C36.613 15.8989 36.6656 16.0021 36.6864 16.1137C36.7071 16.2253 36.6951 16.3405 36.6518 16.4455L35.1235 19.897C35.0778 20.0012 35.0033 20.0903 34.9087 20.1538C34.8142 20.2173 34.7035 20.2525 34.5897 20.2553H30.0998C29.986 20.2525 29.8753 20.2173 29.7807 20.1538C29.6862 20.0903 29.6117 20.0012 29.566 19.897L28.045 16.4455C27.9986 16.3416 27.9843 16.2263 28.0039 16.1143C28.0234 16.0023 28.0759 15.8986 28.1547 15.8166ZM19.8769 40.5987C19.8372 40.5192 19.8165 40.4316 19.8165 40.3427C19.8165 40.2539 19.8372 40.1663 19.8769 40.0868C20.0638 39.7321 20.3112 39.4128 20.6082 39.1435C19.7717 39.0324 18.9819 38.6932 18.3254 38.163C17.6689 37.6329 17.1709 36.9323 16.8861 36.138C16.8648 36.052 16.8623 35.9625 16.8787 35.8754C16.8951 35.7883 16.93 35.7058 16.9812 35.6335C17.3738 35.1645 17.8727 34.7959 18.4363 34.5585C17.7294 34.2222 17.1222 33.7074 16.6747 33.065C16.2272 32.4226 15.9548 31.6747 15.8843 30.895C15.8827 30.8075 15.9017 30.7208 15.9398 30.6421C15.978 30.5633 16.0341 30.4946 16.1037 30.4416C16.7562 29.9566 17.5431 29.6858 18.3559 29.6665C17.8129 29.0876 17.4308 28.3767 17.2474 27.6045C17.0639 26.8323 17.0856 26.0256 17.3102 25.2643C17.3439 25.1823 17.3956 25.1089 17.4614 25.0494C17.5272 24.9899 17.6055 24.9459 17.6905 24.9207C18.4619 24.7267 19.2734 24.7649 20.0232 25.0303C19.7143 24.2717 19.6165 23.4435 19.7401 22.6338C19.8636 21.824 20.204 21.0628 20.7252 20.4308C20.7878 20.3679 20.8635 20.3196 20.9469 20.2893C21.0303 20.259 21.1194 20.2473 21.2078 20.2552C21.7651 20.3369 22.2972 20.5417 22.7654 20.8549C22.641 18.1712 24.3156 16.6502 24.8202 16.8915C26.7214 17.4985 27.7964 19.5606 27.8549 21.6008C25.9242 22.4613 24.2808 23.8575 23.1197 25.6238C21.9585 27.39 21.3282 29.4522 21.3036 31.5659C21.279 33.6795 21.861 35.7558 22.9807 37.5486C24.1004 39.3415 25.7108 40.7756 27.6208 41.6809C25.4417 43.509 21.2151 43.18 19.8769 40.5987ZM22.4802 31.692C22.4794 29.7371 23.0585 27.8258 24.1442 26.2C25.2299 24.5743 26.7733 23.307 28.5793 22.5585C30.3853 21.8101 32.3727 21.614 34.2902 21.9952C36.2076 22.3765 37.9689 23.3178 39.3512 24.7001C40.7336 26.0825 41.6749 27.8438 42.0561 29.7612C42.4373 31.6786 42.2413 33.6661 41.4929 35.4721C40.7444 37.2781 39.4771 38.8215 37.8513 39.9072C36.2256 40.9928 34.3143 41.5719 32.3594 41.5712C29.7401 41.5684 27.2289 40.5266 25.3768 38.6745C23.5247 36.8225 22.483 34.3113 22.4802 31.692ZM47.7083 35.6335C47.7594 35.7058 47.7944 35.7883 47.8108 35.8754C47.8272 35.9625 47.8246 36.052 47.8034 36.138C47.5185 36.9323 47.0206 37.6329 46.3641 38.163C45.7075 38.6932 44.9178 39.0324 44.0813 39.1435C44.3782 39.4128 44.6257 39.7321 44.8125 40.0868C44.8522 40.1663 44.8729 40.2539 44.8729 40.3427C44.8729 40.4315 44.8522 40.5192 44.8125 40.5987C43.4524 43.1946 39.2477 43.4871 37.0759 41.6882C38.9954 40.7853 40.6145 39.349 41.7398 37.5508C42.8652 35.7527 43.4492 33.6686 43.4222 31.5475C43.3953 29.4264 42.7584 27.3579 41.5877 25.5889C40.4169 23.82 38.7618 22.4253 36.82 21.5715C36.8283 21.2866 36.8601 21.0029 36.915 20.7233C37.4635 17.6082 39.7669 16.9208 39.8693 16.8915C40.3812 16.6648 42.0484 18.1566 41.9241 20.8549C42.3923 20.5418 42.9244 20.3369 43.4817 20.2553C43.5701 20.2474 43.6591 20.259 43.7425 20.2893C43.8259 20.3197 43.9016 20.368 43.9643 20.4308C44.4854 21.0628 44.8258 21.8241 44.9494 22.6338C45.073 23.4436 44.9752 24.2717 44.6663 25.0304C45.4161 24.7649 46.2276 24.7268 46.999 24.9207C47.084 24.946 47.1623 24.99 47.2281 25.0494C47.2939 25.1089 47.3455 25.1823 47.3792 25.2644C47.606 26.0254 47.6288 26.8327 47.4453 27.6053C47.2617 28.3779 46.8784 29.0887 46.3335 29.6665C47.1467 29.6839 47.9341 29.9549 48.5858 30.4416C49.0904 30.7195 48.7905 33.1399 46.2531 34.5586C46.8168 34.796 47.3157 35.1645 47.7083 35.6335Z" fill="url(#paint1_linear_2339_2060)"/>
<path d="M36.3952 28.7661L34.611 28.6052C34.5266 28.5974 34.4459 28.5668 34.3776 28.5165C34.3093 28.4663 34.256 28.3983 34.2234 28.32L33.5214 26.682C33.3953 26.3849 33.1845 26.1315 32.9153 25.9534C32.6462 25.7752 32.3305 25.6802 32.0077 25.6802C31.685 25.6802 31.3693 25.7752 31.1002 25.9534C30.831 26.1315 30.6202 26.3849 30.4941 26.682L29.7921 28.32C29.7595 28.3983 29.7062 28.4662 29.6379 28.5165C29.5696 28.5667 29.4889 28.5974 29.4045 28.6051L27.6276 28.766C27.3093 28.7989 27.0074 28.9234 26.7585 29.1245C26.5096 29.3255 26.3244 29.5944 26.2253 29.8986C26.1262 30.2029 26.1176 30.5293 26.2003 30.8384C26.2831 31.1474 26.4537 31.4258 26.6916 31.6398L28.0371 32.8171C28.0994 32.8746 28.1457 32.9473 28.1713 33.0281C28.197 33.1089 28.2011 33.195 28.1833 33.2778L27.7884 35.0182C27.736 35.2587 27.7378 35.5079 27.7937 35.7476C27.8496 35.9873 27.9581 36.2116 28.1114 36.4041C28.2648 36.5967 28.4591 36.7527 28.6802 36.8608C28.9013 36.9689 29.1437 37.0264 29.3899 37.0291C30.0187 37.095 31.2399 36.1443 31.7664 35.8738C31.8396 35.8307 31.9229 35.808 32.0077 35.808C32.0926 35.808 32.1759 35.8307 32.2491 35.8738L33.7847 36.7951C34.0615 36.9549 34.3788 37.031 34.698 37.0141C35.0172 36.9972 35.3247 36.8882 35.5831 36.7001C35.8416 36.5121 36.04 36.2531 36.1543 35.9546C36.2686 35.6561 36.2939 35.3308 36.2271 35.0182L35.8322 33.2778C35.8144 33.195 35.8185 33.1089 35.8442 33.0281C35.8698 32.9473 35.9161 32.8746 35.9784 32.8171L37.3239 31.6398C37.5658 31.4283 37.7403 31.1504 37.826 30.8407C37.9116 30.531 37.9046 30.2029 37.8058 29.8972C37.707 29.5914 37.5207 29.3213 37.27 29.1202C37.0193 28.9192 36.7152 28.7961 36.3952 28.7661ZM36.5488 30.7551L35.2033 31.9397C34.9808 32.1337 34.815 32.3844 34.7236 32.6651C34.6322 32.9457 34.6185 33.246 34.6841 33.5338L35.079 35.2742C35.1022 35.3629 35.0978 35.4566 35.0665 35.5428C35.0351 35.6291 34.9783 35.7037 34.9035 35.7568C34.8289 35.8117 34.7397 35.8431 34.6472 35.847C34.5548 35.8509 34.4632 35.8271 34.3843 35.7787L32.8487 34.872C32.5953 34.7177 32.3044 34.6362 32.0077 34.6362C31.7111 34.6362 31.4202 34.7177 31.1668 34.872L29.6312 35.7787C29.5529 35.8269 29.462 35.8508 29.3701 35.8473C29.2782 35.8437 29.1894 35.813 29.115 35.759C29.0406 35.7049 28.9839 35.63 28.9521 35.5437C28.9203 35.4574 28.9149 35.3636 28.9365 35.2742L29.3314 33.5338C29.397 33.246 29.3833 32.9457 29.2919 32.665C29.2005 32.3843 29.0347 32.1337 28.8122 31.9397L27.4667 30.7551C27.3968 30.6947 27.3465 30.615 27.3219 30.5261C27.2973 30.4371 27.2996 30.3429 27.3286 30.2552C27.3575 30.1676 27.4118 30.0905 27.4845 30.0337C27.5573 29.9769 27.6452 29.9429 27.7372 29.9361L29.5069 29.7752C29.8028 29.7497 30.0862 29.6444 30.327 29.4705C30.5678 29.2967 30.7569 29.0608 30.8743 28.788L31.5763 27.1427C31.6123 27.0581 31.6725 26.986 31.7492 26.9353C31.8259 26.8846 31.9158 26.8575 32.0077 26.8575C32.0997 26.8575 32.1896 26.8846 32.2663 26.9353C32.343 26.986 32.4031 27.0581 32.4392 27.1427L33.1412 28.788C33.2585 29.0608 33.4477 29.2967 33.6885 29.4705C33.9293 29.6444 34.2127 29.7497 34.5086 29.7752L36.2782 29.9361C36.3703 29.9429 36.4582 29.9769 36.531 30.0337C36.6037 30.0905 36.658 30.1676 36.6869 30.2552C36.7159 30.3429 36.7182 30.4371 36.6936 30.5261C36.669 30.615 36.6186 30.6947 36.5488 30.7551Z" fill="#646464"/>
</g>
</g>
</g>
<defs>
<filter id="filter0_dii_2339_2060" x="0" y="-2" width="63" height="76" filterUnits="userSpaceOnUse" color-interpolation-filters="sRGB">
<feFlood flood-opacity="0" result="BackgroundImageFix"/>
<feColorMatrix in="SourceAlpha" type="matrix" values="0 0 0 0 0 0 0 0 0 0 0 0 0 0 0 0 0 0 127 0" result="hardAlpha"/>
<feOffset dy="3"/>
<feGaussianBlur stdDeviation="2"/>
<feComposite in2="hardAlpha" operator="out"/>
<feColorMatrix type="matrix" values="0 0 0 0 0 0 0 0 0 0 0 0 0 0 0 0 0 0 0.29 0"/>
<feBlend mode="normal" in2="BackgroundImageFix" result="effect1_dropShadow_2339_2060"/>
<feBlend mode="normal" in="SourceGraphic" in2="effect1_dropShadow_2339_2060" result="shape"/>
<feColorMatrix in="SourceAlpha" type="matrix" values="0 0 0 0 0 0 0 0 0 0 0 0 0 0 0 0 0 0 127 0" result="hardAlpha"/>
<feOffset dy="-3"/>
<feGaussianBlur stdDeviation="2"/>
<feComposite in2="hardAlpha" operator="arithmetic" k2="-1" k3="1"/>
<feColorMatrix type="matrix" values="0 0 0 0 0 0 0 0 0 0 0 0 0 0 0 0 0 0 0.25 0"/>
<feBlend mode="normal" in2="shape" result="effect2_innerShadow_2339_2060"/>
<feColorMatrix in="SourceAlpha" type="matrix" values="0 0 0 0 0 0 0 0 0 0 0 0 0 0 0 0 0 0 127 0" result="hardAlpha"/>
<feOffset dy="3"/>
<feGaussianBlur stdDeviation="2"/>
<feComposite in2="hardAlpha" operator="arithmetic" k2="-1" k3="1"/>
<feColorMatrix type="matrix" values="0 0 0 0 1 0 0 0 0 0.970833 0 0 0 0 0.970833 0 0 0 0.37 0"/>
<feBlend mode="normal" in2="effect2_innerShadow_2339_2060" result="effect3_innerShadow_2339_2060"/>
</filter>
<filter id="filter1_d_2339_2060" x="6.3999" y="7.3999" width="51.875" height="51.875" filterUnits="userSpaceOnUse" color-interpolation-filters="sRGB">
<feFlood flood-opacity="0" result="BackgroundImageFix"/>
<feColorMatrix in="SourceAlpha" type="matrix" values="0 0 0 0 0 0 0 0 0 0 0 0 0 0 0 0 0 0 127 0" result="hardAlpha"/>
<feOffset dy="4"/>
<feGaussianBlur stdDeviation="2"/>
<feComposite in2="hardAlpha" operator="out"/>
<feColorMatrix type="matrix" values="0 0 0 0 0 0 0 0 0 0 0 0 0 0 0 0 0 0 0.25 0"/>
<feBlend mode="normal" in2="BackgroundImageFix" result="effect1_dropShadow_2339_2060"/>
<feBlend mode="normal" in="SourceGraphic" in2="effect1_dropShadow_2339_2060" result="shape"/>
</filter>
<linearGradient id="paint0_linear_2339_2060" x1="4" y1="34" x2="59" y2="34" gradientUnits="userSpaceOnUse">
<stop stop-color="#78571B"/>
<stop offset="0.63" stop-color="#F3B54C"/>
<stop offset="0.985" stop-color="#DCA548"/>
</linearGradient>
<linearGradient id="paint1_linear_2339_2060" x1="10.3999" y1="29.3374" x2="54.2749" y2="29.3374" gradientUnits="userSpaceOnUse">
<stop stop-color="#78571B"/>
<stop offset="0.63" stop-color="#F3B54C"/>
<stop offset="0.985" stop-color="#DCA548"/>
</linearGradient>
<clipPath id="clip0_2339_2060">
<rect width="54" height="54" fill="white" transform="translate(5 2)"/>
</clipPath>
<clipPath id="clip1_2339_2060">
<rect width="46.8" height="46.8" fill="white" transform="translate(8.6001 5.59998)"/>
</clipPath>
</defs>
</svg>
