<svg width="63" height="72" viewBox="0 0 63 72" fill="none" xmlns="http://www.w3.org/2000/svg">
<g opacity="0.8" filter="url(#filter0_dii_2339_2062)">
<path d="M4 -1H59V65L32.1395 54.4681L4 65V-1Z" fill="url(#paint0_linear_2339_2062)"/>
</g>
<g opacity="0.8" clip-path="url(#clip0_2339_2062)">
<circle cx="31.0002" cy="27.5938" r="17.55" fill="white"/>
<path d="M31.3374 3.79999C26.9986 3.79999 22.7572 5.0866 19.1496 7.49712C15.542 9.90765 12.7302 13.3338 11.0698 17.3424C9.40941 21.3509 8.97497 25.7618 9.82144 30.0173C10.6679 34.2727 12.7572 38.1816 15.8253 41.2496C18.8933 44.3177 22.8022 46.407 27.0576 47.2535C31.3131 48.0999 35.724 47.6655 39.7325 46.0051C43.7411 44.3447 47.1673 41.5329 49.5778 37.9253C51.9883 34.3177 53.2749 30.0763 53.2749 25.7375C53.2678 19.9215 50.9543 14.3457 46.8417 10.2332C42.7292 6.12061 37.1534 3.80707 31.3374 3.79999ZM27.1547 12.2167C27.2312 12.1298 27.3325 12.0685 27.445 12.041C27.5574 12.0136 27.6756 12.0213 27.7835 12.0631L29.3045 12.6042L30.9206 10.9516C31.0331 10.8392 31.1857 10.7761 31.3447 10.7761C31.5038 10.7761 31.6563 10.8392 31.7689 10.9516L33.3849 12.6042L34.9059 12.0631C35.0138 12.0208 35.1321 12.0129 35.2446 12.0404C35.3572 12.0679 35.4585 12.1294 35.5348 12.2167C35.613 12.299 35.6656 12.4022 35.6864 12.5138C35.7071 12.6254 35.6951 12.7406 35.6518 12.8456L34.1235 16.2971C34.0778 16.4013 34.0033 16.4904 33.9087 16.5539C33.8142 16.6173 33.7035 16.6525 33.5897 16.6554H29.0998C28.986 16.6525 28.8753 16.6173 28.7807 16.5539C28.6862 16.4904 28.6117 16.4013 28.566 16.2971L27.045 12.8456C26.9986 12.7417 26.9843 12.6264 27.0039 12.5144C27.0234 12.4024 27.0759 12.2987 27.1547 12.2167ZM18.8769 36.9987C18.8372 36.9193 18.8165 36.8316 18.8165 36.7428C18.8165 36.654 18.8372 36.5663 18.8769 36.4869C19.0638 36.1322 19.3112 35.8129 19.6082 35.5436C18.7717 35.4324 17.9819 35.0933 17.3254 34.5631C16.6689 34.033 16.1709 33.3324 15.8861 32.5381C15.8648 32.4521 15.8623 32.3625 15.8787 32.2755C15.8951 32.1884 15.93 32.1059 15.9812 32.0336C16.3738 31.5645 16.8727 31.196 17.4363 30.9586C16.7294 30.6222 16.1222 30.1075 15.6747 29.4651C15.2272 28.8227 14.9548 28.0748 14.8843 27.2951C14.8827 27.2076 14.9017 27.1209 14.9398 27.0422C14.978 26.9634 15.0341 26.8947 15.1037 26.8417C15.7562 26.3567 16.5431 26.0859 17.3559 26.0666C16.8129 25.4876 16.4308 24.7768 16.2474 24.0046C16.0639 23.2324 16.0856 22.4257 16.3102 21.6644C16.3439 21.5824 16.3956 21.5089 16.4614 21.4495C16.5272 21.39 16.6055 21.346 16.6905 21.3207C17.4619 21.1268 18.2734 21.165 19.0232 21.4304C18.7143 20.6717 18.6165 19.8436 18.7401 19.0339C18.8636 18.2241 19.204 17.4629 19.7252 16.8309C19.7878 16.768 19.8635 16.7197 19.9469 16.6894C20.0303 16.659 20.1194 16.6474 20.2078 16.6553C20.7651 16.737 21.2972 16.9418 21.7654 17.255C21.641 14.5713 23.3156 13.0503 23.8202 13.2916C25.7214 13.8986 26.7964 15.9607 26.8549 18.0009C24.9242 18.8614 23.2808 20.2576 22.1197 22.0239C20.9585 23.7901 20.3282 25.8523 20.3036 27.9659C20.279 30.0796 20.861 32.1559 21.9807 33.9487C23.1004 35.7416 24.7108 37.1757 26.6208 38.081C24.4417 39.9091 20.2151 39.5801 18.8769 36.9987ZM21.4802 28.0921C21.4794 26.1372 22.0585 24.2259 23.1442 22.6001C24.2299 20.9743 25.7733 19.7071 27.5793 18.9586C29.3853 18.2101 31.3727 18.0141 33.2902 18.3953C35.2076 18.7765 36.9689 19.7179 38.3512 21.1002C39.7336 22.4826 40.6749 24.2439 41.0561 26.1613C41.4373 28.0787 41.2413 30.0661 40.4929 31.8721C39.7444 33.6782 38.4771 35.2216 36.8513 36.3073C35.2256 37.3929 33.3143 37.972 31.3594 37.9713C28.7401 37.9685 26.2289 36.9267 24.3768 35.0746C22.5247 33.2225 21.483 30.7114 21.4802 28.0921ZM46.7083 32.0336C46.7594 32.1059 46.7944 32.1884 46.8108 32.2755C46.8272 32.3625 46.8246 32.4521 46.8034 32.5381C46.5185 33.3324 46.0206 34.033 45.3641 34.5631C44.7075 35.0932 43.9178 35.4324 43.0813 35.5436C43.3782 35.8129 43.6257 36.1322 43.8125 36.4869C43.8522 36.5663 43.8729 36.654 43.8729 36.7428C43.8729 36.8316 43.8522 36.9193 43.8125 36.9987C42.4524 39.5947 38.2477 39.8872 36.0759 38.0883C37.9954 37.1854 39.6145 35.7491 40.7398 33.9509C41.8652 32.1527 42.4492 30.0687 42.4222 27.9476C42.3953 25.8265 41.7584 23.758 40.5877 21.989C39.4169 20.2201 37.7618 18.8254 35.82 17.9716C35.8283 17.6867 35.8601 17.403 35.915 17.1234C36.4635 14.0082 38.7669 13.3209 38.8693 13.2916C39.3812 13.0649 41.0484 14.5567 40.9241 17.255C41.3923 16.9418 41.9244 16.737 42.4817 16.6554C42.5701 16.6475 42.6591 16.6591 42.7425 16.6894C42.8259 16.7198 42.9016 16.7681 42.9643 16.8309C43.4854 17.4629 43.8258 18.2241 43.9494 19.0339C44.073 19.8437 43.9752 20.6718 43.6663 21.4305C44.4161 21.165 45.2276 21.1268 45.999 21.3208C46.084 21.3461 46.1623 21.39 46.2281 21.4495C46.2939 21.509 46.3455 21.5824 46.3792 21.6645C46.606 22.4255 46.6288 23.2328 46.4453 24.0054C46.2617 24.778 45.8783 25.4888 45.3335 26.0666C46.1467 26.084 46.9341 26.355 47.5858 26.8417C48.0904 27.1196 47.7905 29.54 45.2531 30.9586C45.8168 31.1961 46.3157 31.5646 46.7083 32.0336Z" fill="url(#paint1_linear_2339_2062)"/>
<path d="M35.3952 25.1662L33.611 25.0053C33.5266 24.9976 33.4459 24.9669 33.3776 24.9167C33.3093 24.8664 33.256 24.7985 33.2234 24.7202L32.5214 23.0822C32.3953 22.7851 32.1845 22.5317 31.9153 22.3535C31.6462 22.1754 31.3305 22.0804 31.0077 22.0804C30.685 22.0804 30.3693 22.1754 30.1002 22.3535C29.831 22.5317 29.6202 22.7851 29.4941 23.0822L28.7921 24.7201C28.7595 24.7984 28.7062 24.8664 28.6379 24.9166C28.5696 24.9669 28.4889 24.9975 28.4045 25.0053L26.6276 25.1662C26.3093 25.199 26.0074 25.3236 25.7585 25.5246C25.5096 25.7256 25.3244 25.9946 25.2253 26.2988C25.1262 26.603 25.1176 26.9294 25.2003 27.2385C25.2831 27.5476 25.4537 27.826 25.6916 28.04L27.0371 29.2173C27.0994 29.2747 27.1457 29.3474 27.1713 29.4282C27.197 29.509 27.2011 29.5951 27.1833 29.678L26.7884 31.4184C26.736 31.6589 26.7378 31.908 26.7937 32.1477C26.8496 32.3874 26.9581 32.6117 27.1114 32.8043C27.2648 32.9968 27.4591 33.1528 27.6802 33.2609C27.9013 33.369 28.1437 33.4265 28.3899 33.4293C29.0187 33.4951 30.2399 32.5445 30.7664 32.2739C30.8396 32.2308 30.9229 32.2081 31.0077 32.2081C31.0926 32.2081 31.1759 32.2308 31.2491 32.2739L32.7847 33.1953C33.0615 33.3551 33.3788 33.4311 33.698 33.4143C34.0172 33.3974 34.3247 33.2883 34.5831 33.1003C34.8416 32.9122 35.04 32.6532 35.1543 32.3547C35.2686 32.0562 35.2939 31.7309 35.2271 31.4184L34.8322 29.678C34.8144 29.5951 34.8185 29.509 34.8442 29.4282C34.8698 29.3474 34.9161 29.2747 34.9784 29.2173L36.3239 28.04C36.5658 27.8284 36.7403 27.5506 36.826 27.2408C36.9116 26.9311 36.9046 26.6031 36.8058 26.2973C36.707 25.9915 36.5207 25.7214 36.27 25.5204C36.0193 25.3193 35.7152 25.1962 35.3952 25.1662ZM35.5488 27.1552L34.2033 28.3398C33.9808 28.5338 33.815 28.7845 33.7236 29.0652C33.6322 29.3459 33.6185 29.6461 33.6841 29.934L34.079 31.6743C34.1022 31.7631 34.0978 31.8568 34.0665 31.943C34.0351 32.0292 33.9783 32.1038 33.9035 32.157C33.8289 32.2118 33.7397 32.2432 33.6472 32.2471C33.5548 32.251 33.4632 32.2273 33.3843 32.1789L31.8487 31.2721C31.5953 31.1179 31.3044 31.0363 31.0077 31.0363C30.7111 31.0363 30.4202 31.1179 30.1668 31.2721L28.6312 32.1789C28.5529 32.2271 28.462 32.2509 28.3701 32.2474C28.2782 32.2439 28.1894 32.2132 28.115 32.1591C28.0406 32.1051 27.9839 32.0301 27.9521 31.9438C27.9203 31.8575 27.9149 31.7637 27.9365 31.6743L28.3314 29.934C28.397 29.6461 28.3833 29.3459 28.2919 29.0652C28.2005 28.7845 28.0347 28.5338 27.8122 28.3398L26.4667 27.1552C26.3968 27.0949 26.3465 27.0152 26.3219 26.9262C26.2973 26.8373 26.2996 26.743 26.3286 26.6554C26.3575 26.5678 26.4118 26.4907 26.4845 26.4339C26.5573 26.377 26.6452 26.3431 26.7372 26.3362L28.5069 26.1753C28.8028 26.1498 29.0862 26.0445 29.327 25.8707C29.5678 25.6968 29.7569 25.461 29.8743 25.1881L30.5763 23.5428C30.6123 23.4582 30.6725 23.3861 30.7492 23.3354C30.8259 23.2847 30.9158 23.2577 31.0077 23.2577C31.0997 23.2577 31.1896 23.2847 31.2663 23.3354C31.343 23.3861 31.4031 23.4582 31.4392 23.5428L32.1412 25.1881C32.2585 25.461 32.4477 25.6968 32.6885 25.8707C32.9293 26.0445 33.2127 26.1498 33.5086 26.1753L35.2782 26.3362C35.3703 26.3431 35.4582 26.377 35.531 26.4339C35.6037 26.4907 35.658 26.5678 35.6869 26.6554C35.7159 26.743 35.7182 26.8373 35.6936 26.9262C35.669 27.0152 35.6186 27.0949 35.5488 27.1552Z" fill="#646464"/>
</g>
<defs>
<filter id="filter0_dii_2339_2062" x="0" y="-4" width="63" height="76" filterUnits="userSpaceOnUse" color-interpolation-filters="sRGB">
<feFlood flood-opacity="0" result="BackgroundImageFix"/>
<feColorMatrix in="SourceAlpha" type="matrix" values="0 0 0 0 0 0 0 0 0 0 0 0 0 0 0 0 0 0 127 0" result="hardAlpha"/>
<feOffset dy="3"/>
<feGaussianBlur stdDeviation="2"/>
<feComposite in2="hardAlpha" operator="out"/>
<feColorMatrix type="matrix" values="0 0 0 0 0 0 0 0 0 0 0 0 0 0 0 0 0 0 0.29 0"/>
<feBlend mode="normal" in2="BackgroundImageFix" result="effect1_dropShadow_2339_2062"/>
<feBlend mode="normal" in="SourceGraphic" in2="effect1_dropShadow_2339_2062" result="shape"/>
<feColorMatrix in="SourceAlpha" type="matrix" values="0 0 0 0 0 0 0 0 0 0 0 0 0 0 0 0 0 0 127 0" result="hardAlpha"/>
<feOffset dy="-3"/>
<feGaussianBlur stdDeviation="2"/>
<feComposite in2="hardAlpha" operator="arithmetic" k2="-1" k3="1"/>
<feColorMatrix type="matrix" values="0 0 0 0 0 0 0 0 0 0 0 0 0 0 0 0 0 0 0.25 0"/>
<feBlend mode="normal" in2="shape" result="effect2_innerShadow_2339_2062"/>
<feColorMatrix in="SourceAlpha" type="matrix" values="0 0 0 0 0 0 0 0 0 0 0 0 0 0 0 0 0 0 127 0" result="hardAlpha"/>
<feOffset dy="3"/>
<feGaussianBlur stdDeviation="2"/>
<feComposite in2="hardAlpha" operator="arithmetic" k2="-1" k3="1"/>
<feColorMatrix type="matrix" values="0 0 0 0 1 0 0 0 0 0.970833 0 0 0 0 0.970833 0 0 0 0.37 0"/>
<feBlend mode="normal" in2="effect2_innerShadow_2339_2062" result="effect3_innerShadow_2339_2062"/>
</filter>
<linearGradient id="paint0_linear_2339_2062" x1="4" y1="32" x2="59" y2="32" gradientUnits="userSpaceOnUse">
<stop stop-color="#7F96A8"/>
<stop offset="0.475" stop-color="#7B8B9B"/>
<stop offset="0.985" stop-color="#4B5561"/>
</linearGradient>
<linearGradient id="paint1_linear_2339_2062" x1="9.3999" y1="25.7375" x2="53.2749" y2="25.7375" gradientUnits="userSpaceOnUse">
<stop stop-color="#7F96A8"/>
<stop offset="0.475" stop-color="#7B8B9B"/>
<stop offset="0.985" stop-color="#4B5561"/>
</linearGradient>
<clipPath id="clip0_2339_2062">
<rect width="54" height="54" fill="white" transform="translate(4)"/>
</clipPath>
</defs>
</svg>
