<svg width="63" height="72" viewBox="0 0 63 72" fill="none" xmlns="http://www.w3.org/2000/svg">
<g filter="url(#filter0_dii_2339_2065)">
<path d="M4 -1H59V65L32.1395 54.4681L4 65V-1Z" fill="url(#paint0_linear_2339_2065)"/>
</g>
<g clip-path="url(#clip0_2339_2065)">
<circle cx="31.0002" cy="28.1937" r="17.55" fill="white"/>
<path d="M31.3374 4.39999C26.9986 4.39999 22.7572 5.68661 19.1496 8.09713C15.542 10.5077 12.7302 13.9338 11.0698 17.9424C9.40941 21.9509 8.97497 26.3618 9.82144 30.6173C10.6679 34.8727 12.7572 38.7816 15.8253 41.8496C18.8933 44.9177 22.8022 47.007 27.0576 47.8535C31.3131 48.6999 35.724 48.2655 39.7325 46.6051C43.7411 44.9447 47.1673 42.1329 49.5778 38.5253C51.9883 34.9177 53.2749 30.6763 53.2749 26.3375C53.2678 20.5215 50.9543 14.9457 46.8417 10.8332C42.7292 6.72062 37.1534 4.40708 31.3374 4.39999ZM27.1547 12.8167C27.2312 12.7298 27.3325 12.6685 27.445 12.641C27.5574 12.6136 27.6756 12.6213 27.7835 12.6631L29.3045 13.2042L30.9206 11.5516C31.0331 11.4392 31.1857 11.3761 31.3447 11.3761C31.5038 11.3761 31.6563 11.4392 31.7689 11.5516L33.3849 13.2042L34.9059 12.6631C35.0138 12.6209 35.1321 12.6129 35.2446 12.6404C35.3572 12.6679 35.4585 12.7295 35.5348 12.8167C35.613 12.899 35.6656 13.0022 35.6864 13.1138C35.7071 13.2254 35.6951 13.3406 35.6518 13.4456L34.1235 16.8971C34.0778 17.0013 34.0033 17.0904 33.9087 17.1539C33.8142 17.2174 33.7035 17.2526 33.5897 17.2554H29.0998C28.986 17.2526 28.8753 17.2174 28.7807 17.1539C28.6862 17.0904 28.6117 17.0013 28.566 16.8971L27.045 13.4456C26.9986 13.3417 26.9843 13.2264 27.0039 13.1144C27.0234 13.0024 27.0759 12.8987 27.1547 12.8167ZM18.8769 37.5987C18.8372 37.5193 18.8165 37.4316 18.8165 37.3428C18.8165 37.254 18.8372 37.1663 18.8769 37.0869C19.0638 36.7322 19.3112 36.4129 19.6082 36.1436C18.7717 36.0325 17.9819 35.6933 17.3254 35.1631C16.6689 34.633 16.1709 33.9324 15.8861 33.1381C15.8648 33.0521 15.8623 32.9625 15.8787 32.8755C15.8951 32.7884 15.93 32.7059 15.9812 32.6336C16.3738 32.1646 16.8727 31.796 17.4363 31.5586C16.7294 31.2222 16.1222 30.7075 15.6747 30.0651C15.2272 29.4227 14.9548 28.6748 14.8843 27.8951C14.8827 27.8076 14.9017 27.7209 14.9398 27.6422C14.978 27.5634 15.0341 27.4947 15.1037 27.4417C15.7562 26.9567 16.5431 26.6859 17.3559 26.6666C16.8129 26.0876 16.4308 25.3768 16.2474 24.6046C16.0639 23.8324 16.0856 23.0257 16.3102 22.2644C16.3439 22.1824 16.3956 22.1089 16.4614 22.0495C16.5272 21.99 16.6055 21.946 16.6905 21.9207C17.4619 21.7268 18.2734 21.765 19.0232 22.0304C18.7143 21.2718 18.6165 20.4436 18.7401 19.6339C18.8636 18.8241 19.204 18.0629 19.7252 17.4309C19.7878 17.368 19.8635 17.3197 19.9469 17.2894C20.0303 17.259 20.1194 17.2474 20.2078 17.2553C20.7651 17.337 21.2972 17.5418 21.7654 17.855C21.641 15.1713 23.3156 13.6503 23.8202 13.8916C25.7214 14.4986 26.7964 16.5607 26.8549 18.6009C24.9242 19.4614 23.2808 20.8576 22.1197 22.6239C20.9585 24.3901 20.3282 26.4523 20.3036 28.566C20.279 30.6796 20.861 32.7559 21.9807 34.5487C23.1004 36.3416 24.7108 37.7757 26.6208 38.681C24.4417 40.5091 20.2151 40.1801 18.8769 37.5987ZM21.4802 28.6921C21.4794 26.7372 22.0585 24.8259 23.1442 23.2001C24.2299 21.5743 25.7733 20.3071 27.5793 19.5586C29.3853 18.8101 31.3727 18.6141 33.2902 18.9953C35.2076 19.3766 36.9689 20.3179 38.3512 21.7002C39.7336 23.0826 40.6749 24.8439 41.0561 26.7613C41.4373 28.6787 41.2413 30.6662 40.4929 32.4722C39.7444 34.2782 38.4771 35.8216 36.8513 36.9073C35.2256 37.9929 33.3143 38.572 31.3594 38.5713C28.7401 38.5685 26.2289 37.5267 24.3768 35.6746C22.5247 33.8225 21.483 31.3114 21.4802 28.6921ZM46.7083 32.6336C46.7594 32.7059 46.7944 32.7884 46.8108 32.8755C46.8272 32.9625 46.8246 33.0521 46.8034 33.1381C46.5185 33.9324 46.0206 34.633 45.3641 35.1631C44.7075 35.6932 43.9178 36.0324 43.0813 36.1436C43.3782 36.4129 43.6257 36.7322 43.8125 37.0869C43.8522 37.1664 43.8729 37.254 43.8729 37.3428C43.8729 37.4316 43.8522 37.5193 43.8125 37.5987C42.4524 40.1947 38.2477 40.4872 36.0759 38.6883C37.9954 37.7854 39.6145 36.3491 40.7398 34.5509C41.8652 32.7527 42.4492 30.6687 42.4222 28.5476C42.3953 26.4265 41.7584 24.358 40.5877 22.589C39.4169 20.8201 37.7618 19.4254 35.82 18.5716C35.8283 18.2867 35.8601 18.003 35.915 17.7234C36.4635 14.6082 38.7669 13.9209 38.8693 13.8916C39.3812 13.6649 41.0484 15.1567 40.9241 17.855C41.3923 17.5418 41.9244 17.337 42.4817 17.2554C42.5701 17.2475 42.6591 17.2591 42.7425 17.2894C42.8259 17.3198 42.9016 17.3681 42.9643 17.4309C43.4854 18.0629 43.8258 18.8241 43.9494 19.6339C44.073 20.4437 43.9752 21.2718 43.6663 22.0305C44.4161 21.765 45.2276 21.7268 45.999 21.9208C46.084 21.9461 46.1623 21.9901 46.2281 22.0495C46.2939 22.109 46.3455 22.1824 46.3792 22.2645C46.606 23.0255 46.6288 23.8328 46.4453 24.6054C46.2617 25.378 45.8783 26.0888 45.3335 26.6666C46.1467 26.684 46.9341 26.955 47.5858 27.4417C48.0904 27.7196 47.7905 30.14 45.2531 31.5587C45.8168 31.7961 46.3157 32.1646 46.7083 32.6336Z" fill="url(#paint1_linear_2339_2065)"/>
<path d="M35.3952 25.7662L33.611 25.6053C33.5266 25.5975 33.4459 25.5669 33.3776 25.5166C33.3093 25.4664 33.256 25.3984 33.2234 25.3202L32.5214 23.6822C32.3953 23.385 32.1845 23.1316 31.9153 22.9535C31.6462 22.7753 31.3305 22.6804 31.0077 22.6804C30.685 22.6804 30.3693 22.7753 30.1002 22.9535C29.831 23.1316 29.6202 23.385 29.4941 23.6822L28.7921 25.3201C28.7595 25.3984 28.7062 25.4664 28.6379 25.5166C28.5696 25.5669 28.4889 25.5975 28.4045 25.6053L26.6276 25.7661C26.3093 25.799 26.0074 25.9235 25.7585 26.1246C25.5096 26.3256 25.3244 26.5946 25.2253 26.8988C25.1262 27.203 25.1176 27.5294 25.2003 27.8385C25.2831 28.1475 25.4537 28.426 25.6916 28.64L27.0371 29.8173C27.0994 29.8747 27.1457 29.9474 27.1713 30.0282C27.197 30.109 27.2011 30.1951 27.1833 30.278L26.7884 32.0183C26.736 32.2588 26.7378 32.508 26.7937 32.7477C26.8496 32.9874 26.9581 33.2117 27.1114 33.4042C27.2648 33.5968 27.4591 33.7528 27.6802 33.8609C27.9013 33.969 28.1437 34.0265 28.3899 34.0293C29.0187 34.0951 30.2399 33.1445 30.7664 32.8739C30.8396 32.8308 30.9229 32.8081 31.0077 32.8081C31.0926 32.8081 31.1759 32.8308 31.2491 32.8739L32.7847 33.7953C33.0615 33.955 33.3788 34.0311 33.698 34.0142C34.0172 33.9974 34.3247 33.8883 34.5831 33.7002C34.8416 33.5122 35.04 33.2532 35.1543 32.9547C35.2686 32.6562 35.2939 32.3309 35.2271 32.0183L34.8322 30.278C34.8144 30.1951 34.8185 30.109 34.8442 30.0282C34.8698 29.9474 34.9161 29.8747 34.9784 29.8173L36.3239 28.64C36.5658 28.4284 36.7403 28.1505 36.826 27.8408C36.9116 27.5311 36.9046 27.2031 36.8058 26.8973C36.707 26.5915 36.5207 26.3214 36.27 26.1203C36.0193 25.9193 35.7152 25.7962 35.3952 25.7662ZM35.5488 27.7552L34.2033 28.9398C33.9808 29.1338 33.815 29.3845 33.7236 29.6652C33.6322 29.9459 33.6185 30.2461 33.6841 30.5339L34.079 32.2743C34.1022 32.3631 34.0978 32.4568 34.0665 32.543C34.0351 32.6292 33.9783 32.7038 33.9035 32.7569C33.8289 32.8118 33.7397 32.8432 33.6472 32.8471C33.5548 32.851 33.4632 32.8273 33.3843 32.7789L31.8487 31.8721C31.5953 31.7179 31.3044 31.6363 31.0077 31.6363C30.7111 31.6363 30.4202 31.7179 30.1668 31.8721L28.6312 32.7789C28.5529 32.8271 28.462 32.8509 28.3701 32.8474C28.2782 32.8439 28.1894 32.8131 28.115 32.7591C28.0406 32.705 27.9839 32.6301 27.9521 32.5438C27.9203 32.4575 27.9149 32.3637 27.9365 32.2743L28.3314 30.5339C28.397 30.2461 28.3833 29.9459 28.2919 29.6652C28.2005 29.3845 28.0347 29.1338 27.8122 28.9398L26.4667 27.7552C26.3968 27.6948 26.3465 27.6152 26.3219 27.5262C26.2973 27.4372 26.2996 27.343 26.3286 27.2554C26.3575 27.1677 26.4118 27.0906 26.4845 27.0338C26.5573 26.977 26.6452 26.943 26.7372 26.9362L28.5069 26.7753C28.8028 26.7498 29.0862 26.6445 29.327 26.4707C29.5678 26.2968 29.7569 26.0609 29.8743 25.7881L30.5763 24.1428C30.6123 24.0582 30.6725 23.9861 30.7492 23.9354C30.8259 23.8847 30.9158 23.8576 31.0077 23.8576C31.0997 23.8576 31.1896 23.8847 31.2663 23.9354C31.343 23.9861 31.4031 24.0582 31.4392 24.1428L32.1412 25.7881C32.2585 26.0609 32.4477 26.2968 32.6885 26.4707C32.9293 26.6445 33.2127 26.7498 33.5086 26.7753L35.2782 26.9362C35.3703 26.943 35.4582 26.977 35.531 27.0338C35.6037 27.0906 35.658 27.1677 35.6869 27.2554C35.7159 27.343 35.7182 27.4372 35.6936 27.5262C35.669 27.6152 35.6186 27.6948 35.5488 27.7552Z" fill="#646464"/>
</g>
<defs>
<filter id="filter0_dii_2339_2065" x="0" y="-4" width="63" height="76" filterUnits="userSpaceOnUse" color-interpolation-filters="sRGB">
<feFlood flood-opacity="0" result="BackgroundImageFix"/>
<feColorMatrix in="SourceAlpha" type="matrix" values="0 0 0 0 0 0 0 0 0 0 0 0 0 0 0 0 0 0 127 0" result="hardAlpha"/>
<feOffset dy="3"/>
<feGaussianBlur stdDeviation="2"/>
<feComposite in2="hardAlpha" operator="out"/>
<feColorMatrix type="matrix" values="0 0 0 0 0 0 0 0 0 0 0 0 0 0 0 0 0 0 0.29 0"/>
<feBlend mode="normal" in2="BackgroundImageFix" result="effect1_dropShadow_2339_2065"/>
<feBlend mode="normal" in="SourceGraphic" in2="effect1_dropShadow_2339_2065" result="shape"/>
<feColorMatrix in="SourceAlpha" type="matrix" values="0 0 0 0 0 0 0 0 0 0 0 0 0 0 0 0 0 0 127 0" result="hardAlpha"/>
<feOffset dy="-3"/>
<feGaussianBlur stdDeviation="2"/>
<feComposite in2="hardAlpha" operator="arithmetic" k2="-1" k3="1"/>
<feColorMatrix type="matrix" values="0 0 0 0 0 0 0 0 0 0 0 0 0 0 0 0 0 0 0.25 0"/>
<feBlend mode="normal" in2="shape" result="effect2_innerShadow_2339_2065"/>
<feColorMatrix in="SourceAlpha" type="matrix" values="0 0 0 0 0 0 0 0 0 0 0 0 0 0 0 0 0 0 127 0" result="hardAlpha"/>
<feOffset dy="3"/>
<feGaussianBlur stdDeviation="2"/>
<feComposite in2="hardAlpha" operator="arithmetic" k2="-1" k3="1"/>
<feColorMatrix type="matrix" values="0 0 0 0 1 0 0 0 0 0.970833 0 0 0 0 0.970833 0 0 0 0.37 0"/>
<feBlend mode="normal" in2="effect2_innerShadow_2339_2065" result="effect3_innerShadow_2339_2065"/>
</filter>
<linearGradient id="paint0_linear_2339_2065" x1="4" y1="32" x2="59" y2="32" gradientUnits="userSpaceOnUse">
<stop stop-color="#57CBE4"/>
<stop offset="1" stop-color="#008DB9"/>
</linearGradient>
<linearGradient id="paint1_linear_2339_2065" x1="9.3999" y1="26.3375" x2="53.2749" y2="26.3375" gradientUnits="userSpaceOnUse">
<stop stop-color="#57CBE4"/>
<stop offset="1" stop-color="#008DB9"/>
</linearGradient>
<clipPath id="clip0_2339_2065">
<rect width="54" height="54" fill="white" transform="translate(4)"/>
</clipPath>
</defs>
</svg>
