<svg width="63" height="72" viewBox="0 0 63 72" fill="none" xmlns="http://www.w3.org/2000/svg">
<g filter="url(#filter0_dii_2339_2061)">
<path d="M4 -1H59V65L32.1395 54.4681L4 65V-1Z" fill="#D9D9D9"/>
<path d="M4 -1H59V65L32.1395 54.4681L4 65V-1Z" fill="url(#paint0_linear_2339_2061)"/>
<path d="M4 -1H59V65L32.1395 54.4681L4 65V-1Z" fill="url(#paint1_linear_2339_2061)"/>
</g>
<g clip-path="url(#clip0_2339_2061)">
<circle cx="31.0002" cy="29.3937" r="17.55" fill="white"/>
<path d="M31.3374 5.59973C26.9986 5.59973 22.7572 6.88634 19.1496 9.29687C15.542 11.7074 12.7302 15.1336 11.0698 19.1421C9.40941 23.1507 8.97497 27.5616 9.82144 31.817C10.6679 36.0725 12.7572 39.9814 15.8253 43.0494C18.8933 46.1174 22.8022 48.2067 27.0576 49.0532C31.3131 49.8997 35.724 49.4652 39.7325 47.8048C43.7411 46.1444 47.1673 43.3327 49.5778 39.7251C51.9883 36.1174 53.2749 31.8761 53.2749 27.5372C53.2678 21.7212 50.9543 16.1454 46.8417 12.0329C42.7292 7.92036 37.1534 5.60682 31.3374 5.59973ZM27.1547 14.0164C27.2312 13.9295 27.3325 13.8682 27.445 13.8408C27.5574 13.8133 27.6756 13.821 27.7835 13.8629L29.3045 14.404L30.9206 12.7514C31.0331 12.639 31.1857 12.5759 31.3447 12.5759C31.5038 12.5759 31.6563 12.639 31.7689 12.7514L33.3849 14.404L34.9059 13.8629C35.0138 13.8206 35.1321 13.8127 35.2446 13.8401C35.3572 13.8676 35.4585 13.9292 35.5348 14.0164C35.613 14.0987 35.6656 14.2019 35.6864 14.3135C35.7071 14.4251 35.6951 14.5404 35.6518 14.6453L34.1235 18.0968C34.0778 18.2011 34.0033 18.2902 33.9087 18.3536C33.8142 18.4171 33.7035 18.4523 33.5897 18.4551H29.0998C28.986 18.4523 28.8753 18.4171 28.7807 18.3536C28.6862 18.2902 28.6117 18.2011 28.566 18.0968L27.045 14.6453C26.9986 14.5414 26.9843 14.4261 27.0039 14.3141C27.0234 14.2021 27.0759 14.0985 27.1547 14.0164ZM18.8769 38.7985C18.8372 38.719 18.8165 38.6314 18.8165 38.5425C18.8165 38.4537 18.8372 38.3661 18.8769 38.2866C19.0638 37.9319 19.3112 37.6127 19.6082 37.3433C18.7717 37.2322 17.9819 36.893 17.3254 36.3629C16.6689 35.8328 16.1709 35.1322 15.8861 34.3379C15.8648 34.2519 15.8623 34.1623 15.8787 34.0752C15.8951 33.9882 15.93 33.9056 15.9812 33.8333C16.3738 33.3643 16.8727 32.9958 17.4363 32.7584C16.7294 32.422 16.1222 31.9072 15.6747 31.2648C15.2272 30.6224 14.9548 29.8745 14.8843 29.0948C14.8827 29.0073 14.9017 28.9207 14.9398 28.8419C14.978 28.7632 15.0341 28.6945 15.1037 28.6414C15.7562 28.1564 16.5431 27.8856 17.3559 27.8663C16.8129 27.2874 16.4308 26.5766 16.2474 25.8044C16.0639 25.0322 16.0856 24.2254 16.3102 23.4642C16.3439 23.3821 16.3956 23.3087 16.4614 23.2492C16.5272 23.1897 16.6055 23.1458 16.6905 23.1205C17.4619 22.9265 18.2734 22.9647 19.0232 23.2302C18.7143 22.4715 18.6165 21.6434 18.7401 20.8336C18.8636 20.0238 19.204 19.2626 19.7252 18.6306C19.7878 18.5678 19.8635 18.5195 19.9469 18.4891C20.0303 18.4588 20.1194 18.4472 20.2078 18.4551C20.7651 18.5367 21.2972 18.7416 21.7654 19.0547C21.641 16.371 23.3156 14.85 23.8202 15.0914C25.7214 15.6983 26.7964 17.7604 26.8549 19.8006C24.9242 20.6612 23.2808 22.0574 22.1197 23.8236C20.9585 25.5899 20.3282 27.6521 20.3036 29.7657C20.279 31.8793 20.861 33.9556 21.9807 35.7485C23.1004 37.5413 24.7108 38.9754 26.6208 39.8807C24.4417 41.7089 20.2151 41.3798 18.8769 38.7985ZM21.4802 29.8919C21.4794 27.9369 22.0585 26.0257 23.1442 24.3999C24.2299 22.7741 25.7733 21.5068 27.5793 20.7583C29.3853 20.0099 31.3727 19.8139 33.2902 20.1951C35.2076 20.5763 36.9689 21.5176 38.3512 22.9C39.7336 24.2823 40.6749 26.0436 41.0561 27.9611C41.4373 29.8785 41.2413 31.8659 40.4929 33.6719C39.7444 35.4779 38.4771 37.0213 36.8513 38.107C35.2256 39.1927 33.3143 39.7718 31.3594 39.771C28.7401 39.7682 26.2289 38.7265 24.3768 36.8744C22.5247 35.0223 21.483 32.5111 21.4802 29.8919ZM46.7083 33.8333C46.7594 33.9056 46.7944 33.9882 46.8108 34.0752C46.8272 34.1623 46.8246 34.2519 46.8034 34.3379C46.5185 35.1322 46.0206 35.8327 45.3641 36.3629C44.7075 36.893 43.9178 37.2322 43.0813 37.3433C43.3782 37.6127 43.6257 37.9319 43.8125 38.2866C43.8522 38.3661 43.8729 38.4537 43.8729 38.5425C43.8729 38.6314 43.8522 38.719 43.8125 38.7985C42.4524 41.3944 38.2477 41.6869 36.0759 39.888C37.9954 38.9851 39.6145 37.5488 40.7398 35.7506C41.8652 33.9525 42.4492 31.8684 42.4222 29.7473C42.3953 27.6262 41.7584 25.5577 40.5877 23.7888C39.4169 22.0198 37.7618 20.6252 35.82 19.7714C35.8283 19.4865 35.8601 19.2028 35.915 18.9231C36.4635 15.808 38.7669 15.1206 38.8693 15.0914C39.3812 14.8647 41.0484 16.3564 40.9241 19.0547C41.3923 18.7416 41.9244 18.5367 42.4817 18.4551C42.5701 18.4472 42.6591 18.4588 42.7425 18.4892C42.8259 18.5195 42.9016 18.5678 42.9643 18.6306C43.4854 19.2626 43.8258 20.0239 43.9494 20.8336C44.073 21.6434 43.9752 22.4715 43.6663 23.2302C44.4161 22.9647 45.2276 22.9266 45.999 23.1205C46.084 23.1458 46.1623 23.1898 46.2281 23.2493C46.2939 23.3087 46.3455 23.3822 46.3792 23.4642C46.606 24.2252 46.6288 25.0325 46.4453 25.8051C46.2617 26.5778 45.8783 27.2886 45.3335 27.8663C46.1467 27.8838 46.9341 28.1548 47.5858 28.6415C48.0904 28.9193 47.7905 31.3398 45.2531 32.7584C45.8168 32.9958 46.3157 33.3643 46.7083 33.8333Z" fill="url(#paint2_linear_2339_2061)"/>
<path d="M31.3374 5.59973C26.9986 5.59973 22.7572 6.88634 19.1496 9.29687C15.542 11.7074 12.7302 15.1336 11.0698 19.1421C9.40941 23.1507 8.97497 27.5616 9.82144 31.817C10.6679 36.0725 12.7572 39.9814 15.8253 43.0494C18.8933 46.1174 22.8022 48.2067 27.0576 49.0532C31.3131 49.8997 35.724 49.4652 39.7325 47.8048C43.7411 46.1444 47.1673 43.3327 49.5778 39.7251C51.9883 36.1174 53.2749 31.8761 53.2749 27.5372C53.2678 21.7212 50.9543 16.1454 46.8417 12.0329C42.7292 7.92036 37.1534 5.60682 31.3374 5.59973ZM27.1547 14.0164C27.2312 13.9295 27.3325 13.8682 27.445 13.8408C27.5574 13.8133 27.6756 13.821 27.7835 13.8629L29.3045 14.404L30.9206 12.7514C31.0331 12.639 31.1857 12.5759 31.3447 12.5759C31.5038 12.5759 31.6563 12.639 31.7689 12.7514L33.3849 14.404L34.9059 13.8629C35.0138 13.8206 35.1321 13.8127 35.2446 13.8401C35.3572 13.8676 35.4585 13.9292 35.5348 14.0164C35.613 14.0987 35.6656 14.2019 35.6864 14.3135C35.7071 14.4251 35.6951 14.5404 35.6518 14.6453L34.1235 18.0968C34.0778 18.2011 34.0033 18.2902 33.9087 18.3536C33.8142 18.4171 33.7035 18.4523 33.5897 18.4551H29.0998C28.986 18.4523 28.8753 18.4171 28.7807 18.3536C28.6862 18.2902 28.6117 18.2011 28.566 18.0968L27.045 14.6453C26.9986 14.5414 26.9843 14.4261 27.0039 14.3141C27.0234 14.2021 27.0759 14.0985 27.1547 14.0164ZM18.8769 38.7985C18.8372 38.719 18.8165 38.6314 18.8165 38.5425C18.8165 38.4537 18.8372 38.3661 18.8769 38.2866C19.0638 37.9319 19.3112 37.6127 19.6082 37.3433C18.7717 37.2322 17.9819 36.893 17.3254 36.3629C16.6689 35.8328 16.1709 35.1322 15.8861 34.3379C15.8648 34.2519 15.8623 34.1623 15.8787 34.0752C15.8951 33.9882 15.93 33.9056 15.9812 33.8333C16.3738 33.3643 16.8727 32.9958 17.4363 32.7584C16.7294 32.422 16.1222 31.9072 15.6747 31.2648C15.2272 30.6224 14.9548 29.8745 14.8843 29.0948C14.8827 29.0073 14.9017 28.9207 14.9398 28.8419C14.978 28.7632 15.0341 28.6945 15.1037 28.6414C15.7562 28.1564 16.5431 27.8856 17.3559 27.8663C16.8129 27.2874 16.4308 26.5766 16.2474 25.8044C16.0639 25.0322 16.0856 24.2254 16.3102 23.4642C16.3439 23.3821 16.3956 23.3087 16.4614 23.2492C16.5272 23.1897 16.6055 23.1458 16.6905 23.1205C17.4619 22.9265 18.2734 22.9647 19.0232 23.2302C18.7143 22.4715 18.6165 21.6434 18.7401 20.8336C18.8636 20.0238 19.204 19.2626 19.7252 18.6306C19.7878 18.5678 19.8635 18.5195 19.9469 18.4891C20.0303 18.4588 20.1194 18.4472 20.2078 18.4551C20.7651 18.5367 21.2972 18.7416 21.7654 19.0547C21.641 16.371 23.3156 14.85 23.8202 15.0914C25.7214 15.6983 26.7964 17.7604 26.8549 19.8006C24.9242 20.6612 23.2808 22.0574 22.1197 23.8236C20.9585 25.5899 20.3282 27.6521 20.3036 29.7657C20.279 31.8793 20.861 33.9556 21.9807 35.7485C23.1004 37.5413 24.7108 38.9754 26.6208 39.8807C24.4417 41.7089 20.2151 41.3798 18.8769 38.7985ZM21.4802 29.8919C21.4794 27.9369 22.0585 26.0257 23.1442 24.3999C24.2299 22.7741 25.7733 21.5068 27.5793 20.7583C29.3853 20.0099 31.3727 19.8139 33.2902 20.1951C35.2076 20.5763 36.9689 21.5176 38.3512 22.9C39.7336 24.2823 40.6749 26.0436 41.0561 27.9611C41.4373 29.8785 41.2413 31.8659 40.4929 33.6719C39.7444 35.4779 38.4771 37.0213 36.8513 38.107C35.2256 39.1927 33.3143 39.7718 31.3594 39.771C28.7401 39.7682 26.2289 38.7265 24.3768 36.8744C22.5247 35.0223 21.483 32.5111 21.4802 29.8919ZM46.7083 33.8333C46.7594 33.9056 46.7944 33.9882 46.8108 34.0752C46.8272 34.1623 46.8246 34.2519 46.8034 34.3379C46.5185 35.1322 46.0206 35.8327 45.3641 36.3629C44.7075 36.893 43.9178 37.2322 43.0813 37.3433C43.3782 37.6127 43.6257 37.9319 43.8125 38.2866C43.8522 38.3661 43.8729 38.4537 43.8729 38.5425C43.8729 38.6314 43.8522 38.719 43.8125 38.7985C42.4524 41.3944 38.2477 41.6869 36.0759 39.888C37.9954 38.9851 39.6145 37.5488 40.7398 35.7506C41.8652 33.9525 42.4492 31.8684 42.4222 29.7473C42.3953 27.6262 41.7584 25.5577 40.5877 23.7888C39.4169 22.0198 37.7618 20.6252 35.82 19.7714C35.8283 19.4865 35.8601 19.2028 35.915 18.9231C36.4635 15.808 38.7669 15.1206 38.8693 15.0914C39.3812 14.8647 41.0484 16.3564 40.9241 19.0547C41.3923 18.7416 41.9244 18.5367 42.4817 18.4551C42.5701 18.4472 42.6591 18.4588 42.7425 18.4892C42.8259 18.5195 42.9016 18.5678 42.9643 18.6306C43.4854 19.2626 43.8258 20.0239 43.9494 20.8336C44.073 21.6434 43.9752 22.4715 43.6663 23.2302C44.4161 22.9647 45.2276 22.9266 45.999 23.1205C46.084 23.1458 46.1623 23.1898 46.2281 23.2493C46.2939 23.3087 46.3455 23.3822 46.3792 23.4642C46.606 24.2252 46.6288 25.0325 46.4453 25.8051C46.2617 26.5778 45.8783 27.2886 45.3335 27.8663C46.1467 27.8838 46.9341 28.1548 47.5858 28.6415C48.0904 28.9193 47.7905 31.3398 45.2531 32.7584C45.8168 32.9958 46.3157 33.3643 46.7083 33.8333Z" fill="url(#paint3_linear_2339_2061)"/>
<path d="M35.3952 26.9657L33.611 26.8048C33.5266 26.7971 33.4459 26.7664 33.3776 26.7162C33.3093 26.6659 33.256 26.598 33.2234 26.5197L32.5214 24.8817C32.3953 24.5846 32.1845 24.3312 31.9153 24.153C31.6462 23.9749 31.3305 23.8799 31.0077 23.8799C30.685 23.8799 30.3693 23.9749 30.1002 24.153C29.831 24.3312 29.6202 24.5846 29.4941 24.8817L28.7921 26.5196C28.7595 26.5979 28.7062 26.6659 28.6379 26.7161C28.5696 26.7664 28.4889 26.797 28.4045 26.8048L26.6276 26.9657C26.3093 26.9985 26.0074 27.1231 25.7585 27.3241C25.5096 27.5251 25.3244 27.7941 25.2253 28.0983C25.1262 28.4025 25.1176 28.7289 25.2003 29.038C25.2831 29.3471 25.4537 29.6255 25.6916 29.8395L27.0371 31.0168C27.0994 31.0742 27.1457 31.1469 27.1713 31.2277C27.197 31.3085 27.2011 31.3946 27.1833 31.4775L26.7884 33.2179C26.736 33.4584 26.7378 33.7075 26.7937 33.9472C26.8496 34.1869 26.9581 34.4112 27.1114 34.6038C27.2648 34.7963 27.4591 34.9523 27.6802 35.0604C27.9013 35.1685 28.1437 35.226 28.3899 35.2288C29.0187 35.2946 30.2399 34.344 30.7664 34.0734C30.8396 34.0303 30.9229 34.0076 31.0077 34.0076C31.0926 34.0076 31.1759 34.0303 31.2491 34.0734L32.7847 34.9948C33.0615 35.1546 33.3788 35.2306 33.698 35.2138C34.0172 35.1969 34.3247 35.0878 34.5831 34.8998C34.8416 34.7117 35.04 34.4527 35.1543 34.1542C35.2686 33.8557 35.2939 33.5304 35.2271 33.2179L34.8322 31.4775C34.8144 31.3946 34.8185 31.3085 34.8442 31.2277C34.8698 31.1469 34.9161 31.0742 34.9784 31.0168L36.3239 29.8395C36.5658 29.6279 36.7403 29.3501 36.826 29.0403C36.9116 28.7306 36.9046 28.4026 36.8058 28.0968C36.707 27.791 36.5207 27.5209 36.27 27.3199C36.0193 27.1188 35.7152 26.9957 35.3952 26.9657ZM35.5488 28.9547L34.2033 30.1393C33.9808 30.3333 33.815 30.584 33.7236 30.8647C33.6322 31.1454 33.6185 31.4456 33.6841 31.7335L34.079 33.4738C34.1022 33.5626 34.0978 33.6563 34.0665 33.7425C34.0351 33.8287 33.9783 33.9033 33.9035 33.9565C33.8289 34.0113 33.7397 34.0427 33.6472 34.0466C33.5548 34.0505 33.4632 34.0268 33.3843 33.9784L31.8487 33.0716C31.5953 32.9174 31.3044 32.8358 31.0077 32.8358C30.7111 32.8358 30.4202 32.9174 30.1668 33.0716L28.6312 33.9784C28.5529 34.0266 28.462 34.0504 28.3701 34.0469C28.2782 34.0434 28.1894 34.0127 28.115 33.9586C28.0406 33.9046 27.9839 33.8296 27.9521 33.7433C27.9203 33.657 27.9149 33.5632 27.9365 33.4738L28.3314 31.7335C28.397 31.4456 28.3833 31.1454 28.2919 30.8647C28.2005 30.584 28.0347 30.3333 27.8122 30.1393L26.4667 28.9547C26.3968 28.8944 26.3465 28.8147 26.3219 28.7257C26.2973 28.6368 26.2996 28.5425 26.3286 28.4549C26.3575 28.3673 26.4118 28.2902 26.4845 28.2334C26.5573 28.1765 26.6452 28.1426 26.7372 28.1357L28.5069 27.9748C28.8028 27.9493 29.0862 27.844 29.327 27.6702C29.5678 27.4963 29.7569 27.2605 29.8743 26.9876L30.5763 25.3423C30.6123 25.2577 30.6725 25.1856 30.7492 25.1349C30.8259 25.0842 30.9158 25.0572 31.0077 25.0572C31.0997 25.0572 31.1896 25.0842 31.2663 25.1349C31.343 25.1856 31.4031 25.2577 31.4392 25.3423L32.1412 26.9876C32.2585 27.2605 32.4477 27.4963 32.6885 27.6702C32.9293 27.844 33.2127 27.9493 33.5086 27.9748L35.2782 28.1357C35.3703 28.1426 35.4582 28.1765 35.531 28.2334C35.6037 28.2902 35.658 28.3673 35.6869 28.4549C35.7159 28.5425 35.7182 28.6368 35.6936 28.7257C35.669 28.8147 35.6186 28.8944 35.5488 28.9547Z" fill="#646464"/>
</g>
<defs>
<filter id="filter0_dii_2339_2061" x="0" y="-4" width="63" height="76" filterUnits="userSpaceOnUse" color-interpolation-filters="sRGB">
<feFlood flood-opacity="0" result="BackgroundImageFix"/>
<feColorMatrix in="SourceAlpha" type="matrix" values="0 0 0 0 0 0 0 0 0 0 0 0 0 0 0 0 0 0 127 0" result="hardAlpha"/>
<feOffset dy="3"/>
<feGaussianBlur stdDeviation="2"/>
<feComposite in2="hardAlpha" operator="out"/>
<feColorMatrix type="matrix" values="0 0 0 0 0 0 0 0 0 0 0 0 0 0 0 0 0 0 0.29 0"/>
<feBlend mode="normal" in2="BackgroundImageFix" result="effect1_dropShadow_2339_2061"/>
<feBlend mode="normal" in="SourceGraphic" in2="effect1_dropShadow_2339_2061" result="shape"/>
<feColorMatrix in="SourceAlpha" type="matrix" values="0 0 0 0 0 0 0 0 0 0 0 0 0 0 0 0 0 0 127 0" result="hardAlpha"/>
<feOffset dy="-3"/>
<feGaussianBlur stdDeviation="2"/>
<feComposite in2="hardAlpha" operator="arithmetic" k2="-1" k3="1"/>
<feColorMatrix type="matrix" values="0 0 0 0 0 0 0 0 0 0 0 0 0 0 0 0 0 0 0.25 0"/>
<feBlend mode="normal" in2="shape" result="effect2_innerShadow_2339_2061"/>
<feColorMatrix in="SourceAlpha" type="matrix" values="0 0 0 0 0 0 0 0 0 0 0 0 0 0 0 0 0 0 127 0" result="hardAlpha"/>
<feOffset dy="3"/>
<feGaussianBlur stdDeviation="2"/>
<feComposite in2="hardAlpha" operator="arithmetic" k2="-1" k3="1"/>
<feColorMatrix type="matrix" values="0 0 0 0 1 0 0 0 0 0.970833 0 0 0 0 0.970833 0 0 0 0.37 0"/>
<feBlend mode="normal" in2="effect2_innerShadow_2339_2061" result="effect3_innerShadow_2339_2061"/>
</filter>
<linearGradient id="paint0_linear_2339_2061" x1="4" y1="32" x2="59" y2="32" gradientUnits="userSpaceOnUse">
<stop stop-color="#78571B"/>
<stop offset="0.63" stop-color="#F3B54C"/>
<stop offset="0.985" stop-color="#DCA548"/>
</linearGradient>
<linearGradient id="paint1_linear_2339_2061" x1="4" y1="32" x2="59" y2="32" gradientUnits="userSpaceOnUse">
<stop stop-color="#38B1DE"/>
<stop offset="0.63" stop-color="#61C3E8"/>
<stop offset="0.985" stop-color="#1C54AE"/>
</linearGradient>
<linearGradient id="paint2_linear_2339_2061" x1="9.3999" y1="27.5372" x2="53.2749" y2="27.5372" gradientUnits="userSpaceOnUse">
<stop stop-color="#78571B"/>
<stop offset="0.63" stop-color="#F3B54C"/>
<stop offset="0.985" stop-color="#DCA548"/>
</linearGradient>
<linearGradient id="paint3_linear_2339_2061" x1="9.3999" y1="27.5372" x2="53.2749" y2="27.5372" gradientUnits="userSpaceOnUse">
<stop stop-color="#38B1DE"/>
<stop offset="0.63" stop-color="#61C3E8"/>
<stop offset="0.985" stop-color="#1C54AE"/>
</linearGradient>
<clipPath id="clip0_2339_2061">
<rect width="54" height="54" fill="white" transform="translate(4)"/>
</clipPath>
</defs>
</svg>
