<svg width="63" height="72" viewBox="0 0 63 72" fill="none" xmlns="http://www.w3.org/2000/svg">
<g filter="url(#filter0_dii_2339_2063)">
<path d="M4 -1H59V65L32.1395 54.4681L4 65V-1Z" fill="url(#paint0_linear_2339_2063)"/>
</g>
<g clip-path="url(#clip0_2339_2063)">
<circle cx="31.0002" cy="29.7938" r="17.55" fill="white"/>
<path d="M31.3374 6C26.9986 6 22.7572 7.28661 19.1496 9.69714C15.542 12.1077 12.7302 15.5338 11.0698 19.5424C9.40941 23.5509 8.97497 27.9618 9.82144 32.2173C10.6679 36.4727 12.7572 40.3816 15.8253 43.4497C18.8933 46.5177 22.8022 48.607 27.0576 49.4535C31.3131 50.2999 35.724 49.8655 39.7325 48.2051C43.7411 46.5447 47.1673 43.7329 49.5778 40.1253C51.9883 36.5177 53.2749 32.2763 53.2749 27.9375C53.2678 22.1215 50.9543 16.5457 46.8418 12.4332C42.7292 8.32063 37.1534 6.00708 31.3374 6ZM27.1547 14.4167C27.2312 14.3298 27.3325 14.2685 27.445 14.2411C27.5574 14.2136 27.6756 14.2213 27.7835 14.2631L29.3045 14.8042L30.9206 13.1516C31.0331 13.0392 31.1857 12.9761 31.3447 12.9761C31.5038 12.9761 31.6563 13.0392 31.7689 13.1516L33.3849 14.8042L34.9059 14.2631C35.0138 14.2209 35.1321 14.2129 35.2446 14.2404C35.3572 14.2679 35.4585 14.3295 35.5348 14.4167C35.613 14.499 35.6656 14.6022 35.6864 14.7138C35.7071 14.8254 35.6951 14.9406 35.6518 15.0456L34.1235 18.4971C34.0778 18.6013 34.0033 18.6904 33.9087 18.7539C33.8142 18.8174 33.7035 18.8526 33.5897 18.8554H29.0998C28.986 18.8526 28.8753 18.8174 28.7807 18.7539C28.6862 18.6904 28.6117 18.6013 28.566 18.4971L27.045 15.0456C26.9986 14.9417 26.9843 14.8264 27.0039 14.7144C27.0234 14.6024 27.0759 14.4987 27.1547 14.4167ZM18.8769 39.1987C18.8372 39.1193 18.8165 39.0316 18.8165 38.9428C18.8165 38.854 18.8372 38.7663 18.8769 38.6869C19.0638 38.3322 19.3112 38.0129 19.6082 37.7436C18.7717 37.6325 17.9819 37.2933 17.3254 36.7631C16.6689 36.233 16.1709 35.5324 15.8861 34.7381C15.8648 34.6521 15.8623 34.5625 15.8787 34.4755C15.8951 34.3884 15.93 34.3059 15.9812 34.2336C16.3738 33.7646 16.8727 33.396 17.4363 33.1586C16.7294 32.8223 16.1222 32.3075 15.6747 31.6651C15.2272 31.0227 14.9548 30.2748 14.8843 29.4951C14.8827 29.4076 14.9017 29.3209 14.9399 29.2422C14.978 29.1634 15.0341 29.0947 15.1037 29.0417C15.7562 28.5567 16.5431 28.2859 17.3559 28.2666C16.813 27.6877 16.4308 26.9768 16.2474 26.2046C16.0639 25.4324 16.0856 24.6257 16.3102 23.8644C16.3439 23.7824 16.3956 23.709 16.4614 23.6495C16.5272 23.59 16.6055 23.546 16.6905 23.5207C17.4619 23.3268 18.2734 23.365 19.0232 23.6304C18.7143 22.8718 18.6165 22.0436 18.7401 21.2339C18.8636 20.4241 19.204 19.6629 19.7252 19.0309C19.7878 18.968 19.8635 18.9197 19.9469 18.8894C20.0303 18.859 20.1194 18.8474 20.2078 18.8553C20.7651 18.937 21.2972 19.1418 21.7654 19.455C21.641 16.7713 23.3156 15.2503 23.8202 15.4916C25.7214 16.0986 26.7964 18.1607 26.8549 20.2009C24.9242 21.0614 23.2808 22.4576 22.1197 24.2239C20.9585 25.9901 20.3282 28.0523 20.3036 30.166C20.279 32.2796 20.861 34.3559 21.9807 36.1487C23.1004 37.9416 24.7108 39.3757 26.6208 40.281C24.4417 42.1091 20.2151 41.7801 18.8769 39.1987ZM21.4802 30.2921C21.4794 28.3372 22.0585 26.4259 23.1442 24.8001C24.2299 23.1743 25.7733 21.9071 27.5793 21.1586C29.3853 20.4101 31.3727 20.2141 33.2902 20.5953C35.2076 20.9766 36.9689 21.9179 38.3512 23.3002C39.7336 24.6826 40.6749 26.4439 41.0561 28.3613C41.4374 30.2787 41.2413 32.2662 40.4929 34.0722C39.7444 35.8782 38.4771 37.4216 36.8513 38.5073C35.2256 39.5929 33.3143 40.172 31.3594 40.1713C28.7401 40.1685 26.2289 39.1267 24.3768 37.2746C22.5247 35.4225 21.483 32.9114 21.4802 30.2921ZM46.7083 34.2336C46.7594 34.3059 46.7944 34.3884 46.8108 34.4755C46.8272 34.5626 46.8246 34.6521 46.8034 34.7381C46.5185 35.5324 46.0206 36.233 45.3641 36.7631C44.7075 37.2932 43.9178 37.6324 43.0813 37.7436C43.3782 38.0129 43.6257 38.3322 43.8125 38.6869C43.8522 38.7664 43.8729 38.854 43.8729 38.9428C43.8729 39.0316 43.8522 39.1193 43.8125 39.1987C42.4524 41.7947 38.2477 42.0872 36.0759 40.2883C37.9954 39.3854 39.6145 37.9491 40.7398 36.1509C41.8652 34.3528 42.4492 32.2687 42.4222 30.1476C42.3953 28.0265 41.7584 25.958 40.5877 24.189C39.4169 22.4201 37.7618 21.0254 35.82 20.1716C35.8283 19.8867 35.8601 19.603 35.915 19.3234C36.4635 16.2082 38.7669 15.5209 38.8693 15.4916C39.3812 15.2649 41.0484 16.7567 40.9241 19.455C41.3923 19.1418 41.9244 18.937 42.4817 18.8554C42.5701 18.8475 42.6591 18.8591 42.7425 18.8894C42.8259 18.9198 42.9016 18.9681 42.9643 19.0309C43.4854 19.6629 43.8258 20.4241 43.9494 21.2339C44.073 22.0437 43.9752 22.8718 43.6663 23.6305C44.4161 23.365 45.2276 23.3269 45.999 23.5208C46.084 23.5461 46.1623 23.5901 46.2281 23.6495C46.2939 23.709 46.3455 23.7824 46.3792 23.8645C46.606 24.6255 46.6288 25.4328 46.4453 26.2054C46.2617 26.978 45.8784 27.6888 45.3335 28.2666C46.1467 28.284 46.9341 28.555 47.5858 29.0417C48.0904 29.3196 47.7905 31.74 45.2532 33.1587C45.8168 33.3961 46.3157 33.7646 46.7083 34.2336Z" fill="url(#paint1_linear_2339_2063)"/>
<path d="M35.3952 27.3662L33.611 27.2053C33.5266 27.1976 33.4459 27.1669 33.3776 27.1167C33.3093 27.0664 33.256 26.9985 33.2234 26.9202L32.5214 25.2822C32.3953 24.9851 32.1845 24.7317 31.9153 24.5535C31.6462 24.3754 31.3305 24.2804 31.0077 24.2804C30.685 24.2804 30.3693 24.3754 30.1002 24.5535C29.831 24.7317 29.6202 24.9851 29.4941 25.2822L28.7921 26.9202C28.7595 26.9985 28.7062 27.0664 28.6379 27.1166C28.5696 27.1669 28.4889 27.1975 28.4045 27.2053L26.6276 27.3662C26.3093 27.3991 26.0074 27.5236 25.7585 27.7246C25.5096 27.9257 25.3244 28.1946 25.2253 28.4988C25.1262 28.803 25.1176 29.1295 25.2003 29.4385C25.2831 29.7476 25.4537 30.026 25.6916 30.24L27.0371 31.4173C27.0994 31.4747 27.1457 31.5475 27.1713 31.6282C27.197 31.709 27.2011 31.7951 27.1833 31.878L26.7884 33.6184C26.736 33.8589 26.7378 34.108 26.7937 34.3477C26.8496 34.5875 26.9581 34.8117 27.1114 35.0043C27.2648 35.1968 27.4591 35.3528 27.6802 35.4609C27.9013 35.569 28.1437 35.6265 28.3899 35.6293C29.0187 35.6951 30.2399 34.7445 30.7664 34.4739C30.8396 34.4308 30.9229 34.4081 31.0077 34.4081C31.0926 34.4081 31.1759 34.4308 31.2491 34.4739L32.7847 35.3953C33.0615 35.5551 33.3788 35.6311 33.698 35.6143C34.0172 35.5974 34.3247 35.4883 34.5831 35.3003C34.8416 35.1122 35.04 34.8533 35.1543 34.5547C35.2686 34.2562 35.2939 33.931 35.2271 33.6184L34.8322 31.878C34.8144 31.7951 34.8185 31.709 34.8442 31.6282C34.8698 31.5475 34.9161 31.4747 34.9784 31.4173L36.3239 30.24C36.5658 30.0284 36.7403 29.7506 36.826 29.4409C36.9116 29.1311 36.9046 28.8031 36.8058 28.4973C36.707 28.1915 36.5207 27.9214 36.27 27.7204C36.0193 27.5193 35.7152 27.3962 35.3952 27.3662ZM35.5488 29.3552L34.2033 30.5398C33.9808 30.7338 33.815 30.9845 33.7236 31.2652C33.6322 31.5459 33.6185 31.8461 33.6841 32.134L34.079 33.8743C34.1022 33.9631 34.0978 34.0568 34.0665 34.143C34.0351 34.2292 33.9783 34.3038 33.9035 34.357C33.8289 34.4118 33.7397 34.4432 33.6472 34.4471C33.5548 34.4511 33.4632 34.4273 33.3843 34.3789L31.8487 33.4722C31.5953 33.3179 31.3044 33.2363 31.0077 33.2363C30.7111 33.2363 30.4202 33.3179 30.1668 33.4722L28.6312 34.3789C28.5529 34.4271 28.462 34.4509 28.3701 34.4474C28.2782 34.4439 28.1894 34.4132 28.115 34.3591C28.0406 34.3051 27.9839 34.2302 27.9521 34.1438C27.9203 34.0575 27.9149 33.9637 27.9365 33.8743L28.3314 32.134C28.397 31.8461 28.3833 31.5459 28.2919 31.2652C28.2005 30.9845 28.0347 30.7338 27.8122 30.5398L26.4667 29.3552C26.3968 29.2949 26.3465 29.2152 26.3219 29.1262C26.2973 29.0373 26.2996 28.943 26.3286 28.8554C26.3575 28.7678 26.4118 28.6907 26.4845 28.6339C26.5573 28.5771 26.6452 28.5431 26.7372 28.5362L28.5069 28.3753C28.8028 28.3498 29.0862 28.2445 29.327 28.0707C29.5678 27.8969 29.7569 27.661 29.8743 27.3882L30.5763 25.7428C30.6123 25.6582 30.6725 25.5861 30.7492 25.5354C30.8259 25.4847 30.9158 25.4577 31.0077 25.4577C31.0997 25.4577 31.1896 25.4847 31.2663 25.5354C31.343 25.5861 31.4031 25.6582 31.4392 25.7428L32.1412 27.3882C32.2585 27.661 32.4477 27.8969 32.6885 28.0707C32.9293 28.2445 33.2127 28.3498 33.5086 28.3753L35.2782 28.5362C35.3703 28.5431 35.4582 28.5771 35.531 28.6339C35.6037 28.6907 35.658 28.7678 35.6869 28.8554C35.7159 28.943 35.7182 29.0373 35.6936 29.1262C35.669 29.2152 35.6186 29.2949 35.5488 29.3552Z" fill="#646464"/>
</g>
<defs>
<filter id="filter0_dii_2339_2063" x="0" y="-4" width="63" height="76" filterUnits="userSpaceOnUse" color-interpolation-filters="sRGB">
<feFlood flood-opacity="0" result="BackgroundImageFix"/>
<feColorMatrix in="SourceAlpha" type="matrix" values="0 0 0 0 0 0 0 0 0 0 0 0 0 0 0 0 0 0 127 0" result="hardAlpha"/>
<feOffset dy="3"/>
<feGaussianBlur stdDeviation="2"/>
<feComposite in2="hardAlpha" operator="out"/>
<feColorMatrix type="matrix" values="0 0 0 0 0 0 0 0 0 0 0 0 0 0 0 0 0 0 0.29 0"/>
<feBlend mode="normal" in2="BackgroundImageFix" result="effect1_dropShadow_2339_2063"/>
<feBlend mode="normal" in="SourceGraphic" in2="effect1_dropShadow_2339_2063" result="shape"/>
<feColorMatrix in="SourceAlpha" type="matrix" values="0 0 0 0 0 0 0 0 0 0 0 0 0 0 0 0 0 0 127 0" result="hardAlpha"/>
<feOffset dy="-3"/>
<feGaussianBlur stdDeviation="2"/>
<feComposite in2="hardAlpha" operator="arithmetic" k2="-1" k3="1"/>
<feColorMatrix type="matrix" values="0 0 0 0 0 0 0 0 0 0 0 0 0 0 0 0 0 0 0.25 0"/>
<feBlend mode="normal" in2="shape" result="effect2_innerShadow_2339_2063"/>
<feColorMatrix in="SourceAlpha" type="matrix" values="0 0 0 0 0 0 0 0 0 0 0 0 0 0 0 0 0 0 127 0" result="hardAlpha"/>
<feOffset dy="3"/>
<feGaussianBlur stdDeviation="2"/>
<feComposite in2="hardAlpha" operator="arithmetic" k2="-1" k3="1"/>
<feColorMatrix type="matrix" values="0 0 0 0 1 0 0 0 0 0.970833 0 0 0 0 0.970833 0 0 0 0.37 0"/>
<feBlend mode="normal" in2="effect2_innerShadow_2339_2063" result="effect3_innerShadow_2339_2063"/>
</filter>
<linearGradient id="paint0_linear_2339_2063" x1="4" y1="32" x2="59" y2="32" gradientUnits="userSpaceOnUse">
<stop stop-color="#8DFFB4"/>
<stop offset="1" stop-color="#0AC9A6"/>
</linearGradient>
<linearGradient id="paint1_linear_2339_2063" x1="9.3999" y1="27.9375" x2="53.2749" y2="27.9375" gradientUnits="userSpaceOnUse">
<stop stop-color="#8DFFB4"/>
<stop offset="1" stop-color="#0AC9A6"/>
</linearGradient>
<clipPath id="clip0_2339_2063">
<rect width="54" height="54" fill="white" transform="translate(4)"/>
</clipPath>
</defs>
</svg>
