<svg width="30" height="30" viewBox="0 0 30 30" fill="none" xmlns="http://www.w3.org/2000/svg">
<g id="Group 10228">
<g id="Currency">
<g id="Dollar">
<g id="Coin">
<g id="Bottom">
<path id="Vector" d="M14.8743 29.7485C23.0891 29.7485 29.7485 23.0891 29.7485 14.8742C29.7485 6.6594 23.0891 -3.05176e-05 14.8743 -3.05176e-05C6.65943 -3.05176e-05 0 6.6594 0 14.8742C0 23.0891 6.65943 29.7485 14.8743 29.7485Z" fill="#FDD835"/>
<path id="Vector_2" opacity="0.5" d="M14.8743 -3.05176e-05C6.65972 -3.05176e-05 0 6.65969 0 14.8742C0 23.0888 6.65972 29.7485 14.8743 29.7485C23.0888 29.7485 29.7485 23.0888 29.7485 14.8742C29.7485 6.65969 23.0888 -3.05176e-05 14.8743 -3.05176e-05ZM14.8743 29.1094C7.0124 29.1094 0.639128 22.7361 0.639128 14.8742C0.639128 7.01237 7.0124 0.639098 14.8743 0.639098C22.7361 0.639098 29.1094 7.01237 29.1094 14.8742C29.1094 22.7361 22.7361 29.1094 14.8743 29.1094Z" fill="white"/>
</g>
<g id="Shade">
<path id="Vector_3" opacity="0.5" d="M20.8089 1.2312L1.23123 20.8089C0.577 19.3063 0.162728 17.6731 0.0395508 15.9608L15.9608 0.0395203C17.6731 0.162698 19.3064 0.576969 20.8089 1.2312Z" fill="white"/>
<path id="Vector_4" opacity="0.5" d="M27.8364 7.57363L7.57366 27.8363C6.31342 27.1251 5.16764 26.2356 4.16943 25.2014L25.2014 4.1694C26.2356 5.16761 27.1258 6.31339 27.8364 7.57363Z" fill="white"/>
<path id="Vector_5" opacity="0.5" d="M24.5939 3.61509L3.61478 24.5936C3.2865 24.2142 2.9774 23.8174 2.68921 23.4054L23.4057 2.68893C23.817 2.97712 24.2139 3.28623 24.5939 3.61509Z" fill="white"/>
<path id="Vector_6" opacity="0.5" d="M29.282 11.1626L11.1627 29.2819C10.6154 29.1413 10.0808 28.9705 9.55908 28.7712L28.7707 9.55957C28.97 10.0808 29.1414 10.6159 29.2814 11.1632L29.282 11.1626Z" fill="white"/>
<path id="Vector_7" opacity="0.5" d="M26.9579 15.518C26.9579 21.9541 21.7398 27.1722 15.3037 27.1722C11.688 27.1722 8.45577 25.5256 6.31934 22.9406C8.44763 25.2415 11.4934 26.6819 14.8744 26.6819C21.3104 26.6819 26.5286 21.4637 26.5286 15.0276C26.5286 12.2079 25.5269 9.6212 23.8593 7.60504C25.7831 9.68395 26.9579 12.4636 26.9579 15.518Z" fill="white"/>
</g>
<g id="Top">
<path id="Vector_8" d="M14.8742 26.6819C21.3106 26.6819 26.5284 21.4641 26.5284 15.0277C26.5284 8.59121 21.3106 3.37344 14.8742 3.37344C8.43774 3.37344 3.21997 8.59121 3.21997 15.0277C3.21997 21.4641 8.43774 26.6819 14.8742 26.6819Z" fill="#F39E09"/>
<path id="Vector_9" d="M23.7058 7.42319C21.6646 5.66385 19.007 4.60057 16.1013 4.60057C9.66529 4.60057 4.4471 9.81876 4.4471 16.2548C4.4471 19.1605 5.51096 21.8181 7.26972 23.8592C4.7899 21.7217 3.21997 18.558 3.21997 15.0277C3.21997 8.59164 8.43816 3.37344 14.8742 3.37344C18.4039 3.37344 21.5682 4.94279 23.7058 7.42319Z" fill="#E88102"/>
</g>
</g>
<g id="Icon">
<path id="Bottom_2" d="M14.1475 12.0574C13.936 12.2985 13.8296 12.6303 13.8296 13.0533C13.8296 13.4763 13.9517 13.8237 14.1951 14.0765C14.4391 14.3286 14.8307 14.5698 15.3705 14.7987C15.9097 15.0282 16.4187 15.2658 16.898 15.5128C17.3762 15.7591 17.7899 16.0392 18.1385 16.3523C18.4866 16.6655 18.7591 17.031 18.956 17.4482C19.0304 17.605 19.2506 17.9078 19.2506 17.9078C19.2506 17.9078 19.2524 18.9292 19.2524 18.9542C19.2524 19.946 18.9369 20.7559 18.3076 21.3817C17.6784 22.0086 16.8208 22.3741 15.7366 22.4787V24.2281H14.3526V22.47C13.0877 22.3363 12.1174 21.9035 11.4416 21.169C10.7659 20.4346 10.4277 19.4678 10.4277 18.2668V17.3465L13.3602 18.2668C13.3602 18.928 13.5066 19.4318 13.8 19.7769C14.0928 20.122 14.5089 20.2946 15.0486 20.2946C15.4431 20.2946 15.7534 20.1767 15.98 19.9419C16.2066 19.7072 16.3193 19.3836 16.3193 18.9716C16.3193 18.5132 16.2066 18.1541 15.98 17.8926C15.7534 17.6312 15.356 17.3848 14.7877 17.153C14.2189 16.9212 13.6943 16.6864 13.2126 16.4482C12.7309 16.21 12.3166 15.9346 11.968 15.6214C11.62 15.3082 11.3527 14.9457 11.1674 14.5332C10.9815 14.1218 10.8891 13.6227 10.8891 13.0364V12.0621C10.8891 12.0621 11.437 11.0394 11.8809 10.6136C12.5427 9.97791 13.4241 9.60838 14.5263 9.5038V7.66718H15.9103V9.53808C16.9718 9.69495 17.8062 10.1319 18.4122 10.8483C18.827 11.3381 19.3221 12.6564 19.3221 12.6564V13.5768H16.3809C16.3809 12.9731 16.2641 12.5094 16.0323 12.1846C15.8005 11.8593 15.4693 11.6972 15.0405 11.6972C14.657 11.6972 14.3595 11.818 14.148 12.0586L14.1475 12.0574Z" fill="#DB6704"/>
<path id="Vector_10" d="M18.138 15.432C17.79 15.1189 17.3763 14.8388 16.8981 14.5924C16.5826 14.4298 16.2526 14.2717 15.9104 14.1166V11.1179C15.9533 11.1621 15.994 11.2103 16.0324 11.2638C16.2642 11.5885 16.3804 12.0528 16.3804 12.6559H19.3221C19.3221 11.5537 19.0188 10.6444 18.4128 9.92739C17.8062 9.21099 16.9725 8.77406 15.9109 8.61776V6.74686H14.5275V8.5829C13.4253 8.68748 12.5433 9.05702 11.8821 9.69266C11.2209 10.3277 10.8903 11.1359 10.8903 12.1161C10.8903 12.7024 10.9833 13.2009 11.1686 13.6128C11.3539 14.0248 11.6212 14.3873 11.9693 14.7005C12.3173 15.0137 12.7321 15.2897 13.2138 15.5273C13.57 15.7034 13.95 15.8777 14.3538 16.0502V19.2523C14.1371 19.1663 13.9523 19.0344 13.8012 18.856C13.5084 18.5109 13.362 18.0077 13.362 17.3459H10.429C10.429 18.5469 10.7671 19.5143 11.4428 20.2482C12.1186 20.982 13.0889 21.4154 14.3538 21.5491V23.3073H15.7378V21.5578C16.8226 21.4532 17.6796 21.0877 18.3094 20.4614C18.9387 19.835 19.2536 19.0257 19.2536 18.0333C19.2536 17.4476 19.1548 16.9456 18.9578 16.5278C18.7603 16.1101 18.4878 15.7446 18.1397 15.4314L18.138 15.432ZM13.8303 12.1335C13.8303 11.71 13.936 11.3782 14.1481 11.1371C14.2533 11.0174 14.3793 10.9279 14.5269 10.8681V13.431C14.3968 13.3409 14.2864 13.2491 14.1963 13.1562C13.9529 12.904 13.8309 12.5629 13.8309 12.1335H13.8303ZM15.9801 19.0216C15.908 19.0966 15.8261 19.1581 15.7366 19.2093V16.7457C15.8325 16.8195 15.9138 16.8951 15.9801 16.9717C16.2061 17.2326 16.3194 17.5929 16.3194 18.0507C16.3194 18.4627 16.2061 18.7863 15.9801 19.021V19.0216Z" fill="#FDD835"/>
<g id="Shade_2">
<path id="Vector_11" opacity="0.5" d="M11.8803 9.69322C12.2371 9.351 12.6578 9.08547 13.1423 8.8978L11.0623 10.9779C11.2232 10.4916 11.4957 10.0628 11.8803 9.69322Z" fill="white"/>
<path id="Vector_12" opacity="0.5" d="M15.2928 6.74686L14.5259 7.51381V6.74686H15.2928Z" fill="white"/>
<path id="Vector_13" opacity="0.5" d="M18.9317 16.479L13.9197 21.4909C12.864 21.3114 12.0378 20.8977 11.4411 20.2493C11.0541 19.8292 10.7781 19.3324 10.6125 18.759L12.0244 17.3471H13.3596C13.3596 18.0083 13.5061 18.512 13.7995 18.8571C14.0923 19.2023 14.5083 19.3748 15.0481 19.3748C15.4426 19.3748 15.7529 19.2569 15.9795 19.0222C16.2061 18.7874 16.3188 18.4638 16.3188 18.0518C16.3188 17.5934 16.2061 17.2343 15.9795 16.9729C15.7529 16.7114 15.3555 16.4651 14.7872 16.2332C14.3822 16.0682 13.9999 15.9015 13.6391 15.733L15.456 13.9161C15.9638 14.134 16.4443 14.3594 16.8981 14.593C17.3763 14.8394 17.79 15.1194 18.1386 15.4326C18.4721 15.7336 18.737 16.0822 18.9323 16.479H18.9317Z" fill="white"/>
<path id="Vector_14" opacity="0.5" d="M19.3216 12.6565H16.7151L18.8312 10.5404C19.1583 11.1417 19.321 11.8477 19.321 12.6565H19.3216Z" fill="white"/>
<path id="Vector_15" opacity="0.5" d="M10.4272 17.3465H10.8613L10.4418 17.766C10.4319 17.63 10.4272 17.49 10.4272 17.3465Z" fill="white"/>
<path id="Vector_16" opacity="0.5" d="M14.1951 13.1567C14.3182 13.2846 14.4792 13.4089 14.6779 13.5303L12.8645 15.3437C12.5275 15.1502 12.2289 14.937 11.9674 14.7017C11.8657 14.6099 11.7704 14.5134 11.6821 14.4129L13.8331 12.262C13.8552 12.6327 13.976 12.9307 14.1951 13.1573V13.1567Z" fill="white"/>
<path id="Vector_17" opacity="0.5" d="M18.3512 9.85828L16.3042 11.9046C16.2467 11.6513 16.1561 11.4381 16.0317 11.2644C15.8481 11.0075 15.6029 10.8524 15.2961 10.799L17.1293 8.96582C17.604 9.17964 18.0113 9.4777 18.3506 9.85886L18.3512 9.85828Z" fill="white"/>
<path id="Vector_18" opacity="0.5" d="M15.022 23.3078L15.7361 22.5943V23.3078H15.022Z" fill="white"/>
<path id="Vector_19" opacity="0.5" d="M19.0566 19.2738C18.9008 19.7246 18.6504 20.1203 18.3076 20.462C17.9648 20.8036 17.5546 21.0674 17.0764 21.2539L19.0566 19.2738Z" fill="white"/>
<path id="Vector_20" opacity="0.25" d="M24.5937 8.59569C17.0468 11.2452 10.9902 17.0641 8.02173 24.4548C7.76202 24.266 7.51043 24.0661 7.26814 23.8563C5.50996 21.8158 4.44727 19.1587 4.44727 16.2542C4.44727 9.81817 9.66546 4.59998 16.1015 4.59998C19.006 4.59998 21.6631 5.66267 23.7036 7.42086C24.0243 7.79271 24.3218 8.1849 24.5943 8.59569H24.5937Z" fill="white"/>
</g>
</g>
</g>
</g>
</g>
</svg>
