<svg width="16" height="15" viewBox="0 0 16 15" fill="none" xmlns="http://www.w3.org/2000/svg">
<g id="Group 10228">
<g id="Currency">
<g id="Dollar">
<g id="Coin">
<g id="Bottom">
<path id="Vector" d="M8.17192 14.6773C12.2249 14.6773 15.5106 11.3917 15.5106 7.33866C15.5106 3.28563 12.2249 0 8.17192 0C4.11888 0 0.833252 3.28563 0.833252 7.33866C0.833252 11.3917 4.11888 14.6773 8.17192 14.6773Z" fill="#FDD835"/>
<path id="Vector_2" opacity="0.5" d="M8.17192 0C4.11902 0 0.833252 3.28577 0.833252 7.33866C0.833252 11.3916 4.11902 14.6773 8.17192 14.6773C12.2248 14.6773 15.5106 11.3916 15.5106 7.33866C15.5106 3.28577 12.2248 0 8.17192 0ZM8.17192 14.362C4.29303 14.362 1.14859 11.2176 1.14859 7.33866C1.14859 3.45978 4.29303 0.315333 8.17192 0.315333C12.0508 0.315333 15.1952 3.45978 15.1952 7.33866C15.1952 11.2176 12.0508 14.362 8.17192 14.362Z" fill="white"/>
</g>
<g id="Shade">
<path id="Vector_3" opacity="0.5" d="M11.0997 0.60724L1.44049 10.2665C1.11771 9.52515 0.913312 8.71933 0.852539 7.87453L8.70778 0.0192871C9.55258 0.0800604 10.3584 0.284454 11.0997 0.60724Z" fill="white"/>
<path id="Vector_4" opacity="0.5" d="M14.5672 3.73668L4.56996 13.7339C3.94818 13.383 3.38287 12.9441 2.89038 12.4339L13.2671 2.0571C13.7774 2.54959 14.2166 3.1149 14.5672 3.73668Z" fill="white"/>
<path id="Vector_5" opacity="0.5" d="M12.9672 1.78367L2.61657 12.1341C2.45461 11.9469 2.3021 11.7511 2.15991 11.5478L12.381 1.32672C12.584 1.46891 12.7798 1.62141 12.9672 1.78367Z" fill="white"/>
<path id="Vector_6" opacity="0.5" d="M15.2805 5.50747L6.34076 14.4472C6.07072 14.3778 5.80699 14.2935 5.54956 14.1952L15.0282 4.71655C15.1265 4.97369 15.2111 5.23771 15.2802 5.50775L15.2805 5.50747Z" fill="white"/>
<path id="Vector_7" opacity="0.5" d="M14.1336 7.65631C14.1336 10.8317 11.5591 13.4063 8.38365 13.4063C6.59973 13.4063 5.005 12.5939 3.95093 11.3185C5.00099 12.4537 6.50369 13.1643 8.17181 13.1643C11.3472 13.1643 13.9218 10.5898 13.9218 7.41436C13.9218 6.02317 13.4276 4.74693 12.6048 3.7522C13.554 4.77789 14.1336 6.1493 14.1336 7.65631Z" fill="white"/>
</g>
<g id="Top">
<path id="Vector_8" d="M8.17183 13.1643C11.3474 13.1643 13.9218 10.59 13.9218 7.41436C13.9218 4.23874 11.3474 1.6644 8.17183 1.6644C4.99622 1.6644 2.42188 4.23874 2.42188 7.41436C2.42188 10.59 4.99622 13.1643 8.17183 13.1643Z" fill="#F39E09"/>
<path id="Vector_9" d="M12.5292 3.66246C11.5221 2.79444 10.2109 2.26984 8.77727 2.26984C5.60187 2.26984 3.02731 4.84439 3.02731 8.0198C3.02731 9.45342 3.5522 10.7646 4.41994 11.7717C3.19645 10.717 2.42188 9.15614 2.42188 7.41436C2.42188 4.23895 4.99643 1.6644 8.17183 1.6644C9.91333 1.6644 11.4745 2.43868 12.5292 3.66246Z" fill="#E88102"/>
</g>
</g>
<g id="Icon">
<path id="Bottom_2" d="M7.81327 5.94892C7.70892 6.06789 7.65646 6.23157 7.65646 6.44027C7.65646 6.64896 7.71666 6.82039 7.83677 6.94509C7.95717 7.0695 8.15039 7.18847 8.4167 7.30141C8.68273 7.41465 8.93385 7.53189 9.17035 7.65373C9.40627 7.77527 9.61038 7.91345 9.78238 8.06796C9.95409 8.22247 10.0885 8.40279 10.1857 8.60861C10.2224 8.68601 10.3311 8.83537 10.3311 8.83537C10.3311 8.83537 10.3319 9.33933 10.3319 9.35165C10.3319 9.84099 10.1763 10.2406 9.8658 10.5493C9.55534 10.8587 9.13222 11.039 8.5973 11.0906V11.9537H7.91446V11.0863C7.29039 11.0203 6.81165 10.8068 6.47826 10.4444C6.14487 10.0821 5.97803 9.60507 5.97803 9.01253V8.55845L7.42483 9.01253C7.42483 9.33875 7.49707 9.58729 7.64184 9.75757C7.78632 9.92785 7.99157 10.013 8.25789 10.013C8.45253 10.013 8.60561 9.9548 8.71741 9.83899C8.82921 9.72317 8.88483 9.5635 8.88483 9.36025C8.88483 9.13407 8.82921 8.95691 8.71741 8.82791C8.60561 8.69891 8.40953 8.57737 8.12917 8.46299C7.84853 8.34861 7.58967 8.23279 7.35202 8.11526C7.11437 7.99773 6.90998 7.86185 6.73798 7.70733C6.56627 7.55282 6.4344 7.37394 6.34295 7.17041C6.25122 6.96745 6.20564 6.7212 6.20564 6.43195V5.95121C6.20564 5.95121 6.47597 5.44668 6.69498 5.23655C7.02149 4.92294 7.45637 4.74062 8.00017 4.68902V3.78287H8.68301V4.70593C9.20675 4.78333 9.61841 4.99891 9.9174 5.35237C10.1221 5.59403 10.3663 6.24447 10.3663 6.24447V6.69855H8.91521C8.91521 6.40071 8.85759 6.17195 8.74321 6.0117C8.62883 5.85117 8.46543 5.77119 8.25387 5.77119C8.06467 5.77119 7.9179 5.83081 7.81355 5.94949L7.81327 5.94892Z" fill="#DB6704"/>
<path id="Vector_10" d="M9.78201 7.61386C9.6103 7.45935 9.40619 7.32117 9.17026 7.19963C9.0146 7.11936 8.85177 7.04139 8.68293 6.96485V5.48536C8.70414 5.50715 8.72421 5.53094 8.74313 5.55731C8.85751 5.71756 8.91484 5.94661 8.91484 6.24417H10.3662C10.3662 5.70036 10.2166 5.25173 9.9176 4.89798C9.61832 4.54452 9.20695 4.32895 8.68321 4.25183V3.32877H8.00066V4.23463C7.45686 4.28623 7.0217 4.46855 6.69547 4.78217C6.36924 5.09549 6.20613 5.49425 6.20613 5.97785C6.20613 6.2671 6.252 6.51306 6.34344 6.71631C6.43489 6.91955 6.56676 7.09843 6.73847 7.25294C6.91018 7.40746 7.11486 7.54363 7.35251 7.66087C7.52824 7.74773 7.71572 7.83373 7.91495 7.91887V9.49869C7.80802 9.45627 7.71686 9.39119 7.64233 9.30319C7.49785 9.13291 7.42561 8.88465 7.42561 8.55814H5.97852C5.97852 9.15068 6.14536 9.62798 6.47875 9.99004C6.81214 10.3521 7.29088 10.566 7.91495 10.6319V11.4993H8.59779V10.6362C9.13299 10.5846 9.55583 10.4043 9.86657 10.0952C10.177 9.78622 10.3324 9.38689 10.3324 8.89727C10.3324 8.60831 10.2837 8.36063 10.1865 8.15451C10.089 7.9484 9.95458 7.76809 9.78287 7.61357L9.78201 7.61386ZM7.65666 5.98645C7.65666 5.77747 7.70884 5.61379 7.81347 5.49482C7.86536 5.43577 7.92756 5.39162 8.00038 5.36209V6.62658C7.93616 6.58215 7.8817 6.53685 7.83726 6.49099C7.71715 6.36657 7.65695 6.1983 7.65695 5.98645H7.65666ZM8.71733 9.38489C8.68178 9.42187 8.64136 9.45225 8.59721 9.47748V8.26201C8.64452 8.29842 8.68465 8.33569 8.71733 8.37353C8.82884 8.50224 8.88474 8.67997 8.88474 8.90587C8.88474 9.10911 8.82884 9.26879 8.71733 9.3846V9.38489Z" fill="#FDD835"/>
<g id="Shade_2">
<path id="Vector_11" opacity="0.5" d="M6.69464 4.78246C6.87066 4.61361 7.0782 4.48261 7.31728 4.39001L6.29102 5.41628C6.37042 5.17634 6.50487 4.96478 6.69464 4.78246Z" fill="white"/>
<path id="Vector_12" opacity="0.5" d="M8.3784 3.32877L8 3.70717V3.32877H8.3784Z" fill="white"/>
<path id="Vector_13" opacity="0.5" d="M10.1738 8.13042L7.70104 10.6032C7.18017 10.5146 6.77253 10.3105 6.47812 9.9906C6.2872 9.78334 6.15104 9.53824 6.06934 9.2553L6.76594 8.5587H7.4247C7.4247 8.88493 7.49694 9.13347 7.6417 9.30375C7.78618 9.47403 7.99144 9.55917 8.25775 9.55917C8.4524 9.55917 8.60547 9.50098 8.71728 9.38516C8.82908 9.26935 8.88469 9.10968 8.88469 8.90643C8.88469 8.68025 8.82908 8.50309 8.71728 8.37409C8.60547 8.24509 8.4094 8.12354 8.12904 8.00916C7.92923 7.92775 7.7406 7.84548 7.56258 7.76234L8.45899 6.86594C8.70954 6.97344 8.94661 7.08466 9.17049 7.1999C9.40642 7.32145 9.61053 7.45962 9.78253 7.61414C9.94707 7.76263 10.0778 7.93463 10.1741 8.13042H10.1738Z" fill="white"/>
<path id="Vector_14" opacity="0.5" d="M10.3661 6.24448H9.08008L10.1241 5.20044C10.2855 5.49714 10.3658 5.84544 10.3658 6.24448H10.3661Z" fill="white"/>
<path id="Vector_15" opacity="0.5" d="M5.97778 8.55844H6.19192L5.98495 8.76541C5.98008 8.69833 5.97778 8.62925 5.97778 8.55844Z" fill="white"/>
<path id="Vector_16" opacity="0.5" d="M7.83676 6.49127C7.89753 6.55434 7.97694 6.61568 8.07498 6.6756L7.18029 7.57028C7.01402 7.47482 6.86668 7.36962 6.73768 7.25352C6.68751 7.20822 6.6405 7.16064 6.59692 7.11104L7.65816 6.0498C7.66906 6.2327 7.72868 6.37976 7.83676 6.49156V6.49127Z" fill="white"/>
<path id="Vector_17" opacity="0.5" d="M9.88742 4.86387L8.87749 5.87351C8.84911 5.74853 8.80439 5.64332 8.74305 5.55761C8.65246 5.4309 8.53149 5.35436 8.38013 5.32799L9.28456 4.42355C9.51877 4.52905 9.71972 4.67611 9.88713 4.86416L9.88742 4.86387Z" fill="white"/>
<path id="Vector_18" opacity="0.5" d="M8.24463 11.4996L8.59694 11.1476V11.4996H8.24463Z" fill="white"/>
<path id="Vector_19" opacity="0.5" d="M10.2355 9.50931C10.1587 9.73176 10.0351 9.92698 9.86599 10.0955C9.69686 10.2641 9.49447 10.3942 9.25854 10.4863L10.2355 9.50931Z" fill="white"/>
<path id="Vector_20" opacity="0.25" d="M12.9672 4.24094C9.24371 5.54814 6.2555 8.4191 4.79092 12.0655C4.66278 11.9723 4.53865 11.8737 4.41911 11.7702C3.55166 10.7635 3.02734 9.45254 3.02734 8.01949C3.02734 4.84408 5.6019 2.26953 8.7773 2.26953C10.2103 2.26953 11.5213 2.79384 12.528 3.6613C12.6863 3.84476 12.8331 4.03826 12.9675 4.24094H12.9672Z" fill="white"/>
</g>
</g>
</g>
</g>
</g>
</svg>
