<svg width="21" height="24" viewBox="0 0 21 24" fill="none" xmlns="http://www.w3.org/2000/svg">
<path d="M1.38385 5.20044C0.527477 5.69524 0 6.60919 0 7.59822V16.4018C0 17.3908 0.527477 18.3048 1.38385 18.7996L8.99923 23.1996C9.85642 23.6948 10.9128 23.6948 11.77 23.1996L19.3854 18.7996C20.2418 18.3048 20.7692 17.3908 20.7692 16.4018V7.59822C20.7692 6.60919 20.2418 5.69524 19.3854 5.20044L11.77 0.800444C10.9128 0.305177 9.85642 0.305177 8.99923 0.800444L1.38385 5.20044Z" fill="url(#paint0_linear_1_5333)"/>
<path fill-rule="evenodd" clip-rule="evenodd" d="M14.9191 11.5631L14.8045 12.7808C14.6157 14.7871 14.5213 15.7902 13.93 16.3951C13.3387 17 12.4524 17 10.68 17H9.32005C7.54758 17 6.66135 17 6.07004 16.3951C5.47874 15.7902 5.38432 14.7871 5.1955 12.7808L5.0809 11.5631C4.9909 10.6068 4.9459 10.1287 5.10949 9.93104C5.19799 9.82412 5.31833 9.7586 5.44699 9.7473C5.68484 9.72641 5.98354 10.0664 6.58093 10.7465C6.88988 11.0982 7.04436 11.2741 7.21668 11.3014C7.31217 11.3164 7.40946 11.3009 7.49763 11.2565C7.65675 11.1764 7.76285 10.9591 7.97503 10.5243L9.09345 8.23243C9.4944 7.41081 9.6949 7 10 7C10.3051 7 10.5056 7.41081 10.9066 8.23242L12.025 10.5243C12.2372 10.9591 12.3433 11.1764 12.5024 11.2565C12.5906 11.3009 12.6879 11.3164 12.7833 11.3014C12.9557 11.2741 13.1101 11.0982 13.4191 10.7465C14.0165 10.0664 14.3152 9.72641 14.553 9.7473C14.6817 9.7586 14.802 9.82412 14.8905 9.93104C15.0541 10.1287 15.0091 10.6068 14.9191 11.5631ZM10.4762 12.3495L10.4271 12.2614C10.2371 11.9205 10.1421 11.7501 10 11.7501C9.85795 11.7501 9.76295 11.9205 9.57295 12.2614L9.5238 12.3495C9.46985 12.4464 9.44285 12.4948 9.40075 12.5268C9.35865 12.5587 9.30625 12.5705 9.2014 12.5943L9.10595 12.6159C8.73698 12.6993 8.5525 12.7411 8.50861 12.8822C8.46472 13.0234 8.59048 13.1705 8.84201 13.4646L8.90709 13.5406C8.97856 13.6242 9.0143 13.666 9.0304 13.7178C9.04645 13.7695 9.04105 13.8252 9.03025 13.9367L9.0204 14.0382C8.98238 14.4306 8.96337 14.6269 9.07825 14.7141C9.1932 14.8014 9.3659 14.7218 9.71135 14.5627L9.8007 14.5216C9.8989 14.4764 9.94795 14.4538 10 14.4538C10.0521 14.4538 10.1011 14.4764 10.1993 14.5216L10.2887 14.5627C10.6341 14.7218 10.8068 14.8014 10.9218 14.7141C11.0367 14.6269 11.0176 14.4306 10.9796 14.0382L10.9698 13.9367C10.959 13.8252 10.9536 13.7695 10.9696 13.7178C10.9857 13.666 11.0215 13.6242 11.0929 13.5406L11.158 13.4646C11.4095 13.1705 11.5353 13.0234 11.4914 12.8822C11.4475 12.7411 11.263 12.6993 10.8941 12.6159L10.7986 12.5943C10.6938 12.5705 10.6414 12.5587 10.5993 12.5268C10.5572 12.4948 10.5302 12.4464 10.4762 12.3495Z" fill="white"/>
<defs>
<linearGradient id="paint0_linear_1_5333" x1="10.3846" y1="-4.29851" x2="10.3846" y2="24" gradientUnits="userSpaceOnUse">
<stop stop-color="#FFC700"/>
<stop offset="1" stop-color="#FF5722"/>
</linearGradient>
</defs>
</svg>
