<svg width="48" height="16" viewBox="0 0 48 16" fill="none" xmlns="http://www.w3.org/2000/svg">
<path d="M0 0H40C44.4183 0 48 3.58172 48 8V16H9C4.02944 16 0 11.9706 0 7V0Z" fill="url(#paint0_linear_1611_691)"/>
<path d="M4.43194 10.0648C4.12171 10.0648 3.83308 10.0118 3.56605 9.90575C3.30294 9.7958 3.07125 9.64265 2.87098 9.4463C2.67463 9.24995 2.52148 9.02219 2.41152 8.76301C2.30157 8.49991 2.24659 8.21717 2.24659 7.91479C2.24659 7.61242 2.30157 7.33164 2.41152 7.07247C2.52148 6.80936 2.67463 6.5816 2.87098 6.38918C3.06732 6.19676 3.29705 6.04753 3.56015 5.94151C3.82719 5.83155 4.11582 5.77658 4.42604 5.77658C4.75591 5.77658 5.04847 5.82959 5.30372 5.93562C5.56289 6.04164 5.78869 6.18694 5.98111 6.37151L5.36262 6.99589C5.25267 6.87808 5.11915 6.7858 4.96207 6.71904C4.80892 6.65228 4.63025 6.6189 4.42604 6.6189C4.24541 6.6189 4.07851 6.65032 3.92536 6.71315C3.77614 6.77205 3.64655 6.85845 3.53659 6.97233C3.43057 7.08621 3.34614 7.22365 3.28331 7.38466C3.2244 7.54566 3.19495 7.72237 3.19495 7.91479C3.19495 8.11114 3.2244 8.28982 3.28331 8.45082C3.34614 8.61183 3.43057 8.74927 3.53659 8.86315C3.64655 8.97703 3.77614 9.06539 3.92536 9.12822C4.07851 9.19105 4.24541 9.22247 4.42604 9.22247C4.6381 9.22247 4.82267 9.18909 4.97974 9.12233C5.13682 9.05557 5.2723 8.96329 5.38618 8.84548L6.01057 9.46986C5.81029 9.65443 5.58057 9.79973 5.32139 9.90575C5.06614 10.0118 4.76965 10.0648 4.43194 10.0648ZM8.33806 10.0707C8.0239 10.0707 7.73331 10.0157 7.46628 9.90575C7.20317 9.7958 6.97148 9.64265 6.77121 9.4463C6.57094 9.24995 6.41582 9.02219 6.30587 8.76301C6.19591 8.49991 6.14094 8.21717 6.14094 7.91479C6.14094 7.60849 6.19591 7.32575 6.30587 7.06658C6.41582 6.8074 6.56897 6.5816 6.76532 6.38918C6.96167 6.19283 7.19139 6.04164 7.4545 5.93562C7.72153 5.82566 8.01212 5.77068 8.32628 5.77068C8.63651 5.77068 8.92317 5.82566 9.18628 5.93562C9.45331 6.04164 9.685 6.19283 9.88135 6.38918C10.0816 6.5816 10.2367 6.80936 10.3467 7.07247C10.4566 7.33164 10.5116 7.61438 10.5116 7.92068C10.5116 8.22306 10.4566 8.5058 10.3467 8.7689C10.2367 9.02808 10.0836 9.25584 9.88724 9.45219C9.69089 9.64461 9.4592 9.7958 9.19217 9.90575C8.92906 10.0157 8.64436 10.0707 8.33806 10.0707ZM8.32628 9.22836C8.57368 9.22836 8.78966 9.17338 8.97422 9.06342C9.16272 8.95347 9.30801 8.80032 9.41011 8.60397C9.51222 8.4037 9.56327 8.17397 9.56327 7.91479C9.56327 7.71845 9.53381 7.54174 9.47491 7.38466C9.41601 7.22365 9.33158 7.08621 9.22162 6.97233C9.11167 6.85452 8.98011 6.76616 8.82696 6.70726C8.67774 6.64443 8.51085 6.61301 8.32628 6.61301C8.07888 6.61301 7.86094 6.66799 7.67244 6.77794C7.48788 6.88397 7.34454 7.03516 7.24244 7.23151C7.14034 7.42393 7.08929 7.65169 7.08929 7.91479C7.08929 8.11114 7.11874 8.28982 7.17765 8.45082C7.23655 8.61183 7.31902 8.75123 7.42505 8.86904C7.535 8.98292 7.66655 9.07128 7.8197 9.13411C7.97285 9.19694 8.14171 9.22836 8.32628 9.22836ZM11.0987 10V5.84137H11.7584L13.3959 8.39192H13.0602L14.6918 5.84137H15.3575V10H14.4327V7.40233L14.5976 7.44356L13.5314 9.10466H12.9188L11.8585 7.44356L12.0176 7.40233V10H11.0987ZM16.155 10V5.84137H17.0798V10H16.155ZM17.8807 10V5.84137H18.5287L18.8055 6.67192V10H17.8807ZM20.7493 10L18.2989 6.86041L18.5287 5.84137L20.9791 8.98096L20.7493 10ZM20.7493 10L20.5019 9.16945V5.84137H21.4267V10H20.7493ZM24.191 10.0648C23.8886 10.0648 23.6039 10.0098 23.3369 9.89986C23.0738 9.78991 22.8441 9.63872 22.6477 9.4463C22.4514 9.24995 22.2962 9.02219 22.1824 8.76301C22.0724 8.49991 22.0174 8.21717 22.0174 7.91479C22.0174 7.61242 22.0744 7.33164 22.1883 7.07247C22.3021 6.81329 22.4592 6.58749 22.6595 6.39507C22.8637 6.19872 23.1013 6.04753 23.3722 5.94151C23.6432 5.83155 23.9338 5.77658 24.244 5.77658C24.6014 5.77658 24.9253 5.84137 25.2159 5.97096C25.5104 6.10055 25.7539 6.27922 25.9463 6.50699L25.3161 7.13726C25.1825 6.96447 25.0255 6.83489 24.8448 6.74849C24.6642 6.6621 24.46 6.6189 24.2322 6.6189C23.9888 6.6189 23.7708 6.67388 23.5784 6.78384C23.386 6.88986 23.2348 7.04105 23.1248 7.2374C23.0188 7.42982 22.9658 7.65562 22.9658 7.91479C22.9658 8.17397 23.0188 8.40174 23.1248 8.59808C23.2309 8.79443 23.3762 8.94758 23.5607 9.05753C23.7453 9.16749 23.9573 9.22247 24.1969 9.22247C24.4404 9.22247 24.6465 9.17731 24.8154 9.08699C24.9882 8.99274 25.1197 8.85922 25.21 8.68644C25.3043 8.50973 25.3514 8.29571 25.3514 8.04438L25.964 8.45671L24.1085 8.42726V7.64384H26.2939V7.77932C26.2939 8.27804 26.2036 8.69822 26.0229 9.03986C25.8462 9.37758 25.5988 9.63283 25.2807 9.80562C24.9666 9.9784 24.6033 10.0648 24.191 10.0648ZM29.2249 10.0648C28.8832 10.0648 28.5887 10.0098 28.3413 9.89986C28.0978 9.78598 27.874 9.61516 27.6698 9.3874L28.2706 8.79247C28.4041 8.94562 28.5514 9.06539 28.7124 9.15178C28.8773 9.23425 29.0678 9.27548 29.2838 9.27548C29.4801 9.27548 29.6313 9.24014 29.7373 9.16945C29.8473 9.09877 29.9023 9.00059 29.9023 8.87493C29.9023 8.76105 29.8669 8.66877 29.7962 8.59808C29.7255 8.5274 29.6313 8.46653 29.5135 8.41548C29.3996 8.36443 29.272 8.31534 29.1306 8.26822C28.9932 8.2211 28.8557 8.16808 28.7183 8.10918C28.5808 8.04635 28.4532 7.96977 28.3354 7.87945C28.2215 7.78521 28.1292 7.66936 28.0586 7.53192C27.9879 7.39055 27.9525 7.21384 27.9525 7.00178C27.9525 6.74653 28.0134 6.52662 28.1351 6.34205C28.2608 6.15749 28.4336 6.01808 28.6535 5.92384C28.8734 5.82566 29.1267 5.77658 29.4134 5.77658C29.7039 5.77658 29.969 5.82763 30.2086 5.92973C30.452 6.03183 30.6523 6.17123 30.8094 6.34795L30.2086 6.94288C30.0829 6.81329 29.9553 6.71708 29.8257 6.65425C29.7 6.59142 29.5567 6.56 29.3957 6.56C29.2347 6.56 29.1071 6.59142 29.0128 6.65425C28.9186 6.71315 28.8714 6.79954 28.8714 6.91342C28.8714 7.01945 28.9068 7.10584 28.9775 7.1726C29.0481 7.23543 29.1404 7.29041 29.2543 7.33753C29.3721 7.38466 29.4997 7.43178 29.6372 7.4789C29.7786 7.52603 29.918 7.581 30.0554 7.64384C30.1929 7.70667 30.3185 7.78717 30.4324 7.88534C30.5502 7.97959 30.6444 8.10132 30.7151 8.25055C30.7858 8.39584 30.8212 8.57648 30.8212 8.79247C30.8212 9.18909 30.6798 9.50128 30.3971 9.72904C30.1143 9.95288 29.7236 10.0648 29.2249 10.0648ZM33.4298 10.0707C33.1157 10.0707 32.8251 10.0157 32.558 9.90575C32.2949 9.7958 32.0633 9.64265 31.863 9.4463C31.6627 9.24995 31.5076 9.02219 31.3976 8.76301C31.2877 8.49991 31.2327 8.21717 31.2327 7.91479C31.2327 7.60849 31.2877 7.32575 31.3976 7.06658C31.5076 6.8074 31.6607 6.5816 31.8571 6.38918C32.0534 6.19283 32.2832 6.04164 32.5463 5.93562C32.8133 5.82566 33.1039 5.77068 33.4181 5.77068C33.7283 5.77068 34.0149 5.82566 34.278 5.93562C34.5451 6.04164 34.7768 6.19283 34.9731 6.38918C35.1734 6.5816 35.3285 6.80936 35.4385 7.07247C35.5484 7.33164 35.6034 7.61438 35.6034 7.92068C35.6034 8.22306 35.5484 8.5058 35.4385 8.7689C35.3285 9.02808 35.1754 9.25584 34.979 9.45219C34.7827 9.64461 34.551 9.7958 34.2839 9.90575C34.0208 10.0157 33.7361 10.0707 33.4298 10.0707ZM33.4181 9.22836C33.6654 9.22836 33.8814 9.17338 34.066 9.06342C34.2545 8.95347 34.3998 8.80032 34.5019 8.60397C34.604 8.4037 34.655 8.17397 34.655 7.91479C34.655 7.71845 34.6256 7.54174 34.5667 7.38466C34.5078 7.22365 34.4233 7.08621 34.3134 6.97233C34.2034 6.85452 34.0719 6.76616 33.9187 6.70726C33.7695 6.64443 33.6026 6.61301 33.4181 6.61301C33.1707 6.61301 32.9527 6.66799 32.7642 6.77794C32.5796 6.88397 32.4363 7.03516 32.3342 7.23151C32.2321 7.42393 32.1811 7.65169 32.1811 7.91479C32.1811 8.11114 32.2105 8.28982 32.2694 8.45082C32.3283 8.61183 32.4108 8.75123 32.5168 8.86904C32.6268 8.98292 32.7583 9.07128 32.9115 9.13411C33.0646 9.19694 33.2335 9.22836 33.4181 9.22836ZM38.233 10.0707C37.9189 10.0707 37.6283 10.0157 37.3613 9.90575C37.0982 9.7958 36.8665 9.64265 36.6662 9.4463C36.4659 9.24995 36.3108 9.02219 36.2009 8.76301C36.0909 8.49991 36.0359 8.21717 36.0359 7.91479C36.0359 7.60849 36.0909 7.32575 36.2009 7.06658C36.3108 6.8074 36.464 6.5816 36.6603 6.38918C36.8567 6.19283 37.0864 6.04164 37.3495 5.93562C37.6165 5.82566 37.9071 5.77068 38.2213 5.77068C38.5315 5.77068 38.8182 5.82566 39.0813 5.93562C39.3483 6.04164 39.58 6.19283 39.7763 6.38918C39.9766 6.5816 40.1317 6.80936 40.2417 7.07247C40.3516 7.33164 40.4066 7.61438 40.4066 7.92068C40.4066 8.22306 40.3516 8.5058 40.2417 8.7689C40.1317 9.02808 39.9786 9.25584 39.7822 9.45219C39.5859 9.64461 39.3542 9.7958 39.0872 9.90575C38.824 10.0157 38.5393 10.0707 38.233 10.0707ZM38.2213 9.22836C38.4687 9.22836 38.6846 9.17338 38.8692 9.06342C39.0577 8.95347 39.203 8.80032 39.3051 8.60397C39.4072 8.4037 39.4582 8.17397 39.4582 7.91479C39.4582 7.71845 39.4288 7.54174 39.3699 7.38466C39.311 7.22365 39.2266 7.08621 39.1166 6.97233C39.0067 6.85452 38.8751 6.76616 38.7219 6.70726C38.5727 6.64443 38.4058 6.61301 38.2213 6.61301C37.9739 6.61301 37.7559 6.66799 37.5674 6.77794C37.3829 6.88397 37.2395 7.03516 37.1374 7.23151C37.0353 7.42393 36.9843 7.65169 36.9843 7.91479C36.9843 8.11114 37.0137 8.28982 37.0726 8.45082C37.1315 8.61183 37.214 8.75123 37.32 8.86904C37.43 8.98292 37.5615 9.07128 37.7147 9.13411C37.8678 9.19694 38.0367 9.22836 38.2213 9.22836ZM40.9937 10V5.84137H41.6416L41.9185 6.67192V10H40.9937ZM43.8623 10L41.4119 6.86041L41.6416 5.84137L44.092 8.98096L43.8623 10ZM43.8623 10L43.6149 9.16945V5.84137H44.5397V10H43.8623Z" fill="white"/>
<defs>
<linearGradient id="paint0_linear_1611_691" x1="0" y1="8" x2="48" y2="8" gradientUnits="userSpaceOnUse">
<stop stop-color="#D63D01"/>
<stop offset="0.49" stop-color="#FD7D00"/>
<stop offset="0.92" stop-color="#D03601"/>
</linearGradient>
</defs>
</svg>
