<svg width="14" height="26" viewBox="0 0 14 26" fill="none" xmlns="http://www.w3.org/2000/svg">
<path d="M13.4269 2.02968V3.43299L0.0158691 3.41772V2.01442C0.0158691 1.73987 0.513248 1.48056 1.34809 1.2772C5.10121 0.342992 13.2317 0.810973 13.421 1.99409C13.4269 2.00427 13.4269 2.01951 13.4269 2.02968Z" fill="#095DA4"/>
<path d="M13.4242 3.43448C13.425 2.74736 10.4231 2.18676 6.7193 2.18237C3.01549 2.17797 0.0123019 2.73144 0.0114864 3.41856C0.0106709 4.10569 3.01254 4.66628 6.71635 4.67068C10.4202 4.67507 13.4233 4.12161 13.4242 3.43448Z" fill="#19345D"/>
<path d="M13.5216 22.54V23.9433C13.5216 25.0679 6.17026 25.5912 2.04081 24.8128C0.85072 24.5891 0.110596 24.2789 0.110596 23.9433V22.54H13.5216Z" fill="#095DA4"/>
<path d="M6.81499 23.7825C10.5188 23.7825 13.5213 23.2255 13.5213 22.5383C13.5213 21.8512 10.5188 21.2942 6.81499 21.2942C3.11117 21.2942 0.108643 21.8512 0.108643 22.5383C0.108643 23.2255 3.11117 23.7825 6.81499 23.7825Z" fill="#19345D"/>
<path d="M12.5034 3.70256V3.81444L12.4974 6.74307V7.1244C12.4915 8.05991 11.9408 8.94459 10.9935 9.42253C7.6766 11.1247 7.69833 15.2315 10.9817 16.9373C11.6211 17.2576 12.077 17.7711 12.3079 18.3559C12.4145 18.6355 12.4737 18.9355 12.4737 19.2405C12.4736 19.2927 12.4674 22.5283 12.4678 22.3268C12.4678 22.9166 9.8981 23.3894 6.73627 23.3843C3.57448 23.3843 1.0166 22.9013 1.0166 22.3115L1.02253 18.9507C1.02253 18.0457 1.56725 17.2322 2.4258 16.6932C5.2218 14.9461 5.18389 11.3495 2.43766 9.64625C1.5791 9.1073 1.04027 8.29381 1.04027 7.38368L1.0462 3.69242C1.0462 3.10261 3.61 2.62976 6.77183 2.62976C9.93955 2.63485 12.5034 3.11788 12.5034 3.70256Z" fill="#F2F8FD"/>
<path d="M1.88108 8.28872C2.71 9.56491 4.27315 10.4801 4.73501 11.8834C5.02616 12.7544 4.81321 14.6258 4.19617 15.5442C4.0363 15.7781 3.69883 15.9458 3.47383 16.1391C2.19676 17.2113 1.33658 18.7846 1.28305 20.4455C1.25935 21.437 1.62648 22.281 2.7633 22.6624C3.33762 22.8505 3.95343 22.8911 4.56327 22.9318C7.23958 23.1149 10.0816 23.2674 12.4678 22.2098V22.3268C12.4678 22.9166 9.8981 23.3894 6.73627 23.3843C3.57448 23.3843 1.0166 22.9013 1.0166 22.3115L1.02253 18.9507C1.02253 18.0457 1.56725 17.2322 2.4258 16.6932C5.2218 14.9461 5.18389 11.3495 2.43766 9.64625C1.5791 9.1073 1.04027 8.29381 1.04027 7.38368L1.0462 3.69242C1.0462 3.10261 3.61 2.62976 6.77183 2.62976C9.93955 2.63485 12.5034 3.11788 12.5034 3.70256V3.81444C10.691 2.83211 8.28778 3.07571 6.36328 2.96026C5.71195 2.92467 5.06065 2.85348 4.41525 2.87889C3.73436 2.90431 2.71593 3.02633 2.26592 3.51444C1.10889 4.75899 0.851478 6.71355 1.88108 8.28872Z" fill="#D0DCEE"/>
<path d="M9.175 6.81925C9.4809 6.87137 9.80353 6.94737 10.0092 7.14865C10.3027 7.43581 10.347 7.95724 9.78737 8.52073C9.01775 9.29566 7.79091 9.611 6.61437 9.73969C4.19179 10.0047 3.75536 9.22569 2.86425 8.58919C2.69189 8.46608 2.53129 8.33085 2.38466 8.18522C2.27046 8.0718 2.3065 8.01291 2.41447 7.96639C3.15681 7.64654 3.88186 7.28655 4.6724 7.06441C6.1115 6.66002 7.67785 6.5642 9.175 6.81925Z" fill="#FB6822"/>
<path d="M2.66821 8.15978C4.83898 8.58377 7.20668 8.20172 9.05014 7.12999C9.17538 7.05718 9.30076 6.9803 9.44482 6.94076C10.2278 6.72586 10.3628 7.7961 9.03817 8.8041C7.26087 10.1566 5.10478 9.95156 3.96111 8.70791" fill="black"/>
<path d="M7.86883 13.279C7.85327 13.9301 8.0305 14.5331 8.21983 14.8637C8.28426 14.9761 8.44273 15.0913 8.44723 15.2167C8.09598 15.2998 7.67525 15.0927 7.50378 14.8334C7.2654 14.4729 7.3884 14.0116 7.22536 13.6214C7.11577 13.359 6.87116 13.4039 6.82751 13.5854C6.81021 13.6573 6.82733 13.7315 6.83891 13.8042C6.89589 14.1622 6.81694 14.7634 6.45862 14.7549C6.28823 14.7508 6.13639 14.5874 5.97831 14.6421C5.87352 14.6784 5.84091 14.7885 5.80401 14.8802C5.73621 15.0487 5.59137 15.209 5.38842 15.2466C5.20931 15.2798 4.95889 15.1679 4.97305 14.994C4.97854 14.9264 5.0489 14.8302 5.06784 14.7592C6.24013 10.3619 3.27619 9.93049 2.3014 8.02827C3.03847 8.30777 3.82706 8.46583 4.6147 8.61163C5.40234 8.75744 6.24746 8.75983 6.99015 8.49153C8.21345 8.04963 8.9885 6.95603 10.2754 6.6352C11.5066 6.32827 12.5822 7.18884 11.4753 8.06634C9.74015 9.44191 7.9216 11.0708 7.86883 13.279ZM11.5478 22.4839C11.2507 22.6571 10.8953 22.7254 10.5452 22.7846C8.95293 23.0347 7.41016 23.1315 5.6434 23.0169C4.51876 22.944 3.35166 22.8302 2.27475 22.5386C1.93526 22.4475 1.52146 22.1377 1.67001 21.8052C1.76018 21.5956 2.02012 21.4863 2.26416 21.4089C2.60896 21.2995 2.91135 21.1219 3.22435 20.9624C4.47628 20.3132 4.79417 18.5905 4.8848 17.1815C4.89011 16.9582 5.06515 16.8763 5.28267 16.94C5.51078 17.0038 5.63809 17.2179 5.7495 17.4183C5.92985 17.7828 6.0731 18.17 6.16327 18.5663C6.18979 18.6711 6.21103 18.7804 6.27469 18.8715C6.33834 18.9626 6.46035 19.0264 6.57707 19.0036C6.70438 18.9763 6.77335 18.8533 6.87415 18.7713C6.98553 18.6756 7.13408 18.6438 7.28792 18.6574C7.71767 18.6722 7.97477 19.0438 8.20569 19.3544C8.5558 19.8509 9.06509 20.2108 9.65924 20.4431C10.1649 20.6421 10.865 20.681 11.3144 20.9123C11.5902 21.049 11.8342 21.254 11.9404 21.5091C12.0889 21.8644 11.9032 22.2789 11.5478 22.4839ZM5.62477 16.543C5.46937 16.6789 5.19496 16.4961 5.12754 16.3452C5.01092 16.084 5.29774 15.5844 5.55671 15.9013C5.68303 16.0559 5.78605 16.4019 5.62477 16.543ZM3.75377 17.271C3.64091 17.3698 3.44162 17.237 3.39266 17.1274C3.30797 16.9377 3.51627 16.5749 3.70434 16.805C3.79608 16.9173 3.8709 17.1686 3.75377 17.271Z" fill="#FE8B2E"/>
<path d="M5.08157 10.2638C5.0472 10.0499 5.32972 9.89741 5.63748 10.1568C6.05598 10.5096 5.70478 10.9274 5.33488 10.6029C5.22799 10.5091 5.10438 10.4058 5.08157 10.2638ZM5.55869 9.46054C5.53898 9.3379 5.70093 9.25049 5.87735 9.39921C6.1162 9.60056 5.91693 9.84181 5.70389 9.65489C5.64262 9.60113 5.57176 9.54191 5.55869 9.46054ZM11.55 22.4837C11.248 22.6566 10.8928 22.7227 10.5434 22.7837C7.43753 23.295 4.05408 23.019 2.27178 22.5397C1.93428 22.4481 1.5198 22.138 1.66783 21.8024C1.76045 21.5937 2.04787 21.4764 2.26585 21.4109C2.60928 21.2991 2.91126 21.1211 3.22505 20.9635C4.47377 20.3082 4.79286 18.5924 4.88296 17.1807C4.88885 16.957 5.06651 16.8756 5.28558 16.9417C5.51059 17.0027 5.64083 17.2163 5.7474 17.4197C5.93095 17.7806 6.07305 18.1671 6.16188 18.5637C6.19148 18.6704 6.20926 18.7823 6.27438 18.8687C6.3395 18.9602 6.45793 19.0263 6.57636 19.0009C6.81874 18.9536 6.80748 18.6235 7.28688 18.6552C7.04936 18.8484 7.13367 19.2088 6.87241 19.3823C6.61188 19.5653 6.20333 19.367 6.04938 19.1077C5.89543 18.8484 5.89543 18.5382 5.7474 18.2739C5.53912 17.8748 4.974 17.8856 5.06651 18.584C5.25086 20.1096 4.62382 21.0344 3.72243 21.3855C3.47965 21.4821 3.15993 21.5838 3.14219 21.8075C3.13033 22.016 3.379 22.1533 3.59808 22.2397C4.53953 22.5905 5.57571 22.7685 6.60003 22.738C6.83096 22.7278 7.06781 22.7176 7.27503 22.621C7.91085 22.3159 7.48298 21.8639 7.41713 21.7414C7.34015 21.6092 7.30463 21.4363 7.42305 21.3245C7.5237 21.233 7.7191 21.233 7.85528 21.3041C7.98556 21.3702 8.0862 21.4872 8.18685 21.5889C8.57766 22.0058 9.11645 22.3566 9.73815 22.4125C10.3658 22.4583 11.0467 22.1278 11.1711 21.6041C11.2243 21.3652 11.1769 21.1008 11.2303 20.8771C11.2539 20.8822 11.2894 20.8974 11.3132 20.9127C11.5914 21.0499 11.8342 21.2533 11.9408 21.5075C12.0961 21.879 11.8841 22.2925 11.55 22.4837Z" fill="#FB6822"/>
<path d="M5.98343 21.1553C6.13066 21.2207 6.21621 21.1596 6.17838 21.0075C6.03906 20.4475 5.30662 20.2271 5.44506 20.6095C5.53924 20.8696 5.73142 21.0434 5.98343 21.1553ZM6.54266 20.4348C6.72589 20.5162 6.62166 20.1749 6.38003 20.1006C6.30255 20.0768 6.27488 20.1275 6.29533 20.184C6.3386 20.3035 6.42689 20.3834 6.54266 20.4348Z" fill="#FB6822"/>
<path d="M4.77937 5.32714C3.98914 5.80283 3.04636 5.06326 3.34488 4.2034C3.44841 3.89526 3.70519 3.64256 4.05405 3.55261C4.05576 3.55157 4.05849 3.55225 4.06123 3.55293C4.34079 3.48263 4.63457 3.53669 4.86407 3.69709L4.8651 3.6988C5.4218 4.08583 5.4008 4.94997 4.77937 5.32714Z" fill="#28B6F4"/>
<path d="M4.77937 5.32731C3.98914 5.80301 3.04636 5.06343 3.34488 4.20358C3.35282 4.23613 3.3652 4.26832 3.38101 4.29845C3.70258 4.88397 4.70579 4.48375 4.82564 3.90466C4.83926 3.83815 4.84498 3.76241 4.8651 3.69897C5.4218 4.086 5.4008 4.95015 4.77937 5.32731Z" fill="#095DA4"/>
<path d="M6.61489 4.02182C6.61593 4.02354 6.61695 4.02524 6.61731 4.02969C6.62005 4.03038 6.62108 4.0321 6.62041 4.03483L6.62143 4.03654C6.62246 4.03825 6.62246 4.03825 6.62178 4.041C6.65992 4.116 6.67479 4.20268 6.66705 4.29832C6.63072 4.77268 6.0443 5.45688 5.1756 5.98214C4.88695 6.15357 4.59756 6.29277 4.32492 6.39393C3.88222 6.5631 3.06937 6.74596 2.7837 6.36771L2.7734 6.35059C2.77237 6.34888 2.77134 6.34716 2.77134 6.34716C2.69632 6.12307 3.29715 5.51956 3.48551 5.37146C3.99391 4.92106 4.66654 4.49775 5.36771 4.21279C5.90751 3.99748 6.34811 3.91185 6.5336 3.96813C6.57131 3.98041 6.59943 3.99614 6.61489 4.02182Z" fill="#FF9F1C"/>
<path d="M2.78101 6.36646C2.86769 6.50933 2.82645 6.5403 3.08145 6.41151C3.96333 5.9661 6.68289 4.29267 6.69443 4.1778C6.69757 4.14651 6.68697 4.14019 6.62332 4.03528L5.5714 4.70528L5.53522 4.78468C4.98656 5.10386 4.39469 5.46466 3.99508 5.71789L3.9769 5.66779L2.78101 6.36646Z" fill="#19345D"/>
<path d="M6.61497 4.02171C6.616 4.02342 6.61703 4.02513 6.61739 4.02958C6.62012 4.03027 6.62116 4.03198 6.62048 4.03472L6.62151 4.03643C6.62254 4.03814 6.62254 4.03814 6.62186 4.04088C6.62289 4.0426 6.62221 4.04534 6.61981 4.04912C6.44835 4.27387 3.04261 6.34191 2.79099 6.36793C2.78824 6.36725 2.78653 6.36828 2.78378 6.3676L2.78275 6.36588L2.77897 6.36349C2.65929 6.16466 3.28632 5.52803 3.48559 5.37135C3.99399 4.92095 4.66662 4.49764 5.36779 4.21268C5.63287 4.10523 6.26514 3.88608 6.53368 3.96802C6.57139 3.98029 6.59951 3.99603 6.61497 4.02171Z" fill="#E2212E"/>
<path d="M6.43725 3.95132C6.29447 4.19525 5.95768 4.40106 5.72698 4.54215C3.71821 5.76641 3.80073 5.72833 3.72145 5.74006C3.59593 5.75867 3.51228 5.64443 3.63953 5.49549C3.99551 5.05851 4.52834 5.01876 5.31643 4.32511C5.37188 4.27774 5.42699 4.22592 5.47557 4.17101C5.89003 4.01482 6.2364 3.93927 6.43725 3.95132Z" fill="#F72F43"/>
<path d="M3.49791 5.28141L3.4985 5.28236C3.52565 5.32593 3.60076 5.3304 3.67013 5.28981C4.18588 4.99233 4.72218 4.65942 5.24705 4.30715C5.41027 4.19903 5.30064 4.04365 5.13904 4.14436C5.08679 4.17692 4.48922 4.63042 3.58733 5.11262C3.55051 5.13161 3.52209 5.15984 3.50514 5.1875C3.48522 5.22095 3.48198 5.25584 3.49791 5.28141Z" fill="#FFCA28"/>
<path d="M3.49791 5.28141L3.4985 5.28236C3.52565 5.32593 3.60076 5.3304 3.67013 5.28981C4.18588 4.99233 4.72218 4.65942 5.24705 4.30715C5.41027 4.19903 5.30064 4.04365 5.13904 4.14436C5.1315 4.14905 5.15329 4.13454 5.07983 4.18651C5.08154 4.37938 4.89518 4.44784 4.14222 4.94172C3.67279 5.2503 3.55601 5.17384 3.50514 5.1875C3.48522 5.22095 3.48198 5.25584 3.49791 5.28141Z" fill="#FF9F1C"/>
<path d="M3.45852 5.90093C3.54052 5.90093 3.60699 5.83446 3.60699 5.75247C3.60699 5.67047 3.54052 5.604 3.45852 5.604C3.37653 5.604 3.31006 5.67047 3.31006 5.75247C3.31006 5.83446 3.37653 5.90093 3.45852 5.90093Z" fill="black"/>
<path d="M3.5714 5.65332L3.57655 5.66189C3.66171 5.83162 3.41545 5.96774 3.318 5.80585C3.27533 5.73496 3.30005 5.64173 3.3674 5.60119C3.4376 5.55893 3.52914 5.58313 3.5714 5.65332Z" fill="#F2F8FD"/>
<path d="M3.57654 5.66199C3.66169 5.83172 3.41544 5.96783 3.31799 5.80595C3.29944 5.77514 3.2922 5.73985 3.29934 5.70523C3.35217 5.7532 3.45027 5.7679 3.51493 5.72239C3.53959 5.70522 3.55566 5.68155 3.57654 5.66199Z" fill="#D0DCEE"/>
<path d="M4.62796 5.23028C4.70995 5.23028 4.77642 5.16381 4.77642 5.08181C4.77642 4.99982 4.70995 4.93335 4.62796 4.93335C4.54596 4.93335 4.47949 4.99982 4.47949 5.08181C4.47949 5.16381 4.54596 5.23028 4.62796 5.23028Z" fill="black"/>
<path d="M4.74058 4.98206L4.74574 4.99062C4.8309 5.16035 4.58464 5.29647 4.48719 5.13459C4.44452 5.0637 4.46924 4.97046 4.53659 4.92992C4.60679 4.88766 4.69833 4.91187 4.74058 4.98206Z" fill="#F2F8FD"/>
<path d="M4.74573 4.99084C4.83088 5.16057 4.58463 5.29669 4.48718 5.13481C4.46863 5.10399 4.46138 5.06871 4.46853 5.03408C4.52135 5.08206 4.61946 5.09676 4.68412 5.05125C4.70877 5.03408 4.72485 5.01041 4.74573 4.99084Z" fill="#D0DCEE"/>
<path d="M5.7969 4.52618C5.8789 4.52618 5.94537 4.45971 5.94537 4.37771C5.94537 4.29572 5.8789 4.22925 5.7969 4.22925C5.71491 4.22925 5.64844 4.29572 5.64844 4.37771C5.64844 4.45971 5.71491 4.52618 5.7969 4.52618Z" fill="black"/>
<path d="M5.90929 4.27881L5.91445 4.28738C5.9996 4.45711 5.75334 4.59322 5.65589 4.43134C5.61322 4.36045 5.63794 4.26722 5.70529 4.22667C5.77549 4.18442 5.86703 4.20862 5.90929 4.27881Z" fill="#F2F8FD"/>
<path d="M5.91443 4.28699C5.99959 4.45671 5.75333 4.59283 5.65588 4.43095C5.63733 4.40014 5.63009 4.36485 5.63723 4.33023C5.69006 4.3782 5.78816 4.3929 5.85282 4.34739C5.87748 4.33022 5.89355 4.30655 5.91443 4.28699Z" fill="#D0DCEE"/>
<path d="M6.66724 4.29822C6.63091 4.77258 6.0445 5.45678 5.1758 5.98204C4.88714 6.15347 4.59776 6.29268 4.32511 6.39383C4.30058 6.26397 4.34012 6.11656 4.41741 6.00472C4.52343 5.84761 4.68435 5.73908 4.83704 5.62851C5.44883 5.18793 6.0084 4.66449 6.66724 4.29822Z" fill="#FFCA28"/>
<path d="M6.0843 4.937C5.94874 4.83991 5.76901 4.98753 5.85268 5.06664C5.92975 5.13953 6.22946 5.04096 6.0843 4.937Z" fill="#FF9F1C"/>
<path d="M5.78188 5.16985C5.69887 5.1104 5.58881 5.20078 5.64004 5.24923C5.68724 5.29386 5.87077 5.2335 5.78188 5.16985Z" fill="#FF9F1C"/>
<path d="M4.52654 4.07106C4.58324 4.06116 4.63606 4.00582 4.62103 3.95025C4.58904 3.83205 4.30399 3.81578 4.25255 3.89636C4.23304 3.9269 4.24606 3.96961 4.27217 3.99475C4.32513 4.04572 4.45509 4.08353 4.52654 4.07106Z" fill="#095DA4"/>
<path d="M4.12819 4.16095C4.15756 4.15582 4.18492 4.12716 4.17713 4.09838C4.16076 4.03788 4.01351 4.02781 3.98628 4.07047C3.95194 4.12425 4.07238 4.17069 4.12819 4.16095Z" fill="#095DA4"/>
<path d="M9.86819 18.4946C9.38844 18.948 8.62316 18.8702 8.23981 18.3489C7.69786 17.6437 8.21015 16.5905 9.11827 16.5905C9.66673 16.5905 10.1207 16.9902 10.2028 17.5123C10.2075 17.5169 10.2075 17.52 10.2075 17.5247C10.2706 17.8919 10.1226 18.2621 9.86819 18.4946Z" fill="#8EECD3"/>
<path d="M10.2187 17.754C10.215 17.8256 10.2056 17.8952 10.1867 17.9611C10.183 17.9611 10.1792 17.9631 10.1754 17.9631C9.68599 18.0318 9.18461 17.9261 8.82171 17.579C9.25288 17.7861 9.74996 17.8481 10.2187 17.754ZM9.86856 18.494C9.67081 18.6804 9.40917 18.7915 9.11921 18.7915C8.43242 18.7915 7.93823 18.1622 8.02721 17.5752C8.22107 18.1612 9.12507 18.7216 9.86856 18.494Z" fill="#00C6C5"/>
<path d="M10.2074 17.8673C10.1969 17.9403 10.1643 18.0479 10.1532 18.0703C9.54646 18.278 8.67404 18.3791 8.23978 18.3491C8.19333 18.2887 8.15301 18.2221 8.12207 18.1508C8.79286 18.205 9.47614 18.1167 10.1098 17.8905C10.1408 17.8796 10.1749 17.8688 10.2074 17.8673Z" fill="black"/>
<path d="M10.2075 17.5243C9.97031 17.5694 9.72549 17.5808 9.4883 17.5469C9.15655 17.4989 8.48761 17.2811 8.21924 17.0611C8.27017 16.9877 8.33039 16.9199 8.39814 16.8615C8.93283 17.225 9.55982 17.4508 10.2037 17.513C10.2075 17.5168 10.2075 17.5205 10.2075 17.5243ZM9.4826 17.1251C9.18896 17.0687 8.90654 16.9105 8.69187 16.677C8.74271 16.6544 8.79732 16.6375 8.85193 16.6243C9.00068 16.8446 9.22095 17.0234 9.4826 17.1251ZM8.6017 17.8393C8.67235 17.8119 8.63268 17.6272 8.48763 17.5785C8.43299 17.5602 8.44235 17.6446 8.44856 17.6781C8.46022 17.7409 8.54143 17.8627 8.6017 17.8393ZM8.83781 17.8675C8.88288 17.85 8.86073 17.7272 8.76198 17.6941C8.72565 17.6819 8.73187 17.738 8.736 17.7603C8.7438 17.8023 8.79782 17.883 8.83781 17.8675Z" fill="#00C6C5"/>
<path d="M9.86819 18.4946C9.38844 18.948 8.62316 18.8702 8.23981 18.3489C7.69786 17.6437 8.21015 16.5905 9.11827 16.5905C9.66673 16.5905 10.1207 16.9902 10.2028 17.5123C10.2075 17.5169 10.2075 17.52 10.2075 17.5247C10.2706 17.8919 10.1226 18.2621 9.86819 18.4946Z" fill="#8EECD3"/>
<path d="M10.2187 17.754C10.215 17.8256 10.2056 17.8952 10.1867 17.9611C10.183 17.9611 10.1792 17.963 10.1754 17.963C9.68599 18.0317 9.18461 17.926 8.82171 17.5789C9.25288 17.786 9.74996 17.8481 10.2187 17.754ZM9.86856 18.4939C9.67081 18.6804 9.40917 18.7914 9.11921 18.7914C8.43242 18.7914 7.93823 18.1621 8.02721 17.5751C8.22107 18.1612 9.12507 18.7215 9.86856 18.4939ZM10.2074 17.5243C9.97024 17.5694 9.72542 17.5808 9.48823 17.5469C9.15648 17.4989 8.48754 17.2811 8.21917 17.0611C8.2701 16.9877 8.33032 16.9199 8.39807 16.8615C8.93276 17.225 9.55975 17.4508 10.2037 17.513C10.2074 17.5168 10.2074 17.5205 10.2074 17.5243ZM9.48253 17.1251C9.18889 17.0687 8.90647 16.9105 8.6918 16.677C8.74264 16.6544 8.79725 16.6375 8.85186 16.6243C9.00061 16.8446 9.22088 17.0234 9.48253 17.1251Z" fill="#00C6C5"/>
<path d="M8.60154 17.8397C8.6722 17.8123 8.63253 17.6275 8.48748 17.5789C8.43284 17.5605 8.44219 17.645 8.4484 17.6784C8.46007 17.7412 8.54128 17.8631 8.60154 17.8397ZM8.83766 17.8678C8.88272 17.8503 8.86058 17.7275 8.76182 17.6944C8.7255 17.6822 8.73171 17.7384 8.73584 17.7606C8.74364 17.8026 8.79767 17.8833 8.83766 17.8678Z" fill="#00C6C5"/>
<path d="M10.9815 16.9369C11.621 17.2572 12.0769 17.7707 12.3078 18.3555C11.5684 17.3934 10.122 17.2062 8.81442 15.2794C8.33482 14.5676 8.16905 13.7897 8.20458 12.966C8.23418 12.3711 8.3289 11.5474 8.74337 11.0492C9.15785 10.5509 9.58418 10.073 10.1052 9.65604C10.6322 9.23911 11.1947 8.8476 11.6032 8.33407C11.994 7.85107 12.3078 7.30704 12.4973 6.74268V7.12401C12.4914 8.05952 11.9407 8.94421 10.9933 9.42214C7.67648 11.1243 7.69821 15.2311 10.9815 16.9369Z" fill="#D0DCEE"/>
<path d="M11.9052 22.108C11.6868 22.5768 11.0567 22.6946 10.5433 22.7843C7.43744 23.2956 4.054 23.0195 2.27169 22.5402C1.68275 22.3805 1.37855 21.8489 1.92237 21.5538C1.91645 21.6759 1.99342 21.7928 2.08222 21.8894C2.80389 22.6697 4.73323 22.8601 5.79469 22.9724C5.84718 22.9778 6.74914 23.0334 6.80127 23.0334C7.67194 23.0334 8.00292 22.737 8.29334 22.7029C8.57164 22.6623 8.86176 22.7538 9.13414 22.7741C10.093 22.8533 11.0207 22.6129 11.7275 22.1741C11.7808 22.1487 11.8459 22.1182 11.9052 22.108Z" fill="black"/>
<path d="M9.03651 5.60576C9.37325 5.79079 9.54368 5.57912 9.3946 5.27067C9.25197 4.97556 9.01601 4.72727 8.73134 4.56548C8.53758 4.45535 7.93962 4.28852 8.14952 4.7283C8.34218 5.13198 8.65342 5.39526 9.03651 5.60576Z" fill="#D0DCEE"/>
<path d="M9.86896 4.68811C10.0212 4.77175 10.0982 4.67607 10.0308 4.53664C9.84258 4.14715 9.35185 4.04809 9.46801 4.29147C9.5551 4.47394 9.69579 4.59296 9.86896 4.68811Z" fill="#D0DCEE"/>
<path d="M13.4211 1.99409C12.6395 1.99409 11.852 1.81106 11.0704 1.70427C7.72221 1.23858 3.57091 2.1771 2.33694 1.96867C1.9282 1.89262 1.44357 1.6591 1.34814 1.2772C5.10126 0.342992 13.2318 0.810973 13.4211 1.99409Z" fill="#28B6F4"/>
<path d="M13.5216 22.962V23.9433C13.5216 25.0679 6.17023 25.5912 2.04077 24.8128C2.05263 24.645 2.11775 24.4874 2.24803 24.3552C2.55 24.045 3.07695 23.9942 3.55065 23.984C5.38615 23.9433 7.22164 24.2026 9.0631 24.1467C10.644 24.1009 12.29 23.7857 13.5216 22.962Z" fill="#28B6F4"/>
</svg>
