<svg width="169" height="190" viewBox="0 0 169 190" fill="none" xmlns="http://www.w3.org/2000/svg">
<path fill-rule="evenodd" clip-rule="evenodd" d="M66.8828 34.9153L23.6833 94.1743L17.2199 103.04L26.086 109.504L91.8357 157.435L88.5882 141.49L32.5493 100.638L69.8478 49.4734L66.8828 34.9153Z" fill="white"/>
<path fill-rule="evenodd" clip-rule="evenodd" d="M168.954 65.3856L108.051 24.536L98.9386 18.4243L92.8269 27.5363L47.503 95.1101L63.309 91.2416L101.939 33.648L154.523 68.9176L168.954 65.3856Z" fill="white"/>
<path fill-rule="evenodd" clip-rule="evenodd" d="M146.445 142.099L130.32 174.349L135.154 189.187L158.697 142.099H146.445Z" fill="white"/>
<path fill-rule="evenodd" clip-rule="evenodd" d="M126.077 139.905L106.741 174.479L46.2147 140.629L30.3708 144.34L101.385 184.055L110.961 189.411L116.317 179.835L138.648 139.905H126.077Z" fill="white"/>
</svg>
