<svg width="30" height="23" viewBox="0 0 30 23" fill="none" xmlns="http://www.w3.org/2000/svg">
<g id="Group 10225">
<path id="Vector" d="M18.3688 11.9219C21.2765 11.9219 24.0041 12.3234 26.0493 13.0523C27.9309 13.7231 29.0101 14.5951 29.0101 15.4446C29.0101 16.2948 27.9309 17.167 26.0493 17.8375C24.0046 18.5661 21.277 18.9674 18.3688 18.9674C14.3012 18.9674 10.6195 18.1681 8.81358 16.9356C9.16627 16.8086 9.52368 16.6699 9.88425 16.521C11.2368 17.3898 14.5699 17.9633 18.3688 17.9633C20.7511 17.9633 22.9952 17.7409 24.6879 17.3371C26.6117 16.8781 27.5871 16.2413 27.5871 15.4446C27.5871 14.6486 26.6117 14.0121 24.688 13.5528C22.9944 13.1486 20.7503 12.9259 18.3688 12.9259C17.6123 12.9259 16.8712 12.9492 16.1505 12.9937C16.6257 12.6462 17.0781 12.2921 17.5045 11.9342C17.779 11.9261 18.0683 11.9219 18.3688 11.9219ZM0.19687 13.1865C0.196814 13.1864 0.196757 13.1864 0.1967 13.1863C-0.22843 12.4499 0.27004 11.1548 1.56436 9.63303C2.97096 7.97926 5.13226 6.26826 7.65035 4.81507C10.1686 3.36092 12.7312 2.34465 14.8662 1.95319C16.8309 1.59312 18.2016 1.80866 18.6268 2.54523C18.6268 2.54529 18.6268 2.54529 18.6268 2.54534C19.0517 3.28174 18.5532 4.57674 17.2591 6.09834C15.8525 7.7521 13.6912 9.46311 11.173 10.9164C8.65619 12.3701 6.09378 13.3862 3.95793 13.7776C1.99312 14.1374 0.622341 13.922 0.19687 13.1865ZM2.77741 13.0436C3.33046 13.0436 4.03444 12.9169 4.88634 12.6632C6.55422 12.1666 8.60869 11.237 10.671 10.0458C12.7335 8.85543 14.5655 7.54104 15.8297 6.34494C17.2659 4.98612 17.7926 3.94741 17.395 3.2572C16.9966 2.56762 15.8336 2.5038 13.9381 3.06779C12.2699 3.56416 10.2151 4.4932 8.15244 5.68369C8.15239 5.68375 8.15233 5.68375 8.15233 5.68381C6.08947 6.87532 4.25752 8.1901 2.99386 9.38615C1.55779 10.7454 1.03166 11.7842 1.43015 12.474C1.64949 12.8537 2.10035 13.0436 2.77741 13.0436ZM18.3688 19.8053C13.716 19.8053 9.64457 18.8106 7.85778 17.2553C7.81482 17.2686 7.77203 17.2815 7.7293 17.2944V19.0657C7.7293 19.6984 8.32729 20.3435 9.40845 20.9086V19.834H10.2463V21.2912C10.389 21.3485 10.5365 21.4047 10.69 21.4594C11.3386 21.6907 12.0562 21.8889 12.8261 22.0519V20.8058H13.664V22.2118C14.4807 22.3514 15.3454 22.4539 16.2421 22.5167V21.2315H17.0799V22.5633C17.5045 22.5809 17.9346 22.5901 18.369 22.5901C18.8038 22.5901 19.2346 22.5809 19.6597 22.5632V21.2315H20.4976V22.5166C21.3942 22.4539 22.259 22.3512 23.0757 22.2117V20.8058H23.9135V22.0518C24.6834 21.8888 25.4008 21.6906 26.0494 21.4594C26.2029 21.4046 26.3505 21.3484 26.4933 21.2911V19.834H27.3311V20.9085C28.4123 20.3434 29.0103 19.6984 29.0103 19.0657V17.133C28.4143 17.6984 27.5108 18.2061 26.3307 18.6267C24.1979 19.3867 21.3704 19.8053 18.3688 19.8053ZM7.2917 15.2807L8.01761 14.8622L8.71881 16.0786C9.49619 15.7909 10.2967 15.4471 11.105 15.0529L10.4635 13.9409L11.1893 13.5222L11.8538 14.6742C12.2307 14.477 12.6081 14.2696 12.9846 14.0522C13.3607 13.8351 13.7287 13.6122 14.0875 13.3847L13.4215 12.2314L14.1472 11.8124L14.7899 12.9257C15.5358 12.4228 16.234 11.9012 16.872 11.3716L16.1693 10.1555L16.8948 9.73629L17.5177 10.8144C18.1027 10.2886 18.6247 9.75857 19.0706 9.23431C19.176 9.11041 19.2755 8.98822 19.3703 8.8675L18.642 7.60424L19.3679 7.18574L19.9048 8.11716C20.5591 7.08695 20.7547 6.22915 20.4383 5.68109C20.141 5.16669 19.8436 4.65167 19.5462 4.13671C19.5212 4.09346 19.4963 4.05022 19.4713 4.00692C19.2379 4.79484 18.7093 5.68658 17.8974 6.64113C16.4303 8.36602 14.191 10.142 11.5921 11.6419C8.99449 13.1423 6.33687 14.1935 4.10903 14.6016C3.44903 14.7225 2.84497 14.7823 2.30365 14.7823C1.83358 14.7823 1.41196 14.7362 1.04061 14.647C1.06124 14.6828 1.08193 14.7186 1.10256 14.7543C1.40448 15.2771 1.70634 15.7999 2.0082 16.3223C2.32451 16.8702 3.16462 17.1296 4.38311 17.0783L3.84537 16.1458L4.57122 15.7272L5.2998 16.9906C5.4522 16.9688 5.60835 16.9436 5.76885 16.9142C6.44574 16.7901 7.16571 16.6029 7.9135 16.3592L7.2917 15.2807ZM10.2521 9.32029C12.2596 8.16159 14.0359 6.88875 15.2539 5.73635C16.6288 4.43551 16.7391 3.79705 16.6693 3.67598C16.5996 3.55526 15.9915 3.33099 14.177 3.87089C12.5697 4.34907 10.5789 5.25063 8.57128 6.40944L8.5714 6.40932C6.56357 7.5691 4.78733 8.84239 3.5698 9.99468C2.1954 11.2956 2.08567 11.9338 2.15561 12.0548C2.22561 12.176 2.83352 12.4001 4.64723 11.8602C6.25418 11.3817 8.24471 10.4797 10.2521 9.32029ZM24.4935 16.5221C26.3348 16.0828 26.7492 15.5845 26.7492 15.4446C26.7492 15.305 26.3348 14.8074 24.4934 14.3678C22.8618 13.9784 20.6867 13.7638 18.3688 13.7638C17.1103 13.7638 15.895 13.8278 14.7536 13.953C14.3164 14.2354 13.8657 14.5111 13.4034 14.778C12.5604 15.2648 11.7113 15.7039 10.8726 16.0895C12.2109 16.6477 14.9102 17.1254 18.3688 17.1254C20.6875 17.1254 22.8626 16.9111 24.4935 16.5221ZM2.87671 19.8239H2.03886V20.9976H0.866844V21.8355H2.03886V23.0091H2.87671V21.8355H4.05042V20.9976H2.87671V19.8239ZM23.4825 10.1528H24.3204V8.97915H25.4941V8.14124H24.3204V6.96929H23.4825V8.14124H22.3105V8.97915H23.4825V10.1528ZM2.60194 3.18358H3.43979V2.00992H4.6135V1.17201H3.43979V0H2.60194V1.17196H1.42998V2.00986H2.602L2.60194 3.18358Z" fill="white" fill-opacity="0.6"/>
</g>
</svg>
