<svg width="16" height="16" viewBox="0 0 16 16" fill="none" xmlns="http://www.w3.org/2000/svg">
<path id="Vector" fill-rule="evenodd" clip-rule="evenodd" d="M6.91386 1.72234C8.96483 -0.328672 12.2902 -0.328672 14.3411 1.72234C16.3921 3.77331 16.3921 7.09865 14.3411 9.14962L13.4971 9.99364C13.031 10.4598 12.2752 10.4598 11.8091 9.99364C11.343 9.52753 11.343 8.77176 11.8091 8.30565L12.6531 7.46163C13.7718 6.34288 13.7718 4.52908 12.6531 3.41034C11.5344 2.29164 9.7206 2.29164 8.60185 3.41034L7.75783 4.25436C7.29172 4.72052 6.53595 4.72052 6.06984 4.25436C5.60368 3.78825 5.60368 3.03247 6.06984 2.56636L6.91386 1.72234ZM10.1211 5.9424C10.5872 6.40851 10.5872 7.16428 10.1211 7.63039L7.75783 9.99364C7.29172 10.4598 6.53595 10.4598 6.06984 9.99364C5.60368 9.52753 5.60368 8.77176 6.06984 8.30565L8.43309 5.9424C8.8992 5.47624 9.65497 5.47624 10.1211 5.9424ZM4.29739 6.0268C4.76355 6.49292 4.76355 7.24869 4.29739 7.7148L3.53778 8.47441C2.41908 9.59315 2.41908 11.407 3.53778 12.5257C4.65652 13.6444 6.47032 13.6444 7.58907 12.5257L8.34868 11.7661C8.81479 11.2999 9.57056 11.2999 10.0367 11.7661C10.5028 12.2322 10.5028 12.988 10.0367 13.4541L9.27706 14.2137C7.22609 16.2647 3.90075 16.2647 1.84978 14.2137C-0.20123 12.1627 -0.20123 8.83739 1.84978 6.78642L2.6094 6.0268C3.07551 5.56065 3.83128 5.56065 4.29739 6.0268Z" fill="white"/>
</svg>
