<svg width="28" height="28" viewBox="0 0 28 28" fill="none" xmlns="http://www.w3.org/2000/svg">
<path d="M21 1.45825H11.6667C9.25167 1.45825 7.29167 3.41825 7.29167 5.83325V6.12492H7C4.585 6.12492 2.625 8.08492 2.625 10.4999V22.1666C2.625 24.5816 4.585 26.5416 7 26.5416H16.3333C18.7483 26.5416 20.7083 24.5816 20.7083 22.1666V21.8749H21C23.415 21.8749 25.375 19.9149 25.375 17.4999V5.83325C25.375 3.41825 23.415 1.45825 21 1.45825ZM9.04167 7.87492H14.2917V9.33325C14.2917 10.1383 13.6383 10.7916 12.8333 10.7916H10.5C9.695 10.7916 9.04167 10.1383 9.04167 9.33325V7.87492ZM18.9583 22.1666C18.9583 23.6132 17.78 24.7916 16.3333 24.7916H7C5.55333 24.7916 4.375 23.6132 4.375 22.1666V10.4999C4.375 9.05325 5.55333 7.87492 7 7.87492H7.29167V9.33325C7.29167 11.1066 8.72667 12.5416 10.5 12.5416H12.8333C14.6067 12.5416 16.0417 11.1066 16.0417 9.33325V7.87492H16.3333C17.78 7.87492 18.9583 9.05325 18.9583 10.4999V22.1666ZM23.625 17.4999C23.625 18.9466 22.4467 20.1249 21 20.1249H20.7083V10.4999C20.7083 8.08492 18.7483 6.12492 16.3333 6.12492H9.04167V5.83325C9.04167 4.38658 10.22 3.20825 11.6667 3.20825H21C22.4467 3.20825 23.625 4.38658 23.625 5.83325V17.4999ZM16.0417 16.3333C16.0417 16.8116 15.645 17.2083 15.1667 17.2083H8.16667C7.68833 17.2083 7.29167 16.8116 7.29167 16.3333C7.29167 15.8549 7.68833 15.4583 8.16667 15.4583H15.1667C15.645 15.4583 16.0417 15.8549 16.0417 16.3333ZM16.0417 20.9999C16.0417 21.4782 15.645 21.8749 15.1667 21.8749H8.16667C7.68833 21.8749 7.29167 21.4782 7.29167 20.9999C7.29167 20.5216 7.68833 20.1249 8.16667 20.1249H15.1667C15.645 20.1249 16.0417 20.5216 16.0417 20.9999Z" fill="white"/>
</svg>
