<svg width="15" height="15" viewBox="0 0 15 15" fill="none" xmlns="http://www.w3.org/2000/svg">
<g id="Group 10220">
<path id="Vector 14 (Stroke)" fill-rule="evenodd" clip-rule="evenodd" d="M0.373906 0.373906C0.872448 -0.124635 1.68074 -0.124635 2.17929 0.373906L14.6261 12.8207C15.1246 13.3193 15.1246 14.1276 14.6261 14.6261C14.1276 15.1246 13.3193 15.1246 12.8207 14.6261L0.373906 2.17929C-0.124635 1.68074 -0.124635 0.872448 0.373906 0.373906Z" fill="white"/>
<path id="Vector 14 (Stroke)_2" fill-rule="evenodd" clip-rule="evenodd" d="M0.373906 14.6261C-0.124635 14.1276 -0.124636 13.3193 0.373906 12.8207L12.8207 0.373907C13.3193 -0.124636 14.1276 -0.124636 14.6261 0.373906C15.1246 0.872447 15.1246 1.68074 14.6261 2.17928L2.17929 14.6261C1.68074 15.1246 0.872448 15.1246 0.373906 14.6261Z" fill="white"/>
</g>
</svg>
