<svg width="63" height="21" viewBox="0 0 63 21" fill="none" xmlns="http://www.w3.org/2000/svg">
<path d="M0.354661 10.5L2.44081 0.347403H62.6526V10.5V20.6526H2.44081L0.354661 10.5Z" fill="url(#paint0_linear_2343_2066)"/>
<path d="M0.354661 10.5L2.44081 0.347403H62.6526V10.5V20.6526H2.44081L0.354661 10.5Z" fill="url(#paint1_radial_2343_2066)"/>
<path d="M0.354661 10.5L2.44081 0.347403H62.6526V10.5V20.6526H2.44081L0.354661 10.5Z" stroke="url(#paint2_linear_2343_2066)" stroke-width="0.694806"/>
<path d="M6.9061 14V13.6226C7.20932 13.6097 7.43191 13.5839 7.57384 13.5452C7.72223 13.5 7.819 13.4194 7.86416 13.3032C7.90932 13.1871 7.93191 13.0161 7.93191 12.7903V8.35806C7.93191 8.11935 7.9061 7.94516 7.85449 7.83548C7.80932 7.71936 7.71255 7.64194 7.56416 7.60323C7.42223 7.55806 7.20287 7.53226 6.9061 7.52581V7.14839C7.13836 7.15484 7.4061 7.16129 7.70932 7.16774C8.019 7.17419 8.34803 7.17742 8.69642 7.17742C9.15449 7.17742 9.55126 7.17419 9.88674 7.16774C10.2222 7.16129 10.4932 7.15484 10.6996 7.14839V7.52581C10.319 7.53226 10.0351 7.55806 9.84803 7.60323C9.66739 7.64194 9.54803 7.71936 9.48997 7.83548C9.43191 7.95161 9.40287 8.12581 9.40287 8.35806V12.8968C9.40287 13.0903 9.41578 13.2387 9.44158 13.3419C9.47384 13.4387 9.53836 13.5065 9.63513 13.5452C9.73836 13.5774 9.8932 13.5935 10.0996 13.5935H10.3609C10.6384 13.5935 10.8867 13.5548 11.1061 13.4774C11.3319 13.3935 11.5287 13.2645 11.6964 13.0903C11.8706 12.9161 12.0255 12.6968 12.1609 12.4323C12.3029 12.1613 12.4319 11.8387 12.548 11.4645H12.9448C12.8932 11.9032 12.8545 12.3355 12.8287 12.7613C12.8093 13.1806 12.8029 13.5935 12.8093 14C12.5319 13.9871 12.1964 13.9806 11.8029 13.9806C11.4093 13.9742 10.9319 13.971 10.3706 13.971C9.60287 13.971 8.92545 13.9742 8.33836 13.9806C7.75126 13.9806 7.27384 13.9871 6.9061 14ZM13.6678 14V13.6226C13.9646 13.6097 14.1839 13.5839 14.3259 13.5452C14.4743 13.5065 14.571 13.429 14.6162 13.3129C14.6678 13.1968 14.6936 13.0226 14.6936 12.7903V8.35806C14.6936 8.12581 14.6678 7.95484 14.6162 7.84516C14.571 7.72903 14.4743 7.64839 14.3259 7.60323C14.1839 7.55806 13.9646 7.53226 13.6678 7.52581V7.14839C14.0162 7.15484 14.471 7.16129 15.0323 7.16774C15.5936 7.17419 16.2485 7.17742 16.9968 7.17742C17.2872 7.17742 17.5581 7.17742 17.8098 7.17742C18.0678 7.17097 18.3065 7.16774 18.5259 7.16774C18.7517 7.16129 18.9549 7.15484 19.1356 7.14839C19.1356 7.50968 19.1485 7.86452 19.1743 8.2129C19.2001 8.56129 19.2388 8.90645 19.2904 9.24839H18.9033C18.813 8.84194 18.6968 8.51613 18.5549 8.27097C18.413 8.01935 18.2356 7.83871 18.0227 7.72903C17.8162 7.6129 17.5614 7.55484 17.2581 7.55484H16.1646V12.8968C16.1646 13.0968 16.1807 13.2484 16.213 13.3516C16.2452 13.4484 16.3098 13.5129 16.4065 13.5452C16.5098 13.5774 16.6614 13.5935 16.8614 13.5935H17.1227C17.4904 13.5935 17.8065 13.5226 18.071 13.3806C18.342 13.2387 18.5775 13.0129 18.7775 12.7032C18.9775 12.3871 19.1549 11.9742 19.3098 11.4645H19.7065C19.6549 11.9161 19.6162 12.3516 19.5904 12.771C19.571 13.1839 19.5646 13.5935 19.571 14C19.2549 13.9871 18.8839 13.9806 18.4581 13.9806C18.0323 13.9742 17.5323 13.971 16.9581 13.971C16.2162 13.971 15.5678 13.9742 15.013 13.9806C14.4581 13.9806 14.0098 13.9871 13.6678 14ZM15.8549 10.7387V10.371H17.6065V10.7387H15.8549ZM17.8291 11.9968C17.7968 11.7 17.7356 11.4613 17.6452 11.2806C17.5614 11.0935 17.442 10.9581 17.2872 10.8742C17.1388 10.7839 16.9452 10.7387 16.7065 10.7387V10.371C17.0291 10.371 17.2775 10.2677 17.4517 10.0613C17.6323 9.84839 17.7485 9.53226 17.8001 9.1129H18.1678C18.142 9.49355 18.1291 9.7871 18.1291 9.99355C18.1291 10.1935 18.1291 10.3806 18.1291 10.5548C18.1291 10.6903 18.1323 10.8258 18.1388 10.9613C18.1452 11.0903 18.1517 11.2387 18.1581 11.4065C18.171 11.5677 18.1839 11.7645 18.1968 11.9968H17.8291ZM23.8533 14.0677L21.2501 8.37742C21.1081 8.06774 20.9501 7.85161 20.7759 7.72903C20.6081 7.60645 20.3727 7.53871 20.0694 7.52581V7.14839C20.2694 7.15484 20.521 7.16129 20.8243 7.16774C21.1339 7.17419 21.4823 7.17742 21.8694 7.17742C22.3081 7.17742 22.6856 7.17419 23.0017 7.16774C23.3243 7.16129 23.5694 7.15484 23.7372 7.14839V7.52581C23.421 7.53226 23.1823 7.56452 23.021 7.62258C22.8598 7.68065 22.7694 7.77097 22.7501 7.89355C22.7372 8.01613 22.7791 8.1871 22.8759 8.40645L24.7049 12.4516L24.463 12.5677L25.8856 9.23871C26.0533 8.85806 26.1372 8.54516 26.1372 8.3C26.1372 8.04839 26.0501 7.85806 25.8759 7.72903C25.7017 7.6 25.4372 7.53226 25.0823 7.52581V7.14839C25.3081 7.15484 25.5114 7.16129 25.692 7.16774C25.8727 7.16774 26.0436 7.17097 26.2049 7.17742C26.3662 7.17742 26.5243 7.17742 26.6791 7.17742C26.8985 7.17742 27.0985 7.17419 27.2791 7.16774C27.4662 7.16129 27.6533 7.15484 27.8404 7.14839V7.52581C27.6275 7.55161 27.4404 7.6129 27.2791 7.70968C27.1243 7.80645 26.9823 7.94839 26.8533 8.13548C26.7243 8.31613 26.592 8.55806 26.4565 8.86129L24.2017 14.0677H23.8533ZM28.2459 14V13.6226C28.5427 13.6097 28.7621 13.5839 28.904 13.5452C29.0524 13.5065 29.1492 13.429 29.1943 13.3129C29.2459 13.1968 29.2717 13.0226 29.2717 12.7903V8.35806C29.2717 8.12581 29.2459 7.95484 29.1943 7.84516C29.1492 7.72903 29.0524 7.64839 28.904 7.60323C28.7621 7.55806 28.5427 7.53226 28.2459 7.52581V7.14839C28.5943 7.15484 29.0492 7.16129 29.6105 7.16774C30.1717 7.17419 30.8266 7.17742 31.575 7.17742C31.8653 7.17742 32.1363 7.17742 32.3879 7.17742C32.6459 7.17097 32.8847 7.16774 33.104 7.16774C33.3298 7.16129 33.533 7.15484 33.7137 7.14839C33.7137 7.50968 33.7266 7.86452 33.7524 8.2129C33.7782 8.56129 33.8169 8.90645 33.8685 9.24839H33.4814C33.3911 8.84194 33.275 8.51613 33.133 8.27097C32.9911 8.01935 32.8137 7.83871 32.6008 7.72903C32.3943 7.6129 32.1395 7.55484 31.8363 7.55484H30.7427V12.8968C30.7427 13.0968 30.7588 13.2484 30.7911 13.3516C30.8234 13.4484 30.8879 13.5129 30.9847 13.5452C31.0879 13.5774 31.2395 13.5935 31.4395 13.5935H31.7008C32.0685 13.5935 32.3847 13.5226 32.6492 13.3806C32.9201 13.2387 33.1556 13.0129 33.3556 12.7032C33.5556 12.3871 33.733 11.9742 33.8879 11.4645H34.2847C34.233 11.9161 34.1943 12.3516 34.1685 12.771C34.1492 13.1839 34.1427 13.5935 34.1492 14C33.833 13.9871 33.4621 13.9806 33.0363 13.9806C32.6105 13.9742 32.1105 13.971 31.5363 13.971C30.7943 13.971 30.1459 13.9742 29.5911 13.9806C29.0363 13.9806 28.5879 13.9871 28.2459 14ZM30.433 10.7387V10.371H32.1847V10.7387H30.433ZM32.4072 11.9968C32.375 11.7 32.3137 11.4613 32.2234 11.2806C32.1395 11.0935 32.0201 10.9581 31.8653 10.8742C31.7169 10.7839 31.5234 10.7387 31.2847 10.7387V10.371C31.6072 10.371 31.8556 10.2677 32.0298 10.0613C32.2105 9.84839 32.3266 9.53226 32.3782 9.1129H32.7459C32.7201 9.49355 32.7072 9.7871 32.7072 9.99355C32.7072 10.1935 32.7072 10.3806 32.7072 10.5548C32.7072 10.6903 32.7105 10.8258 32.7169 10.9613C32.7234 11.0903 32.7298 11.2387 32.7363 11.4065C32.7492 11.5677 32.7621 11.7645 32.775 11.9968H32.4072ZM35.3241 14V13.6226C35.6273 13.6097 35.8499 13.5839 35.9918 13.5452C36.1402 13.5 36.237 13.4194 36.2821 13.3032C36.3273 13.1871 36.3499 13.0161 36.3499 12.7903V8.35806C36.3499 8.11935 36.3241 7.94516 36.2725 7.83548C36.2273 7.71936 36.1305 7.64194 35.9821 7.60323C35.8402 7.55806 35.6208 7.53226 35.3241 7.52581V7.14839C35.5563 7.15484 35.8241 7.16129 36.1273 7.16774C36.437 7.17419 36.766 7.17742 37.1144 7.17742C37.5725 7.17742 37.9692 7.17419 38.3047 7.16774C38.6402 7.16129 38.9112 7.15484 39.1176 7.14839V7.52581C38.737 7.53226 38.4531 7.55806 38.266 7.60323C38.0854 7.64194 37.966 7.71936 37.9079 7.83548C37.8499 7.95161 37.8208 8.12581 37.8208 8.35806V12.8968C37.8208 13.0903 37.8337 13.2387 37.8596 13.3419C37.8918 13.4387 37.9563 13.5065 38.0531 13.5452C38.1563 13.5774 38.3112 13.5935 38.5176 13.5935H38.7789C39.0563 13.5935 39.3047 13.5548 39.5241 13.4774C39.7499 13.3935 39.9466 13.2645 40.1144 13.0903C40.2886 12.9161 40.4434 12.6968 40.5789 12.4323C40.7208 12.1613 40.8499 11.8387 40.966 11.4645H41.3628C41.3112 11.9032 41.2725 12.3355 41.2466 12.7613C41.2273 13.1806 41.2208 13.5935 41.2273 14C40.9499 13.9871 40.6144 13.9806 40.2208 13.9806C39.8273 13.9742 39.3499 13.971 38.7886 13.971C38.0208 13.971 37.3434 13.9742 36.7563 13.9806C36.1692 13.9806 35.6918 13.9871 35.3241 14ZM47.943 14.1355C47.3623 14.1355 46.8752 14.0323 46.4817 13.8258C46.0881 13.6194 45.7914 13.3097 45.5914 12.8968C45.3914 12.4839 45.2914 11.9742 45.2914 11.3677V8.35806C45.2914 8.12581 45.2655 7.95484 45.2139 7.84516C45.1688 7.72903 45.072 7.64839 44.9236 7.60323C44.7817 7.55806 44.5623 7.53226 44.2655 7.52581V7.14839C44.5881 7.16774 45.1785 7.17742 46.0365 7.17742C46.8623 7.17742 47.443 7.16774 47.7785 7.14839V7.52581C47.4817 7.53226 47.2623 7.55806 47.1204 7.60323C46.9785 7.64839 46.8817 7.72903 46.8301 7.84516C46.7849 7.95484 46.7623 8.12581 46.7623 8.35806V11.5323C46.7623 12.2548 46.8914 12.7871 47.1494 13.129C47.4075 13.4645 47.8139 13.6323 48.3688 13.6323C48.943 13.6323 49.3688 13.4387 49.6462 13.0516C49.9301 12.6645 50.072 12.0806 50.072 11.3V8.6C50.072 8.31613 50.0462 8.1 49.9946 7.95161C49.9494 7.80323 49.8526 7.7 49.7043 7.64194C49.5623 7.58387 49.3494 7.54516 49.0655 7.52581V7.14839C49.1623 7.15484 49.3107 7.16129 49.5107 7.16774C49.7107 7.17419 49.9494 7.17742 50.2268 7.17742C50.5365 7.17742 50.7946 7.17419 51.001 7.16774C51.2139 7.16129 51.3785 7.15484 51.4946 7.14839V7.52581C51.2107 7.54516 50.9946 7.5871 50.8462 7.65161C50.6978 7.70968 50.5946 7.81613 50.5365 7.97097C50.4849 8.11935 50.4591 8.33548 50.4591 8.61935V11.3484C50.4591 12.2774 50.2559 12.9742 49.8494 13.4387C49.443 13.9032 48.8075 14.1355 47.943 14.1355ZM52.1288 14V13.6226C52.4255 13.6097 52.6449 13.5839 52.7868 13.5452C52.9352 13.5 53.032 13.4226 53.0771 13.3129C53.1288 13.1968 53.1546 13.0226 53.1546 12.7903V8.35806C53.1546 8.12581 53.1288 7.95484 53.0771 7.84516C53.032 7.72903 52.9352 7.64839 52.7868 7.60323C52.6449 7.55806 52.4255 7.53226 52.1288 7.52581V7.14839C52.2126 7.15484 52.3255 7.16129 52.4675 7.16774C52.6094 7.16774 52.7868 7.16774 52.9997 7.16774C53.2191 7.16774 53.4739 7.16774 53.7642 7.16774C54.19 7.16774 54.5417 7.16774 54.8191 7.16774C55.1029 7.16129 55.3191 7.15806 55.4675 7.15806C56.3642 7.15806 57.0481 7.33226 57.5191 7.68065C57.99 8.02258 58.2255 8.51935 58.2255 9.17097C58.2255 9.62258 58.1094 10.0097 57.8771 10.3323C57.6449 10.6548 57.3094 10.9032 56.8707 11.0774C56.432 11.2452 55.9029 11.329 55.2836 11.329C55.1481 11.329 55.0126 11.3258 54.8771 11.3194C54.7417 11.3065 54.6159 11.2903 54.4997 11.271C54.3836 11.2452 54.2836 11.2226 54.1997 11.2032V10.8258C54.3223 10.8645 54.461 10.8968 54.6159 10.9226C54.7771 10.9419 54.9449 10.9516 55.1191 10.9516C55.661 10.9516 56.0578 10.8129 56.3094 10.5355C56.561 10.2516 56.6868 9.80968 56.6868 9.20968C56.6868 8.62903 56.5739 8.20323 56.3481 7.93226C56.1288 7.66129 55.7836 7.52581 55.3126 7.52581H54.6255V12.7613C54.6255 13 54.6546 13.1806 54.7126 13.3032C54.7771 13.4194 54.9029 13.5 55.09 13.5452C55.2836 13.5903 55.5707 13.6161 55.9513 13.6226V14C55.8288 13.9935 55.6675 13.9903 55.4675 13.9903C55.2675 13.9839 55.0352 13.9806 54.7707 13.9806C54.5126 13.9742 54.232 13.971 53.9288 13.971C53.5417 13.971 53.1997 13.9742 52.9029 13.9806C52.6062 13.9871 52.3481 13.9935 52.1288 14Z" fill="white"/>
<defs>
<linearGradient id="paint0_linear_2343_2066" x1="0" y1="10.5" x2="63" y2="10.5" gradientUnits="userSpaceOnUse">
<stop stop-color="#78571B"/>
<stop offset="0.63" stop-color="#F3B54C"/>
<stop offset="0.985" stop-color="#DCA548"/>
</linearGradient>
<radialGradient id="paint1_radial_2343_2066" cx="0" cy="0" r="1" gradientUnits="userSpaceOnUse" gradientTransform="translate(31.5 10.5) rotate(90) scale(10.5 31.5)">
<stop stop-color="#05183D"/>
<stop offset="1" stop-color="#0A0A15"/>
</radialGradient>
<linearGradient id="paint2_linear_2343_2066" x1="0" y1="10.5" x2="65.0137" y2="10.5" gradientUnits="userSpaceOnUse">
<stop stop-color="#7F96A8"/>
<stop offset="0.475" stop-color="#7B8B9B"/>
<stop offset="0.985" stop-color="#4B5561"/>
</linearGradient>
</defs>
</svg>
