<svg width="11" height="14" viewBox="0 0 11 14" fill="none" xmlns="http://www.w3.org/2000/svg">
<path d="M0.425233 6.525H1.49127V3.65463H1.494C1.50763 1.63386 3.21712 0 5.32466 0C7.4322 0 9.14169 1.63386 9.15805 3.65463H9.16077V6.52239H10.2241C10.4586 6.52239 10.6494 6.70538 10.6494 6.93281V12.6605C10.6494 12.8853 10.4586 13.0683 10.2241 13.0683H0.425233C0.190759 13.0683 -9.25064e-05 12.8853 -9.25064e-05 12.6605V6.93281C-9.25064e-05 6.70799 0.190759 6.525 0.425233 6.525ZM7.66668 3.65463V3.66508C7.6585 2.4338 6.60609 1.43257 5.32466 1.43257C4.04323 1.43257 2.99355 2.4338 2.98264 3.66508C2.98264 3.66247 2.98264 3.65724 2.98264 3.65463V6.52239H7.66668V3.65463ZM4.52308 10.8332H6.12624L5.61094 9.39276C6.05262 9.24114 6.28437 8.77581 6.12624 8.3497C5.9681 7.92359 5.48279 7.704 5.03838 7.85562C4.5967 8.00724 4.36495 8.47257 4.52308 8.89868C4.6076 9.12873 4.79846 9.3091 5.03838 9.39276L4.52308 10.8332Z" fill="url(#paint0_linear_2313_5837)"/>
<defs>
<linearGradient id="paint0_linear_2313_5837" x1="5.32466" y1="0" x2="5.32466" y2="13.0683" gradientUnits="userSpaceOnUse">
<stop stop-color="#FDD835"/>
<stop offset="1" stop-color="#F39E09"/>
</linearGradient>
</defs>
</svg>
