<svg width="14" height="18" viewBox="0 0 14 18" fill="none" xmlns="http://www.w3.org/2000/svg">
<path d="M2.37753 8.88102V9.35696H1.90159H0.553992C0.517945 9.35696 0.49227 9.38628 0.49227 9.4157V16.9252C0.49227 16.9546 0.517944 16.9839 0.553992 16.9839H12.9409C12.9769 16.9839 13.0026 16.9546 13.0026 16.9252V9.4157C13.0026 9.38088 12.9749 9.35353 12.9409 9.35353H11.5967H11.1208V8.87759V5.56111L11.1173 5.12142C11.0987 2.73462 9.1514 0.802108 6.74742 0.802108C4.34333 0.802108 2.39648 2.73461 2.38096 5.12081L2.37789 5.59365H2.37753V8.88102ZM6.74742 1.72846C8.62289 1.72846 10.166 3.24414 10.1838 5.11771H10.1839V5.13142V8.87759V9.35353H9.708H3.78685H3.31091V8.87759V5.13142V5.1314V5.13138V5.13136V5.13134V5.13132V5.1313V5.13128V5.13126V5.13124V5.13122V5.13119V5.13117V5.13115V5.13113V5.13111V5.13109V5.13107V5.13105V5.13102V5.131V5.13098V5.13096V5.13094V5.13092V5.13089V5.13087V5.13085V5.13083V5.13081V5.13078V5.13076V5.13074V5.13072V5.13069V5.13067V5.13065V5.13063V5.1306V5.13058V5.13056V5.13053V5.13051V5.13049V5.13046V5.13044V5.13042V5.13039V5.13037V5.13035V5.13032V5.1303V5.13028V5.13025V5.13023V5.13021V5.13018V5.13016V5.13013V5.13011V5.13008V5.13006V5.13004V5.13001V5.12999V5.12996V5.12994V5.12991V5.12989V5.12986V5.12984V5.12981V5.12979V5.12976V5.12974V5.12971V5.12969V5.12966V5.12964V5.12961V5.12959V5.12956V5.12954V5.12951V5.12949V5.12946V5.12944V5.12941V5.12938V5.12936V5.12933V5.12931V5.12928V5.12925V5.12923V5.1292V5.12918V5.12915V5.12912V5.1291V5.12907V5.12904V5.12902V5.12899V5.12896V5.12894V5.12891V5.12888V5.12886V5.12883V5.1288V5.12878V5.12875V5.12872V5.1287V5.12867V5.12864V5.12861V5.12859V5.12856V5.12853V5.12851V5.12848V5.12845V5.12842V5.1284V5.12837V5.12834V5.12831V5.12829V5.12826V5.12823V5.1282V5.12817V5.12815V5.12812V5.12809V5.12806V5.12804V5.12801V5.12798V5.12795V5.12792V5.1279V5.12787V5.12784V5.12781V5.12778V5.12775V5.12773V5.1277V5.12767V5.12764V5.12761V5.12758V5.12755V5.12753V5.1275V5.12747V5.12744V5.12741V5.12738V5.12735V5.12733V5.1273V5.12727V5.12724V5.12721V5.12718V5.12715V5.12712V5.12709V5.12707V5.12704V5.12701V5.12698V5.12695V5.12692V5.12689V5.12686V5.12683V5.1268V5.12677V5.12674V5.12671V5.12669V5.12666V5.12663V5.1266V5.12657V5.12654V5.12651V5.12648V5.12645V5.12642V5.12639V5.12636V5.12633V5.1263V5.12627V5.12624V5.12621V5.12618V5.12615V5.12612V5.12609V5.12606V5.12603V5.12601V5.12598V5.12595V5.12592V5.12589V5.12586V5.12583V5.1258V5.12577V5.12574V5.12571V5.12568V5.12565V5.12562V5.12559V5.12556V5.12553V5.1255V5.12547V5.12544V5.12541V5.12538V5.12535V5.12532V5.12529V5.12526V5.12523V5.1252V5.12517V5.12514V5.12511V5.12508V5.12505V5.12502V5.12499V5.12496V5.12493V5.1249V5.12487V5.12484V5.12481V5.12478V5.12475V5.12472V5.12469V5.12466V5.12463V5.1246V5.12457V5.12453V5.1245V5.12447V5.12444V5.12441V5.12438V5.12435V5.12432V5.12429V5.12426V5.12423V5.1242V5.12417V5.12414V5.12411V5.12408V5.12405V5.12402V5.12399V5.12396V5.12393V5.1239V5.12387V5.12384V5.12381V5.12378V5.12375V5.12372V5.12369V5.12366V5.12363V5.1236V5.12357V5.12354V5.12351V5.12348V5.12345V5.12342V5.12339V5.12336V5.12333V5.1233V5.12327V5.12324V5.12321V5.12318V5.12315V5.12312V5.1231V5.12306V5.12304V5.12301V5.12298V5.12295V5.12292V5.12289V5.12286V5.12283V5.1228V5.12277V5.12274V5.12271V5.12268V5.12265V5.12262V5.12259V5.12256V5.12253V5.1225V5.12247V5.12244V5.12242V5.12239V5.12236V5.12233V5.1223V5.12227V5.12224V5.12221V5.12218V5.12215V5.12212V5.12209V5.12206V5.12204V5.12201V5.12198V5.12195V5.12192V5.12189V5.12186V5.12183V5.1218V5.12178V5.12175V5.12172V5.12169V5.12166V5.12163V5.1216V5.12157V5.12155V5.12152V5.12149V5.12146V5.12143V5.1214V5.12138V5.12135V5.12132V5.12129V5.12126V5.12123V5.12121V5.12118V5.12115V5.12112V5.12109V5.12107V5.12104V5.12101V5.12098V5.12095V5.12093V5.1209V5.12087V5.12084V5.12082V5.12079V5.12076V5.12073V5.12071V5.12068V5.12065V5.12062V5.1206V5.12057V5.12054V5.12051V5.12049V5.12046V5.12043V5.12041V5.12038V5.12035V5.12033V5.1203V5.12027V5.12025V5.12022V5.12019V5.12017V5.12014V5.12011V5.12009V5.12006V5.12003V5.12001V5.11998V5.11995V5.11993V5.1199V5.11988V5.11985V5.11982V5.1198V5.11977V5.11975V5.11972V5.11969V5.11967V5.11964V5.11962V5.11959V5.11957V5.11954V5.11952V5.11949V5.11947V5.11944V5.11942V5.11939V5.11937V5.11934V5.11932V5.11929V5.11927V5.11924V5.11922V5.11919V5.11917V5.11914V5.11912V5.11909V5.11907V5.11905V5.11902V5.119V5.11897V5.11895V5.11892V5.1189V5.11888V5.11885V5.11883V5.11881V5.11878V5.11876V5.11874V5.11871V5.11869V5.11867V5.11864V5.11862V5.1186V5.11857V5.11855V5.11853V5.1185V5.11848V5.11846V5.11844V5.11841V5.11839V5.11837V5.11835V5.11832V5.1183V5.11828V5.11826V5.11824V5.11821V5.11819V5.11817V5.11815V5.11813V5.11811V5.11808V5.11806V5.11804V5.11802V5.118V5.11798V5.11796V5.11794V5.11791V5.11789V5.11787V5.11785V5.11783V5.11781V5.11779V5.11777V5.11775V5.11773V5.11771H3.31102C3.33224 3.24538 4.8707 1.72846 6.74742 1.72846ZM5.73414 15.0054H5.06653L5.28422 14.3742L5.80602 12.8614C5.57117 12.6832 5.38751 12.4395 5.28575 12.1527C4.99686 11.344 5.4224 10.4633 6.2259 10.1772L6.22677 10.1769C7.03256 9.89177 7.91946 10.3043 8.20882 11.113C8.44247 11.766 8.21018 12.4661 7.68912 12.8623L8.21063 14.3742L8.42832 15.0054H7.76071H5.73414Z" stroke="url(#paint0_linear_2960_1403)" stroke-width="0.951872"/>
<defs>
<linearGradient id="paint0_linear_2960_1403" x1="6.74742" y1="0.326172" x2="6.74742" y2="17.4599" gradientUnits="userSpaceOnUse">
<stop stop-color="#898989"/>
</linearGradient>
</defs>
</svg>
