<svg width="264" height="264" viewBox="0 0 264 264" fill="none" xmlns="http://www.w3.org/2000/svg">
<g id="Group 17527">
<path id="Vector" d="M201.101 214.2L192.58 204.139C213.756 186.205 225.902 160.013 225.902 132.294C225.902 80.4027 183.682 38.1826 131.791 38.1826V25C190.956 25 239.085 73.1343 239.085 132.294C239.085 163.896 225.243 193.749 201.107 214.2H201.101Z" fill="url(#paint0_linear_1_73)"/>
<path id="Vector_2" d="M131.185 245.88C68.2262 245.88 17 194.66 17 131.695H43.9643C43.9643 179.787 83.0926 218.916 131.185 218.916V245.88Z" fill="url(#paint1_linear_1_73)"/>
<g id="Vector_3" filter="url(#filter0_d_1_73)">
<path d="M131.785 232.997C187.401 232.997 232.487 187.911 232.487 132.294C232.487 76.6774 187.401 31.5913 131.785 31.5913C76.168 31.5913 31.0818 76.6774 31.0818 132.294C31.0818 187.911 76.168 232.997 131.785 232.997Z" fill="white"/>
</g>
<path id="Vector (Stroke)" fill-rule="evenodd" clip-rule="evenodd" d="M131.784 45.7113C83.9656 45.7113 45.2012 84.4757 45.2012 132.294C45.2012 180.112 83.9656 218.877 131.784 218.877C179.602 218.877 218.367 180.112 218.367 132.294C218.367 84.4757 179.602 45.7113 131.784 45.7113ZM44.2012 132.294C44.2012 83.9235 83.4133 44.7113 131.784 44.7113C180.155 44.7113 219.367 83.9235 219.367 132.294C219.367 180.665 180.155 219.877 131.784 219.877C83.4133 219.877 44.2012 180.665 44.2012 132.294Z" fill="url(#paint2_linear_1_73)"/>
</g>
<defs>
<filter id="filter0_d_1_73" x="0.0817871" y="0.591278" width="263.406" height="263.406" filterUnits="userSpaceOnUse" color-interpolation-filters="sRGB">
<feFlood flood-opacity="0" result="BackgroundImageFix"/>
<feColorMatrix in="SourceAlpha" type="matrix" values="0 0 0 0 0 0 0 0 0 0 0 0 0 0 0 0 0 0 127 0" result="hardAlpha"/>
<feOffset/>
<feGaussianBlur stdDeviation="15.5"/>
<feComposite in2="hardAlpha" operator="out"/>
<feColorMatrix type="matrix" values="0 0 0 0 0 0 0 0 0 0 0 0 0 0 0 0 0 0 0.28 0"/>
<feBlend mode="normal" in2="BackgroundImageFix" result="effect1_dropShadow_1_73"/>
<feBlend mode="normal" in="SourceGraphic" in2="effect1_dropShadow_1_73" result="shape"/>
</filter>
<linearGradient id="paint0_linear_1_73" x1="185.438" y1="25" x2="185.438" y2="214.2" gradientUnits="userSpaceOnUse">
<stop stop-color="#00B3FF"/>
<stop offset="1" stop-color="#2226FF"/>
</linearGradient>
<linearGradient id="paint1_linear_1_73" x1="74.0925" y1="131.695" x2="74.0925" y2="245.88" gradientUnits="userSpaceOnUse">
<stop stop-color="#00B3FF"/>
<stop offset="1" stop-color="#2226FF"/>
</linearGradient>
<linearGradient id="paint2_linear_1_73" x1="131.784" y1="44.7113" x2="131.784" y2="219.877" gradientUnits="userSpaceOnUse">
<stop stop-color="#00B3FF"/>
<stop offset="1" stop-color="#2226FF"/>
</linearGradient>
</defs>
</svg>
