<svg width="26" height="26" viewBox="0 0 26 26" fill="none" xmlns="http://www.w3.org/2000/svg">
<path d="M18.9718 2.40667V3.63383L7.24414 3.62047V2.39332C7.24414 2.15323 7.67909 1.92647 8.40914 1.74864C11.6912 0.931695 18.8011 1.34093 18.9666 2.37554C18.9718 2.38444 18.9718 2.39777 18.9718 2.40667Z" fill="#095DA4"/>
<path d="M18.9691 3.63504C18.9699 3.03416 16.3448 2.54394 13.1059 2.5401C9.867 2.53625 7.24077 3.02024 7.24006 3.62112C7.23935 4.222 9.86441 4.71222 13.1033 4.71607C16.3422 4.71991 18.9684 4.23592 18.9691 3.63504Z" fill="#19345D"/>
<path d="M19.0545 20.3425V21.5697C19.0545 22.5531 12.6259 23.0107 9.01483 22.33C7.97413 22.1344 7.3269 21.8632 7.3269 21.5697V20.3425H19.0545Z" fill="#095DA4"/>
<path d="M13.1897 21.429C16.4286 21.429 19.0543 20.9419 19.0543 20.341C19.0543 19.7402 16.4286 19.2531 13.1897 19.2531C9.95084 19.2531 7.3252 19.7402 7.3252 20.341C7.3252 20.9419 9.95084 21.429 13.1897 21.429Z" fill="#19345D"/>
<path d="M18.164 3.86966V3.96749L18.1589 6.52851V6.86197C18.1537 7.68006 17.6721 8.4537 16.8437 8.87164C13.9432 10.3601 13.9622 13.9515 16.8333 15.4431C17.3925 15.7233 17.7912 16.1723 17.9932 16.6836C18.0864 16.9282 18.1381 17.1905 18.1381 17.4573C18.138 17.5029 18.1326 20.3323 18.133 20.1561C18.133 20.6719 15.8858 21.0854 13.1209 21.0809C10.3559 21.0809 8.11914 20.6585 8.11914 20.1428L8.12432 17.2038C8.12432 16.4124 8.60067 15.701 9.35145 15.2297C11.7965 13.7019 11.7633 10.5568 9.36182 9.06727C8.61104 8.59598 8.13984 7.8846 8.13984 7.08871L8.14502 3.86079C8.14502 3.34501 10.387 2.93152 13.152 2.93152C15.9221 2.93597 18.164 3.35836 18.164 3.86966Z" fill="#F2F8FD"/>
<path d="M8.87511 7.88015C9.59998 8.99615 10.9669 9.79646 11.3708 11.0236C11.6254 11.7853 11.4392 13.4218 10.8996 14.2249C10.7598 14.4294 10.4647 14.5761 10.2679 14.7451C9.15116 15.6827 8.39895 17.0585 8.35215 18.511C8.33142 19.378 8.65247 20.1161 9.64659 20.4496C10.1488 20.6141 10.6873 20.6496 11.2206 20.6852C13.561 20.8453 16.0463 20.9787 18.133 20.0539V20.1561C18.133 20.6719 15.8858 21.0854 13.1209 21.0809C10.3559 21.0809 8.11914 20.6585 8.11914 20.1428L8.12432 17.2038C8.12432 16.4124 8.60067 15.701 9.35145 15.2297C11.7965 13.7019 11.7633 10.5568 9.36182 9.06727C8.61104 8.59598 8.13984 7.8846 8.13984 7.08871L8.14502 3.86079C8.14502 3.34501 10.387 2.93152 13.152 2.93152C15.9221 2.93597 18.164 3.35836 18.164 3.86966V3.96749C16.5792 3.10847 14.4776 3.32149 12.7947 3.22053C12.2251 3.18941 11.6556 3.12715 11.0912 3.14938C10.4958 3.1716 9.60516 3.27831 9.21164 3.70515C8.19985 4.79348 7.97474 6.5027 8.87511 7.88015Z" fill="#D0DCEE"/>
<path d="M15.2535 6.59499C15.521 6.64056 15.8032 6.70703 15.9831 6.88304C16.2397 7.13415 16.2784 7.59014 15.789 8.08289C15.116 8.76055 14.0432 9.03631 13.0143 9.14884C10.8958 9.38056 10.5142 8.69936 9.73493 8.14276C9.58421 8.03511 9.44377 7.91685 9.31555 7.7895C9.21568 7.69031 9.24719 7.63882 9.34161 7.59814C9.99077 7.31843 10.6248 7.00364 11.3161 6.80938C12.5746 6.45574 13.9443 6.37195 15.2535 6.59499Z" fill="#FB6822"/>
<path d="M9.56348 7.76719C11.4618 8.13796 13.5323 7.80386 15.1443 6.86666C15.2538 6.80299 15.3635 6.73576 15.4895 6.70119C16.1742 6.51326 16.2922 7.44916 15.1339 8.33063C13.5796 9.51338 11.6942 9.33407 10.6941 8.24652" fill="black"/>
<path d="M14.1112 12.2439C14.0976 12.8133 14.2526 13.3407 14.4182 13.6297C14.4745 13.7281 14.6131 13.8288 14.617 13.9385C14.3099 14.0111 13.942 13.8301 13.792 13.6033C13.5836 13.288 13.6911 12.8846 13.5485 12.5434C13.4527 12.314 13.2388 12.3532 13.2006 12.5119C13.1855 12.5748 13.2005 12.6396 13.2106 12.7032C13.2604 13.0163 13.1914 13.5421 12.878 13.5346C12.729 13.531 12.5963 13.3881 12.458 13.436C12.3664 13.4677 12.3379 13.564 12.3056 13.6442C12.2463 13.7916 12.1197 13.9317 11.9422 13.9646C11.7856 13.9936 11.5666 13.8958 11.5789 13.7437C11.5838 13.6846 11.6453 13.6004 11.6618 13.5383C12.687 9.69301 10.0951 9.31578 9.24266 7.65233C9.88721 7.89674 10.5768 8.03497 11.2656 8.16247C11.9544 8.28997 12.6934 8.29206 13.3429 8.05744C14.4126 7.67101 15.0904 6.71468 16.2157 6.43413C17.2924 6.16572 18.233 6.91827 17.265 7.68563C15.7477 8.88852 14.1574 10.313 14.1112 12.2439ZM17.3284 20.2935C17.0686 20.4449 16.7578 20.5046 16.4516 20.5564C15.0593 20.7751 13.7102 20.8598 12.1652 20.7596C11.1817 20.6958 10.1611 20.5962 9.21935 20.3413C8.92247 20.2616 8.56061 19.9907 8.69052 19.6999C8.76938 19.5167 8.99668 19.4211 9.21009 19.3534C9.51161 19.2577 9.77604 19.1024 10.0498 18.963C11.1445 18.3952 11.4225 16.8888 11.5018 15.6566C11.5064 15.4614 11.6595 15.3897 11.8497 15.4455C12.0492 15.5012 12.1605 15.6885 12.2579 15.8637C12.4157 16.1824 12.5409 16.521 12.6198 16.8676C12.643 16.9592 12.6615 17.0548 12.7172 17.1345C12.7729 17.2142 12.8796 17.2699 12.9816 17.25C13.093 17.2261 13.1533 17.1186 13.2414 17.0469C13.3388 16.9632 13.4687 16.9353 13.6032 16.9473C13.9791 16.9602 14.2039 17.2851 14.4058 17.5568C14.712 17.991 15.1573 18.3057 15.6769 18.5088C16.1191 18.6829 16.7313 18.7168 17.1243 18.9191C17.3655 19.0386 17.5789 19.2179 17.6717 19.441C17.8016 19.7517 17.6392 20.1142 17.3284 20.2935ZM12.1489 15.0982C12.013 15.2171 11.773 15.0573 11.7141 14.9253C11.6121 14.6969 11.8629 14.26 12.0893 14.5371C12.1998 14.6723 12.2899 14.9749 12.1489 15.0982ZM10.5127 15.7349C10.414 15.8213 10.2398 15.7052 10.1969 15.6093C10.1229 15.4435 10.305 15.1262 10.4695 15.3274C10.5497 15.4256 10.6151 15.6453 10.5127 15.7349Z" fill="#FE8B2E"/>
<path d="M11.6739 9.60715C11.6438 9.42006 11.8909 9.28672 12.16 9.51359C12.526 9.8221 12.2188 10.1874 11.8954 9.90364C11.8019 9.82163 11.6938 9.73129 11.6739 9.60715ZM12.0911 8.90468C12.0738 8.79744 12.2155 8.721 12.3697 8.85105C12.5786 9.02713 12.4044 9.23809 12.2181 9.07464C12.1645 9.02763 12.1025 8.97584 12.0911 8.90468ZM17.3303 20.2932C17.0663 20.4443 16.7556 20.5022 16.4501 20.5555C13.7341 21.0026 10.7753 20.7612 9.21676 20.3421C8.92162 20.262 8.55917 19.9908 8.68861 19.6974C8.76961 19.5148 9.02095 19.4123 9.21157 19.355C9.51189 19.2572 9.77596 19.1016 10.0504 18.9638C11.1423 18.3907 11.4214 16.8903 11.5002 15.6558C11.5053 15.4601 11.6607 15.389 11.8523 15.4468C12.049 15.5002 12.1629 15.6869 12.2561 15.8648C12.4166 16.1804 12.5409 16.5183 12.6186 16.8652C12.6444 16.9585 12.66 17.0563 12.7169 17.1319C12.7739 17.212 12.8774 17.2698 12.981 17.2475C13.193 17.2062 13.1831 16.9175 13.6023 16.9452C13.3946 17.1142 13.4684 17.4293 13.2399 17.581C13.0121 17.741 12.6548 17.5676 12.5202 17.3409C12.3856 17.1141 12.3856 16.8429 12.2561 16.6117C12.074 16.2628 11.5798 16.2722 11.6607 16.8829C11.8219 18.2171 11.2736 19.0258 10.4853 19.3328C10.273 19.4173 9.99342 19.5062 9.9779 19.7018C9.96754 19.8841 10.185 20.0042 10.3766 20.0798C11.1999 20.3865 12.106 20.5422 13.0017 20.5155C13.2036 20.5066 13.4108 20.4977 13.592 20.4132C14.148 20.1464 13.7738 19.7512 13.7162 19.644C13.6489 19.5284 13.6179 19.3772 13.7214 19.2794C13.8094 19.1994 13.9803 19.1994 14.0994 19.2616C14.2133 19.3194 14.3013 19.4217 14.3893 19.5106C14.7311 19.8752 15.2023 20.182 15.7459 20.2309C16.2948 20.2709 16.8902 19.9819 16.999 19.524C17.0455 19.315 17.0041 19.0838 17.0507 18.8882C17.0714 18.8926 17.1025 18.906 17.1232 18.9193C17.3666 19.0393 17.5789 19.2172 17.6721 19.4395C17.8079 19.7643 17.6225 20.1259 17.3303 20.2932Z" fill="#FB6822"/>
<path d="M12.4625 19.1318C12.5913 19.189 12.6661 19.1355 12.633 19.0025C12.5112 18.5128 11.8706 18.3201 11.9917 18.6545C12.0741 18.882 12.2421 19.0339 12.4625 19.1318ZM12.9515 18.5017C13.1118 18.5729 13.0206 18.2744 12.8093 18.2095C12.7416 18.1887 12.7174 18.233 12.7353 18.2824C12.7731 18.3869 12.8503 18.4567 12.9515 18.5017Z" fill="#FB6822"/>
<path d="M11.4096 5.29022C10.7186 5.7062 9.89412 5.05946 10.1552 4.30754C10.2457 4.03807 10.4702 3.81709 10.7753 3.73843C10.7768 3.73753 10.7792 3.73812 10.7816 3.73872C11.0261 3.67723 11.283 3.72451 11.4837 3.86477L11.4846 3.86627C11.9714 4.20472 11.953 4.96039 11.4096 5.29022Z" fill="#28B6F4"/>
<path d="M11.4096 5.2904C10.7186 5.70638 9.89412 5.05964 10.1552 4.30772C10.1621 4.33618 10.1729 4.36433 10.1868 4.39069C10.468 4.90271 11.3453 4.55272 11.4501 4.04633C11.462 3.98816 11.467 3.92193 11.4846 3.86646C11.9714 4.2049 11.953 4.96058 11.4096 5.2904Z" fill="#095DA4"/>
<path d="M13.0147 4.14896C13.0156 4.15046 13.0165 4.15195 13.0168 4.15584C13.0192 4.15644 13.0201 4.15794 13.0195 4.16033L13.0204 4.16182C13.0213 4.16332 13.0213 4.16332 13.0207 4.16572C13.0541 4.23131 13.0671 4.30711 13.0603 4.39074C13.0285 4.80556 12.5157 5.40388 11.7561 5.86321C11.5036 6.01312 11.2506 6.13485 11.0122 6.22331C10.625 6.37124 9.91421 6.53115 9.6644 6.20038L9.65539 6.18541C9.65449 6.18391 9.65359 6.18241 9.65359 6.18241C9.58798 5.98645 10.1134 5.45869 10.2781 5.32919C10.7227 4.93532 11.3109 4.56514 11.9241 4.31595C12.3961 4.12767 12.7814 4.05279 12.9436 4.102C12.9766 4.11274 13.0012 4.1265 13.0147 4.14896Z" fill="#FF9F1C"/>
<path d="M9.66211 6.19921C9.73791 6.32415 9.70185 6.35123 9.92484 6.2386C10.696 5.8491 13.0742 4.38573 13.0843 4.28528C13.0871 4.25791 13.0778 4.25239 13.0221 4.16064L12.1022 4.74654L12.0706 4.81598C11.5908 5.0951 11.0732 5.41061 10.7238 5.63205L10.7079 5.58824L9.66211 6.19921Z" fill="#19345D"/>
<path d="M13.0149 4.14858C13.0158 4.15008 13.0167 4.15157 13.017 4.15546C13.0194 4.15607 13.0203 4.15757 13.0197 4.15996L13.0206 4.16145C13.0215 4.16295 13.0215 4.16295 13.0209 4.16535C13.0218 4.16685 13.0212 4.16925 13.0191 4.17255C12.8692 4.36909 9.89093 6.17755 9.67089 6.2003C9.66849 6.1997 9.66699 6.2006 9.66459 6.20001L9.66369 6.19851L9.66039 6.19641C9.55572 6.02254 10.104 5.46582 10.2783 5.32881C10.7229 4.93494 11.3111 4.56477 11.9242 4.31558C12.1561 4.22161 12.709 4.02998 12.9438 4.10163C12.9768 4.11237 13.0014 4.12612 13.0149 4.14858Z" fill="#E2212E"/>
<path d="M12.8594 4.08703C12.7345 4.30034 12.44 4.48032 12.2383 4.60369C10.4816 5.67428 10.5538 5.64098 10.4845 5.65124C10.3747 5.66751 10.3015 5.56762 10.4128 5.43737C10.7241 5.05524 11.1901 5.02048 11.8792 4.4139C11.9277 4.37248 11.9759 4.32716 12.0184 4.27914C12.3808 4.14256 12.6837 4.07649 12.8594 4.08703Z" fill="#F72F43"/>
<path d="M10.2889 5.25033L10.2894 5.25116C10.3131 5.28925 10.3788 5.29317 10.4395 5.25766C10.8905 4.99753 11.3595 4.7064 11.8185 4.39835C11.9612 4.3038 11.8653 4.16793 11.724 4.256C11.6783 4.28447 11.1558 4.68104 10.3671 5.10272C10.3349 5.11933 10.31 5.14402 10.2952 5.1682C10.2778 5.19745 10.2749 5.22796 10.2889 5.25033Z" fill="#FFCA28"/>
<path d="M10.2889 5.25033L10.2894 5.25116C10.3131 5.28925 10.3788 5.29317 10.4395 5.25766C10.8905 4.99753 11.3595 4.7064 11.8185 4.39835C11.9612 4.3038 11.8653 4.16793 11.724 4.256C11.7174 4.2601 11.7365 4.24741 11.6722 4.29285C11.6737 4.46152 11.5108 4.52139 10.8523 4.95327C10.4418 5.22311 10.3397 5.15626 10.2952 5.1682C10.2778 5.19745 10.2749 5.22796 10.2889 5.25033Z" fill="#FF9F1C"/>
<path d="M10.2546 5.79201C10.3263 5.79201 10.3844 5.73388 10.3844 5.66218C10.3844 5.59048 10.3263 5.53235 10.2546 5.53235C10.1829 5.53235 10.1248 5.59048 10.1248 5.66218C10.1248 5.73388 10.1829 5.79201 10.2546 5.79201Z" fill="black"/>
<path d="M10.3533 5.57555L10.3579 5.58305C10.4323 5.73147 10.217 5.8505 10.1318 5.70894C10.0944 5.64695 10.1161 5.56542 10.175 5.52996C10.2363 5.49301 10.3164 5.51417 10.3533 5.57555Z" fill="#F2F8FD"/>
<path d="M10.3578 5.58301C10.4323 5.73143 10.2169 5.85046 10.1317 5.7089C10.1155 5.68195 10.1092 5.6511 10.1154 5.62082C10.1616 5.66277 10.2474 5.67563 10.3039 5.63583C10.3255 5.62081 10.3396 5.60011 10.3578 5.58301Z" fill="#D0DCEE"/>
<path d="M11.277 5.20558C11.3487 5.20558 11.4069 5.14746 11.4069 5.07575C11.4069 5.00405 11.3487 4.94592 11.277 4.94592C11.2053 4.94592 11.1472 5.00405 11.1472 5.07575C11.1472 5.14746 11.2053 5.20558 11.277 5.20558Z" fill="black"/>
<path d="M11.3756 4.9884L11.3801 4.99589C11.4545 5.14431 11.2392 5.26334 11.154 5.12178C11.1167 5.05979 11.1383 4.97826 11.1972 4.9428C11.2586 4.90585 11.3386 4.92702 11.3756 4.9884Z" fill="#F2F8FD"/>
<path d="M11.3803 4.99634C11.4547 5.14476 11.2394 5.26379 11.1542 5.12223C11.138 5.09528 11.1316 5.06443 11.1379 5.03415C11.1841 5.0761 11.2698 5.08896 11.3264 5.04916C11.348 5.03414 11.362 5.01344 11.3803 4.99634Z" fill="#D0DCEE"/>
<path d="M12.2993 4.58986C12.371 4.58986 12.4291 4.53173 12.4291 4.46003C12.4291 4.38833 12.371 4.3302 12.2993 4.3302C12.2276 4.3302 12.1694 4.38833 12.1694 4.46003C12.1694 4.53173 12.2276 4.58986 12.2993 4.58986Z" fill="black"/>
<path d="M12.3978 4.37353L12.4023 4.38102C12.4768 4.52944 12.2614 4.64848 12.1762 4.50691C12.1389 4.44492 12.1605 4.36339 12.2194 4.32794C12.2808 4.29098 12.3608 4.31215 12.3978 4.37353Z" fill="#F2F8FD"/>
<path d="M12.4022 4.38062C12.4767 4.52904 12.2614 4.64807 12.1762 4.50651C12.1599 4.47956 12.1536 4.4487 12.1598 4.41843C12.206 4.46038 12.2918 4.47324 12.3484 4.43344C12.3699 4.41842 12.384 4.39772 12.4022 4.38062Z" fill="#D0DCEE"/>
<path d="M13.0606 4.39062C13.0288 4.80544 12.516 5.40376 11.7563 5.86309C11.5039 6.013 11.2509 6.13473 11.0124 6.22319C10.991 6.10963 11.0256 5.98072 11.0931 5.88292C11.1859 5.74554 11.3266 5.65063 11.4601 5.55393C11.9951 5.16866 12.4844 4.71092 13.0606 4.39062Z" fill="#FFCA28"/>
<path d="M12.5506 4.9491C12.432 4.8642 12.2749 4.99328 12.348 5.06247C12.4154 5.1262 12.6775 5.04001 12.5506 4.9491Z" fill="#FF9F1C"/>
<path d="M12.2864 5.15286C12.2138 5.10087 12.1175 5.17992 12.1623 5.22228C12.2036 5.26131 12.3641 5.20853 12.2864 5.15286Z" fill="#FF9F1C"/>
<path d="M11.1885 4.19179C11.2381 4.18313 11.2843 4.13474 11.2711 4.08615C11.2431 3.98278 10.9939 3.96855 10.9489 4.03902C10.9318 4.06573 10.9432 4.10308 10.966 4.12506C11.0124 4.16964 11.126 4.20269 11.1885 4.19179Z" fill="#095DA4"/>
<path d="M10.8401 4.27047C10.8658 4.26599 10.8897 4.24092 10.8829 4.21576C10.8686 4.16285 10.7398 4.15405 10.716 4.19135C10.686 4.23838 10.7913 4.27899 10.8401 4.27047Z" fill="#095DA4"/>
<path d="M15.8598 16.8049C15.4403 17.2013 14.7711 17.1334 14.4359 16.6775C13.9619 16.0608 14.4099 15.1398 15.204 15.1398C15.6837 15.1398 16.0807 15.4893 16.1524 15.9459C16.1565 15.95 16.1565 15.9527 16.1565 15.9568C16.2117 16.2779 16.0823 16.6016 15.8598 16.8049Z" fill="#8EECD3"/>
<path d="M16.1662 16.1572C16.1629 16.2198 16.1547 16.2807 16.1382 16.3383C16.135 16.3383 16.1317 16.34 16.1284 16.34C15.7003 16.4001 15.2619 16.3077 14.9446 16.0041C15.3216 16.1853 15.7563 16.2395 16.1662 16.1572ZM15.86 16.8043C15.6871 16.9674 15.4583 17.0645 15.2047 17.0645C14.6041 17.0645 14.172 16.5142 14.2498 16.0009C14.4193 16.5133 15.2098 17.0034 15.86 16.8043Z" fill="#00C6C5"/>
<path d="M16.1564 16.2565C16.1472 16.3203 16.1186 16.4144 16.1089 16.434C15.5784 16.6156 14.8155 16.704 14.4357 16.6778C14.3951 16.625 14.3598 16.5667 14.3328 16.5044C14.9194 16.5518 15.5169 16.4746 16.071 16.2768C16.0981 16.2673 16.1279 16.2578 16.1564 16.2565Z" fill="black"/>
<path d="M16.1564 15.9564C15.949 15.9958 15.7349 16.0057 15.5275 15.9761C15.2374 15.9342 14.6524 15.7437 14.4177 15.5513C14.4623 15.4871 14.5149 15.4279 14.5742 15.3768C15.0417 15.6946 15.59 15.8921 16.1531 15.9465C16.1564 15.9498 16.1564 15.9531 16.1564 15.9564ZM15.5225 15.6073C15.2657 15.5579 15.0188 15.4196 14.831 15.2155C14.8755 15.1957 14.9232 15.1809 14.971 15.1693C15.1011 15.362 15.2937 15.5184 15.5225 15.6073ZM14.7522 16.2319C14.814 16.2079 14.7793 16.0463 14.6524 16.0038C14.6046 15.9878 14.6128 16.0616 14.6183 16.0908C14.6285 16.1458 14.6995 16.2523 14.7522 16.2319ZM14.9587 16.2565C14.9981 16.2412 14.9787 16.1338 14.8923 16.1048C14.8606 16.0942 14.866 16.1433 14.8696 16.1627C14.8764 16.1994 14.9237 16.27 14.9587 16.2565Z" fill="#00C6C5"/>
<path d="M15.8598 16.8049C15.4403 17.2013 14.7711 17.1334 14.4359 16.6775C13.9619 16.0608 14.4099 15.1398 15.204 15.1398C15.6837 15.1398 16.0807 15.4893 16.1524 15.9459C16.1565 15.95 16.1565 15.9527 16.1565 15.9568C16.2117 16.2779 16.0823 16.6016 15.8598 16.8049Z" fill="#8EECD3"/>
<path d="M16.1662 16.1572C16.1629 16.2198 16.1547 16.2807 16.1382 16.3383C16.135 16.3383 16.1317 16.34 16.1284 16.34C15.7003 16.4001 15.2619 16.3077 14.9446 16.0041C15.3216 16.1853 15.7563 16.2395 16.1662 16.1572ZM15.86 16.8043C15.6871 16.9673 15.4583 17.0644 15.2047 17.0644C14.6041 17.0644 14.172 16.5141 14.2498 16.0008C14.4193 16.5133 15.2098 17.0033 15.86 16.8043ZM16.1563 15.9564C15.9489 15.9958 15.7348 16.0057 15.5274 15.9761C15.2373 15.9342 14.6523 15.7437 14.4176 15.5513C14.4622 15.4871 14.5148 15.4279 14.5741 15.3768C15.0417 15.6946 15.59 15.8921 16.153 15.9465C16.1563 15.9498 16.1563 15.9531 16.1563 15.9564ZM15.5224 15.6073C15.2656 15.5579 15.0187 15.4196 14.831 15.2155C14.8754 15.1957 14.9232 15.1809 14.9709 15.1693C15.101 15.362 15.2936 15.5184 15.5224 15.6073Z" fill="#00C6C5"/>
<path d="M14.7519 16.232C14.8137 16.2081 14.779 16.0465 14.6521 16.004C14.6044 15.9879 14.6125 16.0618 14.618 16.091C14.6282 16.1459 14.6992 16.2525 14.7519 16.232ZM14.9584 16.2566C14.9978 16.2414 14.9784 16.134 14.892 16.105C14.8603 16.0944 14.8657 16.1434 14.8693 16.1629C14.8761 16.1996 14.9234 16.2702 14.9584 16.2566Z" fill="#00C6C5"/>
<path d="M16.8333 15.4427C17.3925 15.7228 17.7912 16.1719 17.9931 16.6832C17.3465 15.8419 16.0816 15.6782 14.9382 13.9932C14.5188 13.3708 14.3739 12.6905 14.4049 11.9702C14.4308 11.45 14.5136 10.7297 14.8761 10.294C15.2385 9.85828 15.6114 9.44033 16.067 9.07574C16.5278 8.71115 17.0197 8.36878 17.377 7.91971C17.7187 7.49735 17.9931 7.0216 18.1588 6.52808V6.86154C18.1536 7.67963 17.6721 8.45326 16.8436 8.87121C13.9431 10.3597 13.9621 13.951 16.8333 15.4427Z" fill="#D0DCEE"/>
<path d="M17.6409 19.9646C17.4499 20.3746 16.8989 20.4776 16.45 20.556C13.7339 21.0031 10.7752 20.7617 9.21662 20.3425C8.7016 20.2029 8.43558 19.738 8.91115 19.48C8.90596 19.5867 8.97328 19.689 9.05092 19.7734C9.68201 20.4558 11.3692 20.6223 12.2974 20.7205C12.3433 20.7252 13.132 20.7738 13.1776 20.7738C13.939 20.7738 14.2284 20.5146 14.4824 20.4848C14.7258 20.4493 14.9795 20.5293 15.2177 20.5471C16.0562 20.6163 16.8674 20.4061 17.4855 20.0224C17.5321 20.0002 17.5891 19.9735 17.6409 19.9646Z" fill="black"/>
<path d="M15.1323 5.53386C15.4268 5.69566 15.5758 5.51056 15.4454 5.24083C15.3207 4.98276 15.1144 4.76564 14.8654 4.62415C14.696 4.52785 14.1731 4.38196 14.3566 4.76654C14.5251 5.11954 14.7973 5.34978 15.1323 5.53386Z" fill="#D0DCEE"/>
<path d="M15.8604 4.73159C15.9935 4.80473 16.0608 4.72106 16.0019 4.59913C15.8373 4.25854 15.4082 4.17191 15.5098 4.38474C15.5859 4.54431 15.7089 4.64839 15.8604 4.73159Z" fill="#D0DCEE"/>
<path d="M18.9664 2.37554C18.283 2.37554 17.5943 2.21548 16.9108 2.1221C13.9829 1.71486 10.3527 2.53558 9.27362 2.35332C8.91618 2.28681 8.49238 2.0826 8.40894 1.74864C11.6909 0.931695 18.8009 1.34093 18.9664 2.37554Z" fill="#28B6F4"/>
<path d="M19.0544 20.7114V21.5695C19.0544 22.5529 12.6258 23.0105 9.01465 22.3299C9.02501 22.1831 9.08196 22.0453 9.19589 21.9297C9.45996 21.6585 9.92076 21.614 10.335 21.6051C11.9401 21.5695 13.5452 21.7963 15.1555 21.7474C16.538 21.7074 17.9774 21.4317 19.0544 20.7114Z" fill="#28B6F4"/>
</svg>
