<svg width="364" height="297" viewBox="0 0 364 297" fill="none" xmlns="http://www.w3.org/2000/svg">
<path d="M358.061 2.80233L358.067 2.80484L363.5 4.97908V9.28125V18.5625V37.125V74.25V148.5V222.75V259.875V278.438V287.719V292.032L358.542 294.197L352.532 296.5H341.25H318.5H273H182H91H45.5H22.75H11.4676L5.45809 294.197L0.5 292.032V287.719V278.438V259.875V222.75V148.5V74.25V37.125V18.5625V9.28125V4.97566L6.41505 2.54358L6.41646 2.543L11.4722 0.5H22.75H45.5H91H182H273H318.5H341.25H352.525L358.061 2.80233Z" fill="#12121C" stroke="url(#paint0_linear_2945_4807)"/>
<defs>
<linearGradient id="paint0_linear_2945_4807" x1="25.8632" y1="18.0231" x2="150.745" y2="298.456" gradientUnits="userSpaceOnUse">
<stop stop-color="#7F96A8"/>
<stop offset="0.475" stop-color="#7B8B9B"/>
<stop offset="0.985" stop-color="#4B5561"/>
</linearGradient>
</defs>
</svg>
